<svg preserveAspectRatio="none" width="100%" height="100%" overflow="visible" style="display: block;" viewBox="0 0 20 20" fill="none" xmlns="http://www.w3.org/2000/svg">
<g id="Group">
<g id="Path">
</g>
<path id="Path_2" fill-rule="evenodd" clip-rule="evenodd" d="M10 17.5V17.5C5.8575 17.5 2.5 14.1425 2.5 10V10C2.5 5.8575 5.8575 2.5 10 2.5V2.5C14.1425 2.5 17.5 5.8575 17.5 10V10C17.5 14.1425 14.1425 17.5 10 17.5Z" stroke="var(--stroke-0, #737373)" stroke-width="1.25" stroke-linecap="round" stroke-linejoin="round"/>
<path id="Path_3" d="M10 14.1667V10H9.16667" stroke="var(--stroke-0, #737373)" stroke-width="1.25" stroke-linecap="round" stroke-linejoin="round"/>
<path id="Path_4" d="M9.79083 6.66667C9.67583 6.66667 9.5825 6.76 9.58333 6.875C9.58333 6.99 9.67667 7.08333 9.79167 7.08333C9.90667 7.08333 10 6.99 10 6.875C10 6.76 9.90667 6.66667 9.79083 6.66667" stroke="var(--stroke-0, #737373)" stroke-width="1.25" stroke-linecap="round" stroke-linejoin="round"/>
</g>
</svg>
