<svg preserveAspectRatio="none" width="100%" height="100%" overflow="visible" style="display: block;" viewBox="0 0 586 658" fill="none" xmlns="http://www.w3.org/2000/svg">
<g id="Layer_1" clip-path="url(#clip0_0_14)">
<path id="Vector" d="M353.993 312.494C355.393 311.576 356.297 310.988 357.577 311.109C358.57 311.199 360.091 313.744 359.112 314.783C354.851 319.286 349.566 322.961 343.83 326.109L336.105 330.34L328.712 333.578C318.203 338.172 307.151 340.22 295.934 342.027L286.207 342.449C279.446 342.735 267.009 342.644 262.372 341.665L251.726 339.422L245.734 337.961C237.091 335.852 228.509 333.729 220.679 329.271C208.573 322.374 196.934 314.798 187.177 305.16C182.254 300.296 178.986 294.392 175.388 288.925C174.469 287.525 175.433 285.326 176.276 284.694C177.119 284.061 179.348 283.414 180.101 284.844C186.063 296.26 194.706 305.145 205.321 312.268L217.096 320.16L228.539 325.973L247.375 331.922L254.858 333.578L271.617 335.702C277.188 336.41 283.045 336.078 288.676 335.672L297.138 335.054C300.481 334.813 304.019 334.376 307.301 333.548L317.766 330.883L333.44 324.723L342.444 320.145L353.993 312.539V312.494Z" fill="var(--fill-0, #FAF1DB)"/>
<path id="Vector_2" d="M255.077 243.595C255.83 238.188 254.354 227.149 258.149 226.246C259.835 225.839 262.229 226.969 262.109 229.137L261.567 238.625C262.154 247.375 260.061 256.803 254.174 263.052C250.259 267.209 245.832 268.113 240.487 267.239C236.241 266.546 233.275 263.007 230.7 258.836C227.824 254.197 227.297 249.468 226.921 243.956C226.469 237.33 226.062 230.553 227.598 224.153C227.899 222.903 229.751 222.255 230.565 222.104C231.543 221.924 233.395 223.249 233.41 224.845L233.591 245.462C233.636 250.372 236.693 260.221 241.616 260.793C249.491 261.697 253.3 256.351 254.324 248.986L255.062 243.595H255.077Z" fill="var(--fill-0, #FAF1DB)"/>
<path id="Vector_3" d="M320.278 246.065C320.413 242.691 319.103 238.128 323.169 237.345C327.791 236.441 326.632 251.351 325.171 260.04C323.56 269.664 317.342 279.046 307.645 277.45C300.102 276.2 294.365 269.634 293.266 262.058L292.317 255.507L291.865 240.703C291.805 238.58 293.145 233.55 295.509 233.655C301.592 233.956 297.286 241.502 298.551 250.116L300.343 262.329C300.915 266.26 303.128 268.79 306.185 270.146C309 271.396 313.638 271.621 315.61 268.323C318.305 263.835 319.841 257.932 320.037 252.721L320.293 246.095L320.278 246.065Z" fill="var(--fill-0, #FAF1DB)"/>
<path id="Vector_4" d="M97.8097 506.828L91.3051 496.271C89.694 493.665 86.6676 490.925 83.5056 491.211C79.3951 491.572 77.5883 494.629 76.0073 498.364C40.3375 455.609 16.4572 408.953 5.84208 356.424C5.79691 356.168 6.44436 355.249 6.3239 355.114C6.14322 354.918 5.78185 354.858 5.01395 354.858C5.67646 352.975 5.46566 351.273 4.74293 349.451C3.76423 346.981 3.73411 340.957 3.02644 336.334C2.49945 332.825 1.6412 329.813 2.87587 325.702C1.76166 326.214 1.79177 326.952 1.46052 327.599L1.49063 322.358C1.50569 319.617 -0.0752846 316.56 1.00881 313.774C1.9574 311.319 0 309.618 0 307.72V286.862C0 284.468 1.98751 282.449 0.798016 279.633C-0.39148 276.817 2.37899 265.868 3.0415 258.218L3.52332 252.631C3.86963 248.715 5.10429 243.821 5.91737 239.89C16.1711 190.749 37.3411 146.383 71.1439 107.468C74.4715 103.643 77.8894 100.224 81.4428 96.7451L91.3503 87.0163L112.46 69.3359C148.792 41.3696 189.732 21.1892 234.045 9.41233L246.467 6.53587L273.509 1.71668C275.286 1.40043 276.58 2.03294 278.643 0.948627L285.434 1.08417C288.445 -0.43689 290.463 0.105269 293.369 0.105269H310.504C313.696 0.105269 315.984 -0.49713 319.267 1.08417L327.006 0.798027C329.987 2.18354 331.794 1.44561 334.7 1.77692C336.974 2.03294 339.488 2.48474 341.446 2.83112L360.959 6.15937L383.469 12.349C406.13 18.5838 425.93 30.2101 444.932 43.6737C450.924 47.9207 456.827 51.0381 462.368 56.0229C496.336 86.5043 523.168 128.687 545.587 168.415L553.251 183.265L556.443 191.035C560.674 201.321 565.086 211.08 568.067 221.592L576.8 252.45L579.887 267.676C580.549 270.944 581.016 273.941 581.558 277.404L582.311 282.148L582.823 286.425L584.283 298.594C584.615 301.41 584.976 303.262 584.946 305.807L584.78 321.093C584.735 321.53 585.699 321.199 585.985 319.889L585.383 328.94C585.066 333.759 584.449 338.262 585.202 343.006C585.654 345.852 584.509 348.337 584.344 350.852L583.741 359.572L582.898 364.481L582.266 369.496L581.694 374.451L579.917 382.884C577.463 394.496 574.421 405.565 570.777 416.89L561.337 440.489L551.58 460.293L545.843 470.097C534.551 487.31 522.129 503.093 508.698 518.65L492.241 537.731L487.317 543.273L479.442 551.978L461.299 570.05C415.435 611.856 361.637 639.807 302.388 652.036L276.038 656.193C274.036 656.509 272.681 656.027 270.497 656.885L261.704 656.765C262.291 657.593 263.059 657.277 263.571 657.156C264.038 657.051 264.414 658.045 263.421 658.015L253.724 657.759L238.562 657.804C235.776 657.804 234.06 658.181 231.229 656.825L224.363 657.051C222.33 656.147 221.246 656.388 219.334 656.072L203.84 653.497C202.184 653.226 200.844 652.006 198.902 652.638C198.405 652.804 198.013 652.247 198.059 651.961C176.633 646.645 156.487 636.374 139.141 621.856C124.476 609.582 113.228 595.35 105.504 577.941L102.011 570.772L99.1799 564.899C97.3279 561.074 96.0932 557.369 94.723 553.453L89.8747 539.659L81.9999 514.795L80.1479 507.4C78.9585 502.656 79.7113 497.114 84.6801 494.976C89.423 500.021 92.4796 505.548 95.235 511.481L104.043 530.442L119.236 560.908C119.943 562.339 120.485 563.047 121.991 562.896C122.895 562.806 123.918 561.149 123.391 560.005L118.95 550.155L112.189 532.611L104.811 511.692L99.8424 493.425L100.354 491.557C100.43 491.286 99.8123 491.226 98.9992 490.94L99.466 482.009C99.6015 479.358 103.396 476.633 105.956 477.024C107.085 477.25 108.681 478.892 109.629 479.599L114.794 489.916L118.965 499.388L132.682 530.065L140.918 548.619C141.49 549.914 143.643 549.026 144.351 548.423C145.48 547.46 144.215 545.818 143.778 544.839L139.608 535.607L137.259 530.065L126.719 503.304L122.819 491.15L121.464 485.096V474.554C121.449 472.416 123.828 468.033 126.056 467.732C134.368 470.714 142.288 487.777 144.667 496.647L145.706 500.533L148.567 509.539C151.322 518.228 162.554 545.065 166.74 540.863C168.472 539.116 165.927 537.068 163.699 532.309L152.767 508.876C150.524 504.057 149.651 499.042 148.16 493.891C147.211 490.638 146.157 487.581 145.51 484.042C144.004 475.774 139.909 465.85 147.046 464.042C151.186 462.988 155.086 468.455 157.766 473.651L161.726 481.316L185.019 530.427L191.494 543.815C191.825 544.508 191.976 545.472 192.367 545.818C192.984 546.345 194.52 546.481 195.107 545.908C195.74 545.306 196.011 543.951 195.499 542.836L182.189 513.861L172.447 492.551C172.974 490.533 173.877 489.81 174.811 489.539C180.171 488.018 184.869 494.177 188.302 500.503L195.348 513.469L203.253 530.367L212.98 550.336L220.749 561.119L237.463 580.682C242.386 586.45 247.265 591.826 253.634 596.103C258.904 599.642 271.25 603.091 278.071 604.085L284.305 605.004L290.93 604.898H300.129L306.754 604.974C310.037 605.004 312.627 604.371 315.834 604.025L322.022 603.362C324.958 603.046 328.256 601.465 331.403 601.826C332.396 601.932 334.294 600.109 335.604 601.585C335.95 601.013 335.769 600.591 336.01 600.441C336.402 600.185 337.621 600.651 338.073 600.531L357.255 595.892L377.085 590.486C383.334 588.784 388.619 585.983 394.431 583.393L403.826 579.191L416.911 572.384C421.383 570.065 425.463 567.294 426.156 561.782C426.472 559.327 425.478 556.481 423.822 555.02C421.774 553.197 419.004 552.761 416.022 553.213L411.009 553.966C408.238 554.372 405.302 554.764 402.652 556.179C401.207 556.541 401.342 554.282 402.742 554.643L408.87 551.044C414.502 547.746 420.78 544.237 424.229 538.499C427.074 533.77 425.177 527.309 420.494 525.352C419.004 524.734 417.573 525.005 416.549 523.409C416.324 523.062 415.571 523.409 415.661 523.605C415.751 523.831 415.721 524.478 415.435 524.478C411.234 524.373 407.771 527.144 408.133 524.689C415.571 519.81 420.013 510.246 415.616 505.322C413.553 503.018 404.926 501.301 398.752 503.695L407.862 496.391C411.34 493.605 411.445 488.274 408.359 484.976C406.612 483.108 403.977 481.602 401.237 481.587C401.297 479.72 403.134 479.765 404.7 478.711C422.226 466.814 439.045 453.757 453.047 437.823L465.74 419.495L471.402 410.022C481.385 393.336 488.145 376.559 494.168 358.276L497.224 349.015C500.07 340.415 503.127 332.117 503.639 322.87L503.593 321.5C503.593 321.214 504.015 321.048 504.587 320.988L504.361 313.413C504.316 311.741 504.678 310.416 503.94 308.548C504.06 307.645 505.295 307.826 504.888 308.895C504.045 310.597 506.364 310.536 505.536 308.985C505.792 304.557 505.385 301.169 504.376 297.238L504.407 289.046C502.645 288.037 504.09 285.717 503.684 284.739C502.6 282.058 503.112 279.874 502.72 277.66L500.642 266.094L498.564 255.688L496.125 244.333C495.553 244.559 494.966 244.001 495.764 243.519L488.19 219.002L484.787 209.68C482.875 204.454 480.933 199.575 478.494 194.68C476.928 191.532 475.151 188.882 473.51 185.644L470.423 179.53C457.143 159.184 441.303 140.826 422.286 125.51C411.445 116.775 401.086 108.507 388.544 101.971C369.241 91.9108 348.191 86.5946 327.096 82.1218L315.427 80.5104L307.372 79.7574L301.379 78.7785C298.669 78.3267 277.845 78.3418 275.436 78.7484L269.443 79.7725L262.231 80.4954C254.643 81.2484 248.002 83.3869 240.85 85.3748C212.152 93.3415 176.919 113.025 154.363 132.317L148.988 136.91L137.741 147.06L128.014 157.738C113.68 173.461 94.2262 201.291 86.5321 220.583C85.0113 224.393 83.1744 227.601 81.8494 231.622L80.5394 235.643C78.1454 242.932 75.676 249.89 74.3209 257.465L71.7462 271.757C70.7976 276.983 71.0084 281.727 70.1953 287.781C69.5328 292.66 69.5479 298.338 70.1953 303.217C71.0235 309.407 70.9933 315.928 71.7161 319.738L73.2368 327.931C76.3536 344.677 81.3073 360.731 89.0165 376.243C97.3279 392.959 107.597 407.959 119.16 422.567C125.545 430.624 132.395 437.176 139.532 444.404C151.819 456.874 165.566 466.648 180.397 476.121C191.705 483.349 202.109 490.97 215.615 494.042L232.569 497.897C234.421 498.319 235.957 497.792 237.854 498.846L242.175 498.726C242.612 498.726 242.657 499.689 243.109 499.689H248.273C254.477 498.605 260.5 499.915 266.643 499.464L278.824 498.56C281.459 498.364 283.793 497.732 286.864 497.912C289.063 498.033 292.36 495.834 295.191 497.641C295.341 497.732 296.169 497.521 296.335 497.415C296.546 497.28 296.681 497.129 296.787 496.406C306.017 495.985 314.659 493.545 323.483 490.909L330.379 488.846L345.12 485.021C346.219 484.735 347.122 483.44 349.185 484.976L349.742 483.41C351.353 484.148 352.618 483.455 354.154 483.169C362.013 481.723 370.039 488.801 366.018 490.111L309.57 508.635C308.546 508.966 308.034 510.216 307.899 510.819C307.763 511.421 309.42 512.987 310.203 512.746L374.917 492.024L392.413 486C396.765 484.494 401.734 484.388 405.001 487.687C406.266 488.967 406.236 492.641 404.579 493.801C387.46 505.819 368.985 515.397 349.32 522.129L334.836 525.894C333.616 526.21 332.577 525.894 331.839 526.873C330.981 528.017 331.252 528.906 331.809 529.644C332.758 530.924 333.842 530.713 335.152 530.352L349.531 526.466C350.871 526.105 351.91 525.562 353.747 524.9L364.513 520.999L370.505 518.319C377.823 515.051 384.448 510.879 392.218 509.147C392.443 509.162 392.338 509.072 392.263 509.042C391.51 508.409 392.534 507.777 392.925 508.424L393.287 508.53L401.312 506.963C405.136 506.21 411.114 505.548 413.448 509.99C413.101 517.656 399.882 525.849 391.691 529.282L369.978 538.409L362.811 540.969L350.675 545.351L342.229 548.167C341.024 548.574 340.723 550.517 341.415 551.39C341.927 552.038 343.162 552.776 344.427 552.234L349.772 549.96L360.974 546.225L405.332 531.315L416.098 528.183C418.326 527.535 422.121 532.083 421.624 534.222C418.989 539.644 413.869 543.348 408.78 546.149L396.584 552.851L359.333 568.438L347.002 572.595C346.128 572.896 345.255 573.589 344.879 574.402C344.593 575.034 345.044 575.772 345.812 576.525C346.625 577.324 347.243 576.977 348.492 576.631L363.624 572.444C363.865 572.444 363.76 572.339 363.685 572.309C362.947 571.751 363.88 571.074 364.287 571.736L364.724 572.143L393.106 562.941L401.206 560.517L413.388 557.67C415.857 557.098 418.567 557.836 421.172 557.987C422.316 561.164 421.533 565.004 418.462 566.586L409.684 571.134L392.609 579.718L383.183 584.055C363.338 591.164 343.012 595.531 322.263 599.281L320.426 598.844C320.14 598.784 320.065 599.341 319.794 600.154C317.475 599.733 315.578 599.913 313.801 600.079L303.096 601.073L287.572 601.148L280.616 600.441C278.673 600.245 276.43 599.582 274.849 599.326C263.345 597.489 253.122 591.917 245.187 582.775L230.1 565.396C225.176 559.718 219.876 554.417 216.579 547.67L204.91 523.785L198.661 510.397L193.798 501.195L187.564 491.286C184.538 486.467 178.394 483.651 173.034 485.774C172.07 486.151 169.857 488.123 169.059 486.557L163.533 475.609C161.034 470.654 159.091 465.458 154.604 461.859C151.909 459.69 144.667 459.796 141.987 461.934C137.53 465.503 139.668 468.711 137.921 472.19C135.377 468.801 132.124 464.916 127.878 464.298C123.632 463.681 120.425 464.72 119.01 468.591C118.091 471.091 116.781 473.816 116.766 476.587C116.766 478.816 117.113 480.849 116.104 482.657L112.4 476.03C109.208 472.536 103.351 472.19 99.4961 474.569C96.4245 476.467 96.2287 479.825 95.4909 482.657C94.8284 485.157 94.2864 486.452 95.9577 489.102C96.1986 490.232 95.7921 492.099 96.0782 493.47L97.629 500.804C98.0054 502.566 98.939 504.072 98.7432 505.924C98.7131 506.225 98.7583 506.512 98.8336 506.617L99.6015 507.4C99.9327 507.731 99.7069 508.153 99.466 508.259C98.939 508.484 98.2313 508.183 98.3518 507.385C98.412 507.009 98.141 506.828 97.885 506.843L97.8097 506.828Z" fill="var(--fill-0, #FAF1DB)"/>
</g>
<defs>
<clipPath id="clip0_0_14">
<rect width="586" height="658" fill="white"/>
</clipPath>
</defs>
</svg>
