<svg preserveAspectRatio="xMidYMid meet" width="110" height="21" overflow="visible" style="display: block;" viewBox="0 0 110 21" fill="none" xmlns="http://www.w3.org/2000/svg">
<path id="Vector" d="M21.9127 9.83571C21.9127 5.12553 18.0299 1.29627 13.2087 1.24234C9.10507 -1.20263 3.75014 0.0737846 1.2659 4.08282C-0.887114 7.55253 -0.243051 12.029 2.81165 14.7616C4.70703 19.2381 9.96995 21.3774 14.5704 19.5077C15.9689 18.9325 17.2019 18.0336 18.1588 16.865C20.5142 15.265 21.9127 12.6402 21.9127 9.83571ZM14.828 3.36371C13.3191 2.69854 11.6445 2.44685 9.98835 2.66258C10.9821 2.24909 12.0494 2.03336 13.1351 2.03336H13.3375C13.8895 2.41089 14.3864 2.86034 14.828 3.36371ZM17.1835 6.63567C19.7413 9.72784 19.4285 14.2043 16.4658 16.9189C14.368 17.8718 11.9389 17.8718 9.84114 16.9369C14.1656 16.3796 17.4043 12.7661 17.4043 8.50535C17.3859 7.87613 17.3307 7.24691 17.1835 6.63567ZM8.81064 16.3796C5.11187 14.0605 4.02617 9.24244 6.4 5.62891C6.52881 5.43116 6.65763 5.25138 6.80484 5.0716C9.71233 3.16596 13.5951 3.39967 16.2266 5.64689C17.8275 9.70986 15.7665 14.2762 11.5893 15.8403C10.706 16.1819 9.76753 16.3616 8.81064 16.3796ZM2.13078 11.3818C2.13078 12.047 2.20439 12.7301 2.37001 13.3773C-0.390265 9.96155 0.198593 4.99969 3.67653 2.30303C6.05037 0.469296 9.25228 0.0917622 12.0126 1.29627C10.2276 1.512 8.55301 2.26707 7.22808 3.4536C4.09978 4.92778 2.13078 8.01995 2.13078 11.3818ZM4.3942 15.1571C2.86685 12.5503 3.05087 9.31435 4.85425 6.90533C3.62133 10.2312 4.59662 13.9346 7.30169 16.2717C6.27119 16.092 5.27749 15.7144 4.3942 15.1571ZM11.1293 18.9864C8.82904 18.9864 6.65763 17.9976 5.18548 16.2897C6.16078 16.7032 7.20968 16.9549 8.25858 17.0088C10.0068 18.1594 12.123 18.6448 14.2208 18.3751C13.2455 18.7707 12.1966 18.9864 11.1293 18.9864ZM16.1162 4.08282C15.6745 3.36371 15.1041 2.71652 14.46 2.15921C18.8028 2.87832 21.7287 6.90534 20.9742 11.1481C20.7718 12.3346 20.2934 13.4492 19.5757 14.42C21.011 10.5908 19.5757 6.33004 16.1162 4.08282ZM33.4139 4.53227C32.0153 4.53227 30.6536 5.05362 29.6047 5.97049V1.58392H27.6725L27.6541 10.1234C27.6541 13.2155 30.2119 15.7324 33.3954 15.7504C36.5606 15.7504 39.1368 13.2515 39.1552 10.1413C39.1736 7.04916 36.5974 4.53227 33.4139 4.53227ZM33.4139 13.8807C31.4081 13.8627 29.7519 12.3346 29.5863 10.393C29.5863 10.0694 29.6047 9.67391 29.6047 9.67391C29.8623 7.62444 31.7761 6.16824 33.8923 6.41993C35.9901 6.67162 37.4806 8.54131 37.223 10.6088C36.9838 12.4784 35.3644 13.8807 33.4139 13.8807ZM65.1938 10.1234C65.2122 7.03118 62.6543 4.51429 59.4708 4.49632C56.3057 4.47834 53.7294 6.97725 53.711 10.0874C53.711 11.8312 54.5207 13.4852 55.9377 14.5459C55.8088 14.9953 55.7352 15.4448 55.7352 15.9122C55.7168 18.7167 58.0355 20.9819 60.9061 20.9999C63.7768 21.0179 66.0955 18.7527 66.1139 15.9481C66.1139 14.6358 65.5986 13.3594 64.6601 12.4245C65.0282 11.7054 65.1938 10.9144 65.1938 10.1234ZM55.6248 10.1234C55.588 8.05591 57.2626 6.34802 59.3788 6.29409C61.495 6.24016 63.2432 7.89411 63.2984 9.96155V10.1054C63.2984 10.5009 63.2248 10.9144 63.096 11.2919C60.9061 10.3031 58.2931 10.9323 56.8393 12.82C56.0665 12.1369 55.6248 11.1481 55.6248 10.1234ZM62.7647 12.029C61.7158 13.8088 59.3788 14.4021 57.557 13.3773C57.5202 13.3593 57.4834 13.3414 57.465 13.3234C58.6979 11.7234 60.9061 11.184 62.7647 12.029ZM65.3226 15.9122C65.3226 18.2853 63.3536 20.2089 60.9246 20.2089C58.4955 20.2089 56.5265 18.2853 56.5265 15.9122C56.5265 15.6066 56.5633 15.3009 56.6369 15.0133C57.4834 15.4987 58.4587 15.7504 59.434 15.7504C61.3846 15.7504 63.2064 14.7616 64.2553 13.1436C64.9545 13.9167 65.341 14.9054 65.3226 15.9122ZM85.8038 4.53227C84.4053 4.53227 83.0435 5.05362 81.9946 5.97049V1.58392H80.0808L80.0624 10.1234C80.0624 13.2155 82.6203 15.7324 85.8038 15.7324C88.9689 15.7324 91.5452 13.2335 91.5452 10.1234C91.5452 7.04916 88.9873 4.53227 85.8038 4.53227ZM85.8038 13.8807C83.798 13.8807 82.1234 12.3526 81.9762 10.393L81.9946 9.67391C82.2522 7.62444 84.166 6.16824 86.2822 6.41993C88.38 6.67162 89.8706 8.54131 89.613 10.6088C89.3737 12.4784 87.736 13.8807 85.8038 13.8807ZM105.181 4.06485C103.856 3.97496 102.531 4.38845 101.519 5.21543C98.7403 3.74125 95.2439 4.748 93.735 7.46265C92.226 10.1773 93.2565 13.5931 96.0352 15.0672C98.3722 16.3077 101.28 15.8223 103.046 13.8807C105.733 14.8335 108.714 13.4672 109.689 10.8425C110.665 8.21771 109.266 5.30531 106.579 4.35249C106.119 4.19069 105.659 4.08283 105.181 4.06485ZM98.5194 13.8807C96.4032 13.7369 94.8207 11.9391 94.9679 9.87166C95.1151 7.80422 96.9553 6.25814 99.0715 6.40196C99.4763 6.43791 99.8812 6.5278 100.268 6.6896C99.8996 7.3368 99.6971 8.03793 99.6419 8.75704C99.6235 8.88289 99.6235 9.00873 99.6235 9.1166C99.6235 10.5728 100.268 11.9391 101.372 12.9099C100.599 13.5931 99.5683 13.9526 98.5194 13.8807ZM102.623 10.393C102.568 11.0762 102.329 11.7414 101.905 12.2987C100.378 10.9683 99.9732 8.793 100.967 7.03118C102.089 7.80422 102.715 9.08064 102.623 10.393ZM109.192 9.40424C109.027 11.7593 106.929 13.5391 104.5 13.3773C104.187 13.3593 103.874 13.3054 103.58 13.2155C104.132 12.4065 104.463 11.4897 104.537 10.5189C104.684 8.61322 103.819 6.76151 102.237 5.64689C103.065 5.03565 104.095 4.748 105.144 4.81991C107.536 4.99969 109.358 7.04916 109.192 9.40424ZM72.5361 4.53227C69.371 4.5862 66.8315 7.13905 66.8867 10.2312C66.9419 13.2515 69.4446 15.6965 72.5361 15.7504C73.953 15.7504 75.2964 15.229 76.3453 14.3122V15.5526H78.259L78.2775 10.1413C78.2775 7.04916 75.7012 4.53227 72.5361 4.53227ZM76.3453 10.5908C76.0876 12.6402 74.1554 14.0964 72.0576 13.8447C69.9598 13.5931 68.4693 11.7054 68.7269 9.65593C68.9845 7.60646 70.9167 6.15027 73.0145 6.40196C74.8363 6.61769 76.2349 8.07389 76.3637 9.87166L76.3453 10.5908ZM50.2331 10.411C50.0675 12.4784 48.2089 14.0065 46.1111 13.8447C44.4365 13.7189 43.038 12.5144 42.6884 10.9144C42.6884 10.8964 42.6148 10.447 42.6148 10.447V4.65811H40.701V10.429C40.8666 13.5211 43.5532 15.8942 46.7184 15.7504C49.6442 15.6066 51.9813 13.3414 52.1653 10.4829V4.65811H50.2331V10.411ZM108.972 3.23787C108.972 3.18394 109.008 3.13 109.064 3.11203H109.377C109.616 3.11203 109.763 3.21989 109.763 3.4536C109.763 3.6154 109.634 3.74125 109.469 3.74125L109.745 4.02889C109.763 4.04687 109.781 4.06485 109.781 4.1008C109.781 4.17271 109.726 4.22665 109.671 4.22665C109.634 4.22665 109.597 4.20867 109.579 4.19069L109.229 3.77721V4.1008C109.229 4.17271 109.174 4.20867 109.119 4.20867C109.045 4.20867 109.008 4.15474 109.008 4.1008L108.972 3.23787ZM109.192 3.61541H109.34C109.413 3.63338 109.487 3.57945 109.487 3.50754V3.48956C109.487 3.41765 109.432 3.36372 109.358 3.34574H109.156L109.192 3.61541Z" fill="var(--fill-0, white)"/>
</svg>
