<svg version="1.0" xmlns="http://www.w3.org/2000/svg"
 width="896.000000pt" height="896.000000pt" viewBox="0 0 896.000000 896.000000"
 preserveAspectRatio="xMidYMid meet">
<g transform="translate(0.000000,896.000000) scale(0.100000,-0.100000)"
fill="#ffffff" stroke="none">
<path d="M3368 8635 c-1 -1 -41 -5 -87 -9 -86 -7 -246 -29 -336 -46 -27 -5
-62 -12 -77 -15 -62 -12 -87 -17 -163 -36 -101 -26 -246 -72 -350 -111 -44
-17 -84 -31 -90 -33 -16 -3 -82 -33 -210 -93 -128 -61 -278 -145 -415 -234
-75 -48 -287 -204 -316 -232 -6 -6 -32 -29 -59 -51 -67 -57 -270 -259 -332
-330 -103 -119 -105 -122 -189 -235 -76 -102 -184 -264 -184 -276 0 -4 -6 -15
-14 -23 -28 -31 -217 -414 -218 -441 0 -3 -8 -21 -18 -40 -10 -19 -18 -38 -19
-43 0 -4 -8 -24 -16 -44 -9 -20 -18 -48 -22 -62 -3 -14 -10 -32 -16 -38 -5 -7
-7 -13 -3 -13 3 0 1 -12 -5 -27 -13 -35 -57 -182 -63 -214 -2 -13 -10 -46 -16
-74 -6 -27 -14 -59 -16 -70 -3 -11 -9 -47 -15 -80 -5 -33 -12 -71 -15 -85 -2
-14 -7 -43 -9 -65 -3 -22 -7 -53 -10 -70 -25 -181 -26 -641 -1 -785 2 -14 8
-52 12 -85 12 -94 12 -98 18 -130 22 -121 24 -130 26 -130 2 0 5 -14 13 -55
36 -181 167 -555 253 -722 8 -15 15 -31 15 -35 1 -5 10 -19 20 -32 11 -13 19
-28 19 -33 0 -25 231 -398 252 -406 4 -2 8 -8 8 -13 0 -6 5 -15 10 -22 6 -7
29 -37 52 -67 24 -30 45 -57 48 -60 3 -3 25 -30 50 -60 59 -73 125 -144 236
-252 77 -76 96 -101 125 -166 46 -107 142 -291 200 -385 27 -43 49 -82 49 -87
0 -5 4 -10 9 -12 5 -1 17 -17 27 -35 45 -76 192 -270 294 -387 41 -48 271
-279 321 -321 83 -73 103 -90 179 -148 41 -32 88 -69 105 -82 16 -14 35 -25
41 -25 7 0 14 -4 16 -8 4 -12 125 -92 137 -92 6 0 11 -4 11 -8 0 -5 19 -18 43
-31 23 -12 58 -31 77 -43 73 -44 280 -146 395 -195 113 -49 400 -149 455 -160
39 -8 44 -9 65 -16 11 -3 31 -8 45 -11 14 -3 36 -8 50 -11 14 -4 34 -8 45 -10
11 -2 40 -8 65 -14 25 -5 68 -13 95 -17 28 -3 52 -8 55 -9 3 -2 39 -6 80 -10
41 -4 78 -9 81 -11 14 -8 211 -18 384 -18 193 0 346 8 447 23 35 5 85 12 113
16 27 3 83 13 125 21 41 8 86 17 100 20 14 3 34 8 45 11 11 4 27 7 35 8 8 1
44 10 80 20 36 9 70 18 75 19 6 1 15 4 20 8 13 8 74 20 78 16 2 -2 10 2 18 8
8 6 32 17 54 24 122 37 461 184 555 240 8 5 67 39 130 76 345 201 674 480 946
803 35 41 41 46 127 110 37 28 72 51 78 51 5 0 9 3 9 8 0 4 25 27 56 51 117
91 317 286 429 416 33 39 63 72 66 75 6 6 158 209 177 236 57 85 107 164 119
189 9 17 19 32 22 35 26 19 238 467 256 540 1 3 5 12 8 20 14 32 69 196 73
220 3 14 13 54 24 90 18 60 32 118 43 180 3 14 12 63 21 110 9 47 18 108 21
135 3 28 8 62 10 76 25 148 25 678 0 808 -2 13 -7 42 -9 65 -3 22 -7 50 -10
61 -2 11 -7 42 -10 69 -4 27 -14 79 -22 115 -9 36 -18 77 -20 91 -3 14 -8 34
-11 45 -4 11 -8 22 -8 25 -1 3 -5 19 -9 35 -5 17 -17 59 -28 95 -11 36 -21 72
-23 80 -20 78 -136 354 -209 496 -92 180 -267 460 -331 530 -5 6 -21 26 -35
44 -24 32 -117 144 -150 181 -47 52 -231 236 -274 274 -94 82 -111 96 -226
183 -63 48 -116 90 -118 95 -2 4 -7 7 -11 7 -5 0 -49 27 -99 60 -51 33 -96 60
-102 60 -5 0 -10 5 -10 10 0 6 -4 10 -10 10 -5 0 -31 13 -57 28 -86 51 -351
182 -367 182 -2 0 -20 7 -40 15 -20 8 -37 14 -39 13 -2 -2 -15 5 -30 15 -15 9
-27 15 -27 12 0 -3 -10 0 -22 6 -23 12 -257 88 -293 94 -11 2 -47 12 -80 21
-33 9 -69 18 -80 19 -11 1 -21 4 -22 5 -2 1 -11 3 -20 4 -10 1 -31 5 -48 9
-16 4 -43 9 -60 12 -16 3 -41 7 -55 10 -14 3 -45 7 -70 10 -25 2 -63 7 -85 10
-94 13 -126 15 -240 20 -142 6 -155 9 -204 39 -53 34 -225 122 -306 158 -130
56 -150 65 -210 87 -33 13 -69 27 -80 31 -26 11 -214 69 -240 75 -11 2 -35 8
-53 14 -18 5 -35 10 -37 10 -3 1 -6 1 -7 2 -6 1 -34 7 -63 13 -16 3 -41 8 -55
11 -38 9 -121 23 -164 30 -21 3 -41 7 -45 9 -3 2 -40 7 -81 11 -41 4 -93 9
-115 12 -46 5 -532 13 -537 8z m487 -257 c44 -5 98 -10 120 -12 63 -7 124 -16
208 -32 42 -9 90 -18 105 -20 15 -3 54 -12 87 -21 33 -8 67 -16 75 -18 88 -18
503 -173 467 -175 -4 0 -51 -7 -105 -15 -149 -22 -248 -45 -477 -109 -55 -15
-164 -53 -252 -87 -165 -64 -508 -234 -554 -275 -8 -8 -19 -14 -24 -14 -18 0
-242 -158 -366 -259 -164 -132 -190 -151 -201 -145 -4 3 -8 1 -8 -4 0 -5 -15
-16 -32 -23 -18 -7 -70 -35 -116 -61 -46 -26 -88 -48 -93 -48 -5 0 -9 -4 -9
-10 0 -5 -4 -10 -10 -10 -18 0 -347 -228 -396 -275 -6 -5 -30 -26 -54 -45
-181 -145 -396 -372 -568 -600 -40 -52 -77 -100 -82 -107 -6 -7 -10 -16 -10
-22 0 -5 -4 -11 -8 -13 -21 -9 -272 -441 -277 -478 -1 -3 -11 -25 -24 -50 -13
-25 -23 -46 -22 -48 2 -3 -31 -80 -50 -114 -5 -10 -9 -23 -9 -29 0 -6 -6 -25
-14 -42 -16 -37 -47 -122 -50 -140 -2 -6 -6 -19 -9 -27 -21 -53 -72 -249 -103
-395 -11 -52 -33 -196 -39 -250 -4 -33 -8 -71 -10 -84 -27 -168 -20 -637 11
-821 2 -14 7 -47 10 -73 3 -26 16 -99 28 -162 26 -131 22 -133 -50 -27 -21 31
-41 59 -45 62 -9 8 -112 168 -156 245 -35 59 -177 340 -172 340 1 0 -6 18 -16
40 -9 22 -18 47 -20 55 -2 8 -17 51 -34 95 -32 87 -82 248 -87 280 -2 11 -11
47 -19 80 -9 33 -18 76 -20 95 -3 19 -8 46 -11 60 -3 14 -8 41 -10 60 -2 19
-6 46 -9 60 -25 126 -36 484 -21 675 4 44 7 87 7 95 1 8 5 42 9 75 5 33 12 80
15 105 3 25 8 52 10 60 2 8 7 31 10 50 12 71 58 246 96 365 55 172 118 324
200 483 39 75 77 147 83 159 6 13 14 23 19 23 4 0 7 5 7 11 0 23 173 268 293
413 124 152 319 339 499 479 79 62 321 227 332 227 3 0 34 17 68 38 66 39 312
158 368 177 3 1 19 7 35 14 33 15 192 71 215 77 8 2 62 17 119 34 56 16 115
32 130 34 14 2 26 5 26 6 0 1 11 3 25 6 14 2 48 8 75 14 77 15 106 20 155 25
25 3 52 8 60 10 8 2 56 7 105 11 50 3 91 7 93 9 7 7 406 1 477 -7z m1618 -583
c15 -4 27 -10 27 -14 0 -3 17 -17 38 -31 20 -14 39 -27 42 -30 3 -3 27 -24 55
-45 27 -22 60 -49 74 -60 124 -103 369 -355 346 -355 -4 0 -19 6 -33 14 -42
21 -180 76 -257 101 -81 27 -241 74 -265 79 -14 3 -45 11 -70 17 -25 6 -54 13
-65 15 -11 1 -30 5 -42 8 -42 11 -67 16 -107 22 -22 3 -43 7 -46 9 -3 2 -30 6
-60 9 -30 4 -71 8 -90 10 -197 24 -229 26 -440 26 -179 0 -259 -3 -385 -15
-51 -5 -56 -4 -35 6 14 7 27 13 30 14 3 1 22 9 42 18 36 15 246 85 278 92 8 2
42 10 75 18 94 25 298 63 385 74 25 2 59 6 75 8 17 2 82 7 145 10 63 3 115 7
116 8 5 5 142 -1 167 -8z m600 -65 c38 -10 74 -18 102 -24 6 -1 21 -5 35 -9
38 -12 110 -31 135 -37 68 -16 309 -113 455 -182 131 -63 313 -165 318 -180 2
-4 10 -8 18 -8 8 0 22 -7 32 -16 9 -8 55 -42 102 -74 47 -33 97 -70 112 -82
14 -13 39 -32 54 -43 69 -51 315 -288 399 -385 55 -63 184 -230 202 -260 9
-17 21 -30 25 -30 4 0 8 -4 8 -9 0 -5 23 -44 50 -85 28 -42 50 -80 50 -86 0
-5 5 -10 12 -10 6 0 8 -3 5 -7 -4 -3 -1 -13 7 -22 31 -34 210 -415 220 -466 1
-5 4 -14 7 -20 5 -9 48 -131 56 -160 1 -5 14 -53 29 -105 14 -52 28 -106 29
-120 2 -14 4 -25 5 -25 2 0 7 -22 29 -145 33 -188 44 -323 45 -535 0 -139 -11
-362 -19 -374 -1 -4 -6 -33 -9 -66 -4 -33 -9 -67 -11 -75 -2 -8 -6 -31 -9 -50
-43 -283 -179 -671 -339 -960 -87 -158 -196 -330 -209 -330 -3 0 9 45 28 101
46 137 106 376 120 479 2 19 6 42 9 50 10 33 28 193 40 360 5 62 5 383 0 445
-6 88 -15 179 -20 215 -5 43 -25 166 -31 200 -3 14 -7 39 -10 55 -3 17 -12 57
-20 90 -8 33 -17 71 -20 85 -6 29 -11 46 -60 205 -70 227 -178 476 -296 685
-51 89 -144 239 -170 275 -4 6 -38 51 -74 100 -60 82 -114 148 -184 229 -107
125 -368 372 -490 464 -30 23 -60 46 -65 50 -15 12 -88 64 -116 82 -39 25 -85
73 -105 110 -10 19 -25 41 -32 48 -6 8 -17 23 -23 35 -7 11 -16 26 -21 31 -4
6 -32 43 -60 81 -47 63 -83 108 -173 215 -16 19 -92 97 -168 173 l-138 138 46
-6 c26 -3 65 -10 88 -15z m-1328 -654 c66 -4 136 -9 155 -11 19 -3 58 -8 85
-11 28 -3 59 -7 70 -9 60 -9 102 -17 118 -21 10 -3 31 -7 48 -9 46 -6 289 -72
352 -95 30 -11 64 -22 74 -24 11 -2 41 -14 69 -26 27 -12 58 -26 69 -30 103
-42 271 -124 365 -178 215 -125 500 -337 500 -371 0 -9 4 -21 8 -26 5 -6 14
-30 21 -55 7 -25 17 -54 21 -65 9 -22 34 -104 46 -150 10 -41 11 -45 14 -47 2
-3 5 -17 13 -58 3 -14 12 -54 20 -90 8 -36 15 -72 16 -80 0 -8 7 -58 16 -110
25 -163 30 -238 30 -465 0 -217 -10 -363 -31 -475 -3 -14 -7 -43 -10 -65 -3
-33 -61 -283 -79 -347 -3 -10 -7 -26 -9 -35 -8 -31 -63 -186 -95 -268 -33 -82
-151 -336 -162 -345 -3 -3 -12 -18 -21 -35 -28 -54 -43 -80 -65 -112 -13 -17
-23 -33 -23 -36 0 -14 -169 -249 -225 -314 -5 -6 -28 -33 -50 -60 -81 -99
-388 -395 -442 -427 -9 -4 -23 -16 -33 -26 -27 -27 -218 -160 -229 -160 -6 0
-11 -3 -11 -8 0 -4 -26 -22 -57 -40 -32 -18 -80 -46 -108 -62 -27 -16 -70 -39
-95 -52 -25 -12 -48 -26 -52 -32 -4 -6 -8 -8 -8 -4 0 4 -24 -5 -52 -20 -29
-14 -55 -27 -58 -27 -3 -1 -20 -9 -37 -18 -18 -10 -34 -17 -35 -16 -2 1 -20
-6 -41 -15 -54 -22 -261 -95 -289 -102 -5 -1 -9 -2 -10 -4 -2 -1 -10 -3 -19
-5 -9 -1 -41 -10 -70 -18 -30 -9 -101 -25 -159 -37 -58 -12 -114 -24 -125 -26
-21 -5 -48 -9 -125 -19 -25 -3 -59 -7 -76 -10 -17 -2 -76 -7 -130 -11 -198
-13 -179 -16 -279 50 -49 33 -94 66 -98 73 -4 7 -13 13 -19 13 -5 0 -33 19
-61 42 -29 24 -63 52 -76 63 -127 105 -333 312 -411 415 -19 25 -40 49 -46 55
-6 5 -24 28 -40 50 -16 22 -31 42 -34 45 -11 11 -128 188 -165 250 -55 93
-158 294 -189 370 -34 81 -106 275 -117 315 -4 17 -17 64 -29 105 -11 41 -23
86 -26 99 -3 12 -12 53 -20 89 -9 37 -17 80 -19 97 -2 16 -9 59 -15 95 -20
130 -34 311 -33 460 0 102 10 309 17 350 5 25 15 99 22 155 2 17 6 41 9 55 3
14 8 38 10 53 3 16 15 68 26 115 11 48 22 94 24 102 2 8 14 47 26 85 13 39 23
72 24 75 16 78 188 470 245 560 5 8 31 51 57 95 41 70 150 228 201 292 16 21
184 126 267 168 22 11 42 23 43 28 2 4 9 7 17 7 7 0 33 12 59 26 25 14 52 27
59 28 6 1 22 7 34 14 31 17 273 112 298 116 11 2 32 9 48 15 15 6 38 13 50 16
12 2 54 14 92 25 39 11 85 23 104 26 18 3 43 8 55 10 11 2 46 8 76 14 30 6 66
12 80 15 14 3 52 8 85 11 33 3 71 7 85 10 14 2 74 6 134 9 60 3 111 6 112 8 3
3 103 0 239 -7z m2370 -1276 c22 -30 45 -61 52 -68 7 -7 13 -17 13 -22 0 -5 6
-15 13 -22 7 -7 22 -29 33 -48 12 -19 43 -71 70 -115 72 -117 171 -323 238
-495 59 -154 150 -509 150 -587 0 -13 3 -23 6 -23 4 0 6 -10 5 -22 -1 -12 2
-43 7 -68 26 -140 28 -564 2 -734 -4 -29 -9 -64 -19 -131 -7 -48 -32 -175 -41
-210 -3 -12 -12 -52 -18 -80 -3 -11 -17 -58 -31 -105 -15 -47 -27 -91 -28 -97
0 -7 -4 -13 -9 -13 -4 0 -7 -3 -6 -7 2 -9 -8 -45 -21 -78 -106 -256 -166 -379
-269 -545 -60 -95 -205 -301 -242 -341 -8 -9 -44 -49 -80 -89 -142 -159 -241
-245 -270 -237 -3 1 -17 -5 -30 -14 -14 -8 -47 -23 -75 -33 -27 -10 -59 -21
-70 -26 -16 -7 -86 -31 -105 -35 -3 -1 -12 -4 -20 -8 -20 -7 -92 -30 -105 -33
-5 -1 -48 -12 -95 -24 -46 -12 -96 -23 -110 -25 -22 -3 -77 -14 -160 -30 -14
-3 -45 -7 -70 -10 -25 -3 -55 -7 -66 -9 -142 -29 -656 -24 -824 8 -14 2 -43 7
-65 10 -73 10 -149 25 -265 53 -36 8 -72 17 -80 18 -8 2 -16 4 -17 4 -2 1 -5
1 -8 2 -2 0 -28 9 -56 19 -29 11 -56 17 -60 14 -5 -3 -9 0 -9 5 0 6 -3 10 -7
9 -8 -2 -111 30 -128 41 -5 3 -14 6 -20 8 -24 5 -81 29 -86 36 -3 5 -10 9 -15
9 -5 1 -21 5 -36 10 -30 10 -39 28 -13 24 13 -2 62 6 180 28 17 3 46 9 65 13
49 9 41 7 191 46 75 20 192 57 261 82 69 25 131 45 137 45 6 0 11 5 11 12 0 6
3 9 6 6 5 -6 64 19 212 89 20 10 63 32 94 49 31 18 59 30 62 26 3 -3 6 0 6 6
0 7 4 12 9 12 14 0 181 101 284 172 25 17 119 85 132 95 6 5 30 24 55 43 25
19 50 39 56 45 6 5 38 32 70 60 61 51 285 273 339 335 17 19 48 57 70 85 22
27 46 56 53 64 26 27 182 251 182 261 0 6 5 10 10 10 6 0 10 7 10 15 0 8 4 15
9 15 5 0 13 10 17 23 4 12 18 37 32 54 13 18 20 33 16 33 -5 0 -4 4 2 8 12 7
132 238 171 327 41 95 73 178 73 192 0 7 5 13 10 13 6 0 10 8 10 17 0 10 7 38
16 63 15 42 19 54 23 72 1 4 9 27 17 50 15 41 19 54 28 96 2 9 9 37 16 62 7
25 14 54 16 65 2 11 7 31 10 45 8 40 32 171 38 215 4 23 8 50 10 60 2 11 7 58
11 105 4 47 9 99 11 115 5 38 6 417 0 470 -2 22 -7 74 -11 115 -3 41 -8 82
-11 91 -2 8 -6 39 -9 68 -2 28 -6 55 -9 59 -4 8 -18 96 -20 125 0 9 -3 17 -6
17 -3 0 -6 10 -7 22 -2 22 -2 21 20 -3 12 -13 40 -49 62 -79z m-5106 -67 c-32
-87 -32 -87 -35 -98 -11 -38 -64 -236 -68 -256 -16 -79 -37 -187 -41 -213 -3
-17 -7 -42 -10 -56 -2 -14 -7 -50 -9 -80 -3 -30 -8 -71 -10 -90 -22 -142 -21
-470 0 -685 3 -33 8 -76 9 -95 4 -34 20 -137 31 -190 3 -14 9 -45 13 -70 5
-25 12 -56 15 -70 3 -14 8 -34 11 -45 11 -50 14 -63 24 -105 7 -25 16 -54 20
-65 5 -11 18 -54 30 -95 12 -41 26 -84 31 -95 4 -11 27 -69 51 -130 23 -60 50
-121 58 -135 9 -13 16 -27 15 -30 -1 -9 49 -115 68 -142 11 -16 17 -28 14 -28
-4 0 5 -18 19 -40 14 -22 25 -42 25 -44 0 -23 280 -436 330 -486 3 -3 30 -34
60 -70 58 -69 177 -196 223 -239 64 -58 128 -123 125 -126 -2 -2 -30 3 -63 10
-33 8 -71 16 -85 19 -14 2 -59 14 -100 26 -41 11 -83 23 -93 25 -16 4 -65 19
-107 33 -8 3 -19 6 -25 8 -19 4 -154 55 -192 71 -21 9 -40 17 -43 18 -3 1 -27
12 -55 24 -117 54 -180 87 -193 99 -7 6 -18 12 -23 12 -15 0 -166 90 -182 108
-14 16 -44 69 -103 183 -16 30 -28 56 -29 59 0 3 -11 27 -23 54 -12 27 -22 50
-22 52 0 2 -9 23 -19 47 -17 38 -54 134 -57 147 0 3 -3 12 -7 20 -8 20 -57
183 -63 212 -9 39 -12 53 -14 53 -2 0 -5 15 -13 60 -3 17 -13 64 -21 105 -22
111 -29 166 -42 330 -13 159 -6 512 11 540 3 5 1 11 -5 15 -6 4 -7 12 -3 18 8
13 8 12 17 83 8 70 52 286 72 354 8 30 16 62 16 70 0 8 4 20 8 25 4 6 11 26
15 45 4 19 10 40 14 45 3 6 6 12 6 15 2 13 21 64 61 167 81 204 192 412 317
596 32 48 61 87 63 87 2 0 -6 -26 -17 -57z m206 -3807 c11 -7 24 -14 28 -14 8
0 54 -16 92 -33 11 -4 56 -20 100 -35 76 -25 90 -29 107 -33 4 -1 27 -9 50
-17 24 -8 54 -17 68 -19 14 -3 69 -16 123 -29 54 -14 110 -27 125 -29 15 -3
54 -10 87 -15 116 -21 163 -27 293 -37 46 -4 94 -8 108 -10 13 -1 56 -23 94
-49 38 -25 72 -46 74 -46 3 0 29 -14 58 -31 78 -47 265 -139 383 -189 51 -22
206 -79 255 -94 30 -10 62 -20 70 -23 8 -3 20 -7 25 -9 6 -1 62 -16 125 -32
63 -17 140 -35 170 -41 30 -6 66 -14 80 -17 26 -5 39 -8 150 -24 240 -37 769
-47 819 -15 6 3 11 1 11 -5 0 -6 5 -8 11 -5 5 4 29 9 52 11 45 4 46 5 -38 -32
-38 -16 -296 -102 -327 -108 -13 -3 -41 -10 -63 -16 -58 -15 -69 -18 -106 -24
-19 -3 -65 -12 -104 -20 -38 -8 -97 -17 -130 -21 -33 -4 -73 -8 -90 -11 -122
-16 -362 -21 -530 -10 -216 14 -258 19 -435 56 -58 12 -116 24 -130 27 -14 3
-32 7 -40 10 -8 3 -21 7 -29 9 -8 1 -26 6 -40 9 -14 4 -28 7 -31 7 -5 1 -187
66 -265 95 -126 46 -371 170 -511 259 -66 41 -128 80 -139 87 -11 6 -22 14
-25 17 -3 3 -40 31 -82 63 -42 31 -83 63 -90 70 -7 6 -44 39 -82 72 -70 61
-195 183 -274 268 -41 45 -39 63 3 33z"/>
</g>
</svg>
