<svg preserveAspectRatio="xMidYMid meet" width="102.47" height="35.9934" overflow="visible" style="display: block;" viewBox="0 0 102.47 35.9934" fill="none" xmlns="http://www.w3.org/2000/svg">
<g id="Frame 635275">
<path id="Vector" d="M93.3369 9.08622H79.6943C79.6147 9.08622 79.555 9.14591 79.555 9.2255V11.4539C79.555 11.5335 79.6147 11.5932 79.6943 11.5932H88.9066L78.852 26.7082C78.8255 26.748 78.8189 26.8077 78.8454 26.8541C78.8719 26.9005 78.9184 26.927 78.9714 26.927H92.8196C92.8992 26.927 92.9589 26.8674 92.9589 26.7878V24.5593C92.9589 24.4797 92.8992 24.42 92.8196 24.42H83.4018L93.443 9.31172C93.443 9.31172 93.4696 9.25866 93.4696 9.2255C93.4696 9.14591 93.4099 9.08622 93.3303 9.08622H93.3369ZM54.5978 9C49.6501 9 45.631 13.0258 45.631 17.9668C45.631 22.9079 49.6567 26.9337 54.5978 26.9337C59.5388 26.9337 63.5713 22.9079 63.5713 17.9668C63.5713 13.0258 59.5455 9 54.5978 9ZM54.5978 24.4267C51.0429 24.4267 48.1446 21.5217 48.138 17.9668C48.138 14.4119 51.0429 11.5136 54.5978 11.507C58.1527 11.5136 61.051 14.4119 61.0576 17.9668C61.0444 21.5217 58.1461 24.42 54.5978 24.4267ZM34.9132 9C29.9655 9 25.9464 13.0258 25.9464 17.9668C25.9464 22.9079 29.9721 26.9337 34.9132 26.9337C39.8542 26.9337 43.88 22.9079 43.88 17.9668C43.88 13.0258 39.8609 9 34.9132 9ZM34.9132 24.4267C31.3583 24.4267 28.46 21.5217 28.4534 17.9668C28.4534 14.4119 31.3583 11.5136 34.9132 11.507C38.4681 11.5136 41.3664 14.4119 41.373 17.9668C41.373 21.5217 38.4681 24.42 34.9132 24.4267ZM67.7496 9.08622H65.5079C65.4349 9.08622 65.3752 9.14591 65.3752 9.21887V26.801C65.3752 26.874 65.4349 26.9337 65.5079 26.9337H76.0532C76.0996 26.9337 76.1394 26.9138 76.166 26.874L77.6118 24.6389C77.6383 24.5925 77.645 24.5394 77.6118 24.493C77.5786 24.4466 77.5388 24.42 77.4858 24.42H67.8822V9.2255C67.8822 9.14591 67.8226 9.08622 67.743 9.08622H67.7496ZM15.2684 24.4864C13.3782 24.4864 11.7069 23.6374 10.4931 22.3707C10.4335 22.3043 10.3273 22.311 10.2809 22.3839L9.02078 24.3073C8.98762 24.3604 8.99425 24.4333 9.04068 24.4797C10.6855 26.0118 12.8542 26.9934 15.2684 26.9934C19.5794 26.9934 24.2352 23.5645 24.2352 18.0265V9.2255C24.2352 9.14591 24.1755 9.08622 24.0959 9.08622H21.8609C21.7879 9.08622 21.7282 9.14591 21.7282 9.21887V18.0265C21.7282 21.6411 18.8896 24.4797 15.2684 24.4864Z" fill="var(--fill-0, white)"/>
</g>
</svg>
