<svg width="24" height="24" viewBox="0 0 24 24" fill="none" xmlns="http://www.w3.org/2000/svg">
<mask id="path-1-outside-1_8740_4124" maskUnits="userSpaceOnUse" x="6.49268" y="5.46155" width="18" height="13" fill="black">
<rect fill="white" x="6.49268" y="5.46155" width="18" height="13"/>
<path d="M19.6432 8.3077H17.1381V7.20711C17.1381 6.79883 16.8143 6.46155 16.4224 6.46155H8.20842C7.81646 6.46155 7.49268 6.79883 7.49268 7.20711V14.8757C7.49268 15.284 7.81646 15.6213 8.20842 15.6213H9.16273C9.19682 16.6864 10.0318 17.5385 11.0543 17.5385C12.0768 17.5385 12.9118 16.6864 12.9459 15.6213H16.8825H18.1095C18.1436 16.6864 18.9786 17.5385 20.0011 17.5385C21.0236 17.5385 21.8586 16.6864 21.8927 15.6213H22.5573C22.9492 15.6213 23.273 15.284 23.273 14.8757V12.0888C23.273 10.0118 21.6541 8.3077 19.6432 8.3077ZM8.00392 14.8757V7.20711C8.00392 7.1006 8.08913 6.99409 8.20842 6.99409H16.4394C16.5417 6.99409 16.6439 7.08285 16.6439 7.20711V8.57397V15.0888H12.9118C12.8607 14.8757 12.7755 14.6805 12.6562 14.4852C12.6392 14.4675 12.6221 14.4497 12.6221 14.4142C12.6051 14.3965 12.5881 14.3787 12.571 14.361L12.554 14.3432C12.5369 14.3255 12.5199 14.3077 12.5029 14.2899L12.4858 14.2722C12.4688 14.2544 12.4517 14.2367 12.4347 14.2189L12.4176 14.2012C12.4006 14.1834 12.3836 14.1657 12.3665 14.1479L12.3495 14.1302C12.3324 14.1124 12.3154 14.0947 12.2984 14.0769L12.2813 14.0592C12.2643 14.0414 12.2472 14.0237 12.2302 14.0059C12.1791 13.9527 12.1109 13.9172 12.0427 13.8639H12.0257C12.0087 13.8639 12.0087 13.8462 11.9916 13.8462L11.9746 13.8284C11.9575 13.8284 11.9575 13.8107 11.9405 13.8107C11.9234 13.8107 11.9234 13.7929 11.9064 13.7929C11.8894 13.7929 11.8894 13.7752 11.8723 13.7752C11.8553 13.7752 11.8382 13.7574 11.8382 13.7574C11.8212 13.7574 11.8042 13.7397 11.8042 13.7397C11.7871 13.7397 11.7701 13.7219 11.753 13.7219C11.736 13.7219 11.7189 13.7042 11.7189 13.7042C11.7019 13.7042 11.6849 13.6864 11.6678 13.6864C11.6508 13.6864 11.6337 13.6864 11.6337 13.6686C11.6167 13.6686 11.5997 13.6509 11.5826 13.6509C11.5656 13.6509 11.5485 13.6509 11.5485 13.6331C11.5315 13.6331 11.5145 13.6331 11.4974 13.6154C11.4804 13.6154 11.4804 13.6154 11.4633 13.6154C11.4463 13.6154 11.4292 13.6154 11.4122 13.5976C11.3952 13.5976 11.3952 13.5976 11.3781 13.5976C11.3611 13.5976 11.344 13.5976 11.327 13.5976C11.31 13.5976 11.31 13.5976 11.2929 13.5976C11.2759 13.5976 11.2418 13.5976 11.2247 13.5976H11.2077C11.1395 13.5976 11.0884 13.5976 11.0202 13.5976H11.0032C10.9862 13.5976 10.9521 13.5976 10.935 13.5976C10.918 13.5976 10.918 13.5976 10.901 13.5976H10.8839C10.8669 13.5976 10.8498 13.5976 10.8328 13.5976C10.8158 13.5976 10.8158 13.5976 10.7987 13.5976C10.7817 13.5976 10.7646 13.5976 10.7476 13.6154C10.7305 13.6154 10.7305 13.6154 10.7135 13.6154C10.6965 13.6154 10.6794 13.6154 10.6624 13.6331C10.6453 13.6331 10.6283 13.6331 10.6283 13.6509C10.6113 13.6509 10.5942 13.6686 10.5772 13.6686C10.5601 13.6686 10.5431 13.6686 10.5431 13.6864C10.526 13.6864 10.509 13.7042 10.492 13.7042C10.4749 13.7042 10.4579 13.7219 10.4579 13.7219C10.4408 13.7219 10.4238 13.7397 10.4068 13.7397C10.3897 13.7397 10.3727 13.7574 10.3727 13.7574C10.3556 13.7574 10.3556 13.7752 10.3386 13.7752C10.3216 13.7752 10.3216 13.7929 10.3045 13.7929C10.2875 13.7929 10.2875 13.8107 10.2704 13.8107C10.2534 13.8107 10.2534 13.8284 10.2363 13.8284L10.2193 13.8462C10.2023 13.8462 10.2023 13.8639 10.1852 13.8639C10.1852 13.8639 10.1682 13.8639 10.1682 13.8817C10.1511 13.8817 10.1511 13.8994 10.1341 13.8994C10.1341 13.8994 10.1171 13.8994 10.1171 13.9172C10.1 13.9172 10.1 13.9349 10.083 13.9349L10.0659 13.9527C10.0318 13.9704 10.0148 13.9882 9.99776 14.0059C9.99776 14.0059 9.98072 14.0059 9.98072 14.0237C9.98072 14.0237 9.98072 14.0237 9.96368 14.0237C9.94664 14.0414 9.9296 14.0592 9.91256 14.0769L9.89552 14.0947C9.87847 14.1124 9.86143 14.1302 9.84439 14.1479L9.82735 14.1657C9.81031 14.1834 9.79327 14.2012 9.77623 14.2189H9.67398C9.65694 14.2367 9.63989 14.2544 9.62285 14.2722L9.60581 14.2899C9.58877 14.3077 9.57173 14.3255 9.55469 14.3432L9.53765 14.361C9.5206 14.3787 9.50356 14.3965 9.48652 14.4142V14.432C9.46948 14.4497 9.45244 14.4675 9.45244 14.4852C9.33315 14.6627 9.24794 14.8757 9.19682 15.0888H8.17433C8.08913 15.0888 8.00392 15 8.00392 14.8757ZM11.0714 17.0059C10.3045 17.0059 9.69102 16.3669 9.69102 15.5681C9.69102 15.5148 9.69102 15.4438 9.70806 15.3905C9.7251 15.1953 9.79327 15 9.89552 14.8225C9.89552 14.8047 9.91256 14.787 9.91256 14.787C9.9296 14.7692 9.9296 14.7515 9.94664 14.7337C9.96368 14.716 9.96368 14.6982 9.98072 14.6982V14.6805C9.99776 14.6627 9.99776 14.645 10.0148 14.645V14.6272C10.0318 14.6095 10.0318 14.6095 10.0489 14.5917L10.0659 14.574C10.083 14.5562 10.083 14.5562 10.1 14.5385L10.1171 14.5207C10.1341 14.503 10.1341 14.503 10.1511 14.4852H10.1682C10.1852 14.4675 10.1852 14.4675 10.2023 14.4497C10.2193 14.432 10.2534 14.4142 10.2704 14.3965C10.2875 14.3787 10.3216 14.361 10.3386 14.3432H10.3556L10.3727 14.3255H10.3897C10.3897 14.3255 10.3897 14.3255 10.4068 14.3255C10.4068 14.3255 10.4238 14.3255 10.4238 14.3077H10.4408C10.4408 14.3077 10.4579 14.3077 10.4579 14.2899C10.4579 14.2899 10.4749 14.29 10.4749 14.2722C10.492 14.2722 10.492 14.2722 10.509 14.2544C10.526 14.2544 10.526 14.2544 10.5431 14.2367C10.5601 14.2367 10.5601 14.2367 10.5772 14.2189C10.5942 14.2189 10.5942 14.2189 10.6113 14.2012C10.6283 14.2012 10.6283 14.2012 10.6453 14.1834C10.6624 14.1834 10.6624 14.1834 10.6794 14.1657C10.6965 14.1657 10.6965 14.1657 10.7135 14.1479C10.7305 14.1479 10.7305 14.1479 10.7476 14.1479C10.7646 14.1479 10.7646 14.1479 10.7817 14.1479H10.7987C10.8158 14.1479 10.8158 14.1479 10.8328 14.1479H10.8498H10.8669C10.8839 14.1479 10.901 14.1479 10.901 14.1479H10.918C10.918 14.1479 10.918 14.1479 10.935 14.1479C10.9521 14.1479 10.9691 14.1479 10.9862 14.1479H11.0032C11.0543 14.1479 11.0884 14.1479 11.1395 14.1479H11.1566C11.1736 14.1479 11.1907 14.1479 11.2077 14.1479H11.2247H11.2418C11.2588 14.1479 11.2759 14.1479 11.2759 14.1479H11.2929H11.31C11.327 14.1479 11.344 14.1479 11.344 14.1479H11.3611C11.3781 14.1479 11.3781 14.1479 11.3952 14.1479C11.4122 14.1479 11.4122 14.1479 11.4292 14.1479C11.4463 14.1479 11.4463 14.1479 11.4633 14.1657C11.4804 14.1657 11.4804 14.1657 11.4974 14.1834C11.5145 14.1834 11.5145 14.1834 11.5315 14.2012C11.5485 14.2012 11.5485 14.2012 11.5656 14.2189C11.5826 14.2189 11.5826 14.2189 11.5997 14.2367C11.6167 14.2367 11.6167 14.2367 11.6337 14.2544C11.6508 14.2544 11.6508 14.2722 11.6678 14.2722C11.6678 14.2722 11.6849 14.2722 11.6849 14.2899C11.6849 14.2899 11.7019 14.29 11.7019 14.3077C11.7019 14.3077 11.7189 14.3077 11.7189 14.3255C11.7189 14.3255 11.7189 14.3255 11.736 14.3255H11.753L11.7701 14.3432H11.7871C11.8382 14.3787 11.8723 14.4142 11.9234 14.4497C11.9405 14.4675 11.9405 14.4675 11.9575 14.4852H11.9746C11.9916 14.503 11.9916 14.503 12.0087 14.5207L12.0257 14.5385C12.0427 14.5562 12.0427 14.5562 12.0598 14.574L12.0768 14.5917C12.0939 14.6095 12.0939 14.6095 12.1109 14.6272C12.1279 14.645 12.1279 14.645 12.145 14.6627V14.6805C12.162 14.6982 12.162 14.716 12.1791 14.716C12.1961 14.7337 12.1961 14.7515 12.2131 14.7692C12.2302 14.787 12.2302 14.8047 12.2302 14.8047C12.3154 14.9468 12.3836 15.1065 12.4006 15.284C12.4006 15.3195 12.4176 15.3373 12.4176 15.3728C12.4176 15.4438 12.4347 15.4971 12.4347 15.5503C12.4517 16.3669 11.8212 17.0059 11.0714 17.0059ZM20.0181 17.0059C19.2513 17.0059 18.6378 16.3669 18.6378 15.5681C18.6378 15.5148 18.6378 15.4438 18.6548 15.3905C18.6889 15.1775 18.7571 14.9645 18.8593 14.787C18.8763 14.7692 18.8763 14.7515 18.8934 14.7337C18.9104 14.716 18.9104 14.6982 18.9275 14.6982V14.6805C18.9445 14.6627 18.9445 14.645 18.9616 14.645C18.9786 14.6272 18.9786 14.6272 18.9956 14.6095L19.0127 14.5917C19.0297 14.574 19.0297 14.574 19.0468 14.5562L19.0638 14.5385C19.0808 14.5207 19.0808 14.5207 19.0979 14.503H19.1149C19.132 14.4852 19.132 14.4852 19.149 14.4675C19.166 14.4497 19.2001 14.432 19.2172 14.4142C19.2342 14.3965 19.2683 14.3787 19.2853 14.361H19.3024L19.3194 14.3432H19.3365H19.3535C19.3535 14.3432 19.3535 14.3432 19.3705 14.3432C19.3705 14.3432 19.3876 14.3432 19.3876 14.3255C19.3876 14.3255 19.4046 14.3255 19.4046 14.3077C19.4046 14.3077 19.4217 14.3077 19.4217 14.2899C19.4387 14.2899 19.4387 14.2722 19.4558 14.2722C19.4728 14.2722 19.4728 14.2722 19.4898 14.2544C19.5069 14.2544 19.5069 14.2544 19.5239 14.2367C19.541 14.2367 19.541 14.2367 19.558 14.2189C19.575 14.2189 19.575 14.2189 19.5921 14.2012C19.6091 14.2012 19.6091 14.2012 19.6262 14.1834C19.6432 14.1834 19.6432 14.1834 19.6602 14.1657C19.6773 14.1657 19.6773 14.1657 19.6943 14.1657C19.7114 14.1657 19.7114 14.1657 19.7284 14.1657H19.7455C19.7625 14.1657 19.7625 14.1657 19.7795 14.1657H19.7966H19.8136C19.8307 14.1657 19.8477 14.1657 19.8477 14.1657H19.8647H19.8818C19.8988 14.1657 19.9159 14.1657 19.9329 14.1657H19.95C20.0011 14.1657 20.0352 14.1657 20.0863 14.1657H20.1033C20.1204 14.1657 20.1374 14.1657 20.1545 14.1657H20.1715H20.1885C20.2056 14.1657 20.2226 14.1657 20.2226 14.1657H20.2397H20.2567C20.2737 14.1657 20.2908 14.1657 20.2908 14.1657H20.3078C20.3249 14.1657 20.3249 14.1657 20.3419 14.1657C20.3589 14.1657 20.3589 14.1657 20.376 14.1657C20.393 14.1657 20.393 14.1657 20.4101 14.1834C20.4271 14.1834 20.4271 14.1834 20.4442 14.2012C20.4612 14.2012 20.4612 14.2012 20.4782 14.2189C20.4953 14.2189 20.4953 14.2189 20.5123 14.2367C20.5294 14.2367 20.5294 14.2367 20.5464 14.2544C20.5634 14.2544 20.5634 14.2544 20.5805 14.2722C20.5975 14.2722 20.5975 14.2899 20.6146 14.2899C20.6316 14.2899 20.6316 14.29 20.6487 14.3077C20.6487 14.3077 20.6657 14.3077 20.6657 14.3255C20.6657 14.3255 20.6827 14.3255 20.6827 14.3432C20.6827 14.3432 20.6827 14.3432 20.6998 14.3432H20.7168L20.7339 14.361H20.7509C20.802 14.3965 20.8361 14.432 20.8872 14.4675C20.9043 14.4852 20.9043 14.4852 20.9213 14.503H20.9384C20.9554 14.5207 20.9554 14.5207 20.9724 14.5385L20.9895 14.5562C21.0065 14.574 21.0065 14.574 21.0236 14.5917L21.0406 14.6095C21.0576 14.6272 21.0576 14.6272 21.0747 14.645V14.6627C21.0917 14.6805 21.0917 14.6982 21.1088 14.6982C21.1258 14.716 21.1258 14.7337 21.1429 14.7337C21.1599 14.7515 21.1599 14.7692 21.1769 14.787C21.2962 14.9645 21.3644 15.1775 21.3814 15.3905C21.3814 15.4615 21.3985 15.5148 21.3985 15.5681C21.3985 16.3669 20.7679 17.0059 20.0181 17.0059ZM22.7618 14.8757C22.7618 14.9823 22.6766 15.0888 22.5573 15.0888H21.8416C21.7904 14.8757 21.7052 14.6805 21.5859 14.503C21.5689 14.4852 21.5518 14.4675 21.5518 14.432C21.5348 14.4142 21.5178 14.3965 21.5007 14.3787L21.4837 14.361C21.4666 14.3432 21.4496 14.3255 21.4326 14.3077L21.4155 14.2899C21.3985 14.2722 21.3814 14.2544 21.3644 14.2367L21.3474 14.2189C21.3303 14.2012 21.3133 14.1834 21.2962 14.1657C21.2962 14.1657 21.2962 14.1657 21.2792 14.1479C21.2621 14.1302 21.2451 14.1124 21.2281 14.0947C21.2281 14.0947 21.2281 14.0947 21.211 14.0769C21.194 14.0592 21.1769 14.0414 21.1599 14.0237C21.1088 13.9704 21.0406 13.9349 20.9724 13.8817C20.9724 13.8817 20.9554 13.8817 20.9554 13.8639C20.9384 13.8639 20.9384 13.8462 20.9213 13.8462L20.9043 13.8284C20.8872 13.8284 20.8872 13.8107 20.8702 13.8107C20.8531 13.8107 20.8531 13.7929 20.8361 13.7929C20.8191 13.7929 20.8191 13.7752 20.802 13.7752C20.785 13.7752 20.7679 13.7574 20.7679 13.7574C20.7509 13.7574 20.7339 13.7397 20.7339 13.7397C20.7168 13.7397 20.6998 13.7219 20.6827 13.7219C20.6657 13.7219 20.6487 13.7042 20.6487 13.7042C20.6316 13.7042 20.6146 13.6864 20.5975 13.6864C20.5805 13.6864 20.5634 13.6864 20.5634 13.6686C20.5464 13.6686 20.5294 13.6509 20.5123 13.6509C20.4953 13.6509 20.4782 13.6509 20.4782 13.6331C20.4612 13.6331 20.4442 13.6331 20.4271 13.6154C20.4101 13.6154 20.4101 13.6154 20.393 13.6154C20.376 13.6154 20.3589 13.6154 20.3419 13.5976C20.3249 13.5976 20.3249 13.5976 20.3078 13.5976C20.2908 13.5976 20.2737 13.5976 20.2567 13.5976C20.2397 13.5976 20.2397 13.5976 20.2226 13.5976C20.2056 13.5976 20.1715 13.5976 20.1545 13.5976H20.1374C20.0692 13.5976 20.0181 13.5976 19.95 13.5976H19.9329C19.9159 13.5976 19.8818 13.5976 19.8647 13.5976C19.8477 13.5976 19.8477 13.5976 19.8307 13.5976C19.8136 13.5976 19.7966 13.5976 19.7795 13.5976C19.7625 13.5976 19.7625 13.5976 19.7455 13.5976C19.7284 13.5976 19.7114 13.5976 19.6943 13.6154C19.6773 13.6154 19.6773 13.6154 19.6602 13.6154C19.6432 13.6154 19.6262 13.6154 19.6091 13.6331C19.5921 13.6331 19.575 13.6331 19.575 13.6509C19.558 13.6509 19.541 13.6686 19.5239 13.6686C19.5069 13.6686 19.4898 13.6686 19.4898 13.6864C19.4728 13.6864 19.4558 13.7042 19.4387 13.7042C19.4217 13.7042 19.4046 13.7219 19.4046 13.7219C19.3876 13.7219 19.3705 13.7397 19.3535 13.7397C19.3365 13.7397 19.3194 13.7574 19.3194 13.7574C19.3024 13.7574 19.2853 13.7752 19.2853 13.7752C19.2683 13.7752 19.2683 13.7929 19.2513 13.7929C19.2342 13.7929 19.2342 13.8107 19.2172 13.8107C19.2001 13.8107 19.2001 13.8284 19.1831 13.8284L19.166 13.8462C19.149 13.8462 19.149 13.8639 19.132 13.8639C19.132 13.8639 19.1149 13.8639 19.1149 13.8817C19.0638 13.9172 19.0127 13.9527 18.9786 13.9882C18.9786 13.9882 18.9616 13.9882 18.9616 14.0059C18.9445 14.0059 18.9445 14.0237 18.9275 14.0237C18.9275 14.0237 18.9275 14.0237 18.9104 14.0237C18.8934 14.0414 18.8763 14.0592 18.8593 14.0769C18.8593 14.0769 18.8593 14.0769 18.8423 14.0947C18.8252 14.1124 18.8082 14.1302 18.7911 14.1479L18.7741 14.1657C18.7571 14.1834 18.74 14.2012 18.723 14.2189L18.7059 14.2367C18.6889 14.2544 18.6718 14.2722 18.6548 14.2899L18.6378 14.3077C18.6207 14.3255 18.6037 14.3432 18.5866 14.361L18.5696 14.3787C18.5526 14.3965 18.5355 14.4142 18.5185 14.432V14.4497C18.5014 14.4675 18.4844 14.4852 18.4844 14.5207C18.3651 14.6982 18.2799 14.9113 18.2288 15.1065H17.2063V8.858H19.7114C21.4326 8.858 22.83 10.3136 22.83 12.1065V14.8757H22.7618Z"/>
</mask>
<path d="M19.6432 8.3077H17.1381V7.20711C17.1381 6.79883 16.8143 6.46155 16.4224 6.46155H8.20842C7.81646 6.46155 7.49268 6.79883 7.49268 7.20711V14.8757C7.49268 15.284 7.81646 15.6213 8.20842 15.6213H9.16273C9.19682 16.6864 10.0318 17.5385 11.0543 17.5385C12.0768 17.5385 12.9118 16.6864 12.9459 15.6213H16.8825H18.1095C18.1436 16.6864 18.9786 17.5385 20.0011 17.5385C21.0236 17.5385 21.8586 16.6864 21.8927 15.6213H22.5573C22.9492 15.6213 23.273 15.284 23.273 14.8757V12.0888C23.273 10.0118 21.6541 8.3077 19.6432 8.3077ZM8.00392 14.8757V7.20711C8.00392 7.1006 8.08913 6.99409 8.20842 6.99409H16.4394C16.5417 6.99409 16.6439 7.08285 16.6439 7.20711V8.57397V15.0888H12.9118C12.8607 14.8757 12.7755 14.6805 12.6562 14.4852C12.6392 14.4675 12.6221 14.4497 12.6221 14.4142C12.6051 14.3965 12.5881 14.3787 12.571 14.361L12.554 14.3432C12.5369 14.3255 12.5199 14.3077 12.5029 14.2899L12.4858 14.2722C12.4688 14.2544 12.4517 14.2367 12.4347 14.2189L12.4176 14.2012C12.4006 14.1834 12.3836 14.1657 12.3665 14.1479L12.3495 14.1302C12.3324 14.1124 12.3154 14.0947 12.2984 14.0769L12.2813 14.0592C12.2643 14.0414 12.2472 14.0237 12.2302 14.0059C12.1791 13.9527 12.1109 13.9172 12.0427 13.8639H12.0257C12.0087 13.8639 12.0087 13.8462 11.9916 13.8462L11.9746 13.8284C11.9575 13.8284 11.9575 13.8107 11.9405 13.8107C11.9234 13.8107 11.9234 13.7929 11.9064 13.7929C11.8894 13.7929 11.8894 13.7752 11.8723 13.7752C11.8553 13.7752 11.8382 13.7574 11.8382 13.7574C11.8212 13.7574 11.8042 13.7397 11.8042 13.7397C11.7871 13.7397 11.7701 13.7219 11.753 13.7219C11.736 13.7219 11.7189 13.7042 11.7189 13.7042C11.7019 13.7042 11.6849 13.6864 11.6678 13.6864C11.6508 13.6864 11.6337 13.6864 11.6337 13.6686C11.6167 13.6686 11.5997 13.6509 11.5826 13.6509C11.5656 13.6509 11.5485 13.6509 11.5485 13.6331C11.5315 13.6331 11.5145 13.6331 11.4974 13.6154C11.4804 13.6154 11.4804 13.6154 11.4633 13.6154C11.4463 13.6154 11.4292 13.6154 11.4122 13.5976C11.3952 13.5976 11.3952 13.5976 11.3781 13.5976C11.3611 13.5976 11.344 13.5976 11.327 13.5976C11.31 13.5976 11.31 13.5976 11.2929 13.5976C11.2759 13.5976 11.2418 13.5976 11.2247 13.5976H11.2077C11.1395 13.5976 11.0884 13.5976 11.0202 13.5976H11.0032C10.9862 13.5976 10.9521 13.5976 10.935 13.5976C10.918 13.5976 10.918 13.5976 10.901 13.5976H10.8839C10.8669 13.5976 10.8498 13.5976 10.8328 13.5976C10.8158 13.5976 10.8158 13.5976 10.7987 13.5976C10.7817 13.5976 10.7646 13.5976 10.7476 13.6154C10.7305 13.6154 10.7305 13.6154 10.7135 13.6154C10.6965 13.6154 10.6794 13.6154 10.6624 13.6331C10.6453 13.6331 10.6283 13.6331 10.6283 13.6509C10.6113 13.6509 10.5942 13.6686 10.5772 13.6686C10.5601 13.6686 10.5431 13.6686 10.5431 13.6864C10.526 13.6864 10.509 13.7042 10.492 13.7042C10.4749 13.7042 10.4579 13.7219 10.4579 13.7219C10.4408 13.7219 10.4238 13.7397 10.4068 13.7397C10.3897 13.7397 10.3727 13.7574 10.3727 13.7574C10.3556 13.7574 10.3556 13.7752 10.3386 13.7752C10.3216 13.7752 10.3216 13.7929 10.3045 13.7929C10.2875 13.7929 10.2875 13.8107 10.2704 13.8107C10.2534 13.8107 10.2534 13.8284 10.2363 13.8284L10.2193 13.8462C10.2023 13.8462 10.2023 13.8639 10.1852 13.8639C10.1852 13.8639 10.1682 13.8639 10.1682 13.8817C10.1511 13.8817 10.1511 13.8994 10.1341 13.8994C10.1341 13.8994 10.1171 13.8994 10.1171 13.9172C10.1 13.9172 10.1 13.9349 10.083 13.9349L10.0659 13.9527C10.0318 13.9704 10.0148 13.9882 9.99776 14.0059C9.99776 14.0059 9.98072 14.0059 9.98072 14.0237C9.98072 14.0237 9.98072 14.0237 9.96368 14.0237C9.94664 14.0414 9.9296 14.0592 9.91256 14.0769L9.89552 14.0947C9.87847 14.1124 9.86143 14.1302 9.84439 14.1479L9.82735 14.1657C9.81031 14.1834 9.79327 14.2012 9.77623 14.2189H9.67398C9.65694 14.2367 9.63989 14.2544 9.62285 14.2722L9.60581 14.2899C9.58877 14.3077 9.57173 14.3255 9.55469 14.3432L9.53765 14.361C9.5206 14.3787 9.50356 14.3965 9.48652 14.4142V14.432C9.46948 14.4497 9.45244 14.4675 9.45244 14.4852C9.33315 14.6627 9.24794 14.8757 9.19682 15.0888H8.17433C8.08913 15.0888 8.00392 15 8.00392 14.8757ZM11.0714 17.0059C10.3045 17.0059 9.69102 16.3669 9.69102 15.5681C9.69102 15.5148 9.69102 15.4438 9.70806 15.3905C9.7251 15.1953 9.79327 15 9.89552 14.8225C9.89552 14.8047 9.91256 14.787 9.91256 14.787C9.9296 14.7692 9.9296 14.7515 9.94664 14.7337C9.96368 14.716 9.96368 14.6982 9.98072 14.6982V14.6805C9.99776 14.6627 9.99776 14.645 10.0148 14.645V14.6272C10.0318 14.6095 10.0318 14.6095 10.0489 14.5917L10.0659 14.574C10.083 14.5562 10.083 14.5562 10.1 14.5385L10.1171 14.5207C10.1341 14.503 10.1341 14.503 10.1511 14.4852H10.1682C10.1852 14.4675 10.1852 14.4675 10.2023 14.4497C10.2193 14.432 10.2534 14.4142 10.2704 14.3965C10.2875 14.3787 10.3216 14.361 10.3386 14.3432H10.3556L10.3727 14.3255H10.3897C10.3897 14.3255 10.3897 14.3255 10.4068 14.3255C10.4068 14.3255 10.4238 14.3255 10.4238 14.3077H10.4408C10.4408 14.3077 10.4579 14.3077 10.4579 14.2899C10.4579 14.2899 10.4749 14.29 10.4749 14.2722C10.492 14.2722 10.492 14.2722 10.509 14.2544C10.526 14.2544 10.526 14.2544 10.5431 14.2367C10.5601 14.2367 10.5601 14.2367 10.5772 14.2189C10.5942 14.2189 10.5942 14.2189 10.6113 14.2012C10.6283 14.2012 10.6283 14.2012 10.6453 14.1834C10.6624 14.1834 10.6624 14.1834 10.6794 14.1657C10.6965 14.1657 10.6965 14.1657 10.7135 14.1479C10.7305 14.1479 10.7305 14.1479 10.7476 14.1479C10.7646 14.1479 10.7646 14.1479 10.7817 14.1479H10.7987C10.8158 14.1479 10.8158 14.1479 10.8328 14.1479H10.8498H10.8669C10.8839 14.1479 10.901 14.1479 10.901 14.1479H10.918C10.918 14.1479 10.918 14.1479 10.935 14.1479C10.9521 14.1479 10.9691 14.1479 10.9862 14.1479H11.0032C11.0543 14.1479 11.0884 14.1479 11.1395 14.1479H11.1566C11.1736 14.1479 11.1907 14.1479 11.2077 14.1479H11.2247H11.2418C11.2588 14.1479 11.2759 14.1479 11.2759 14.1479H11.2929H11.31C11.327 14.1479 11.344 14.1479 11.344 14.1479H11.3611C11.3781 14.1479 11.3781 14.1479 11.3952 14.1479C11.4122 14.1479 11.4122 14.1479 11.4292 14.1479C11.4463 14.1479 11.4463 14.1479 11.4633 14.1657C11.4804 14.1657 11.4804 14.1657 11.4974 14.1834C11.5145 14.1834 11.5145 14.1834 11.5315 14.2012C11.5485 14.2012 11.5485 14.2012 11.5656 14.2189C11.5826 14.2189 11.5826 14.2189 11.5997 14.2367C11.6167 14.2367 11.6167 14.2367 11.6337 14.2544C11.6508 14.2544 11.6508 14.2722 11.6678 14.2722C11.6678 14.2722 11.6849 14.2722 11.6849 14.2899C11.6849 14.2899 11.7019 14.29 11.7019 14.3077C11.7019 14.3077 11.7189 14.3077 11.7189 14.3255C11.7189 14.3255 11.7189 14.3255 11.736 14.3255H11.753L11.7701 14.3432H11.7871C11.8382 14.3787 11.8723 14.4142 11.9234 14.4497C11.9405 14.4675 11.9405 14.4675 11.9575 14.4852H11.9746C11.9916 14.503 11.9916 14.503 12.0087 14.5207L12.0257 14.5385C12.0427 14.5562 12.0427 14.5562 12.0598 14.574L12.0768 14.5917C12.0939 14.6095 12.0939 14.6095 12.1109 14.6272C12.1279 14.645 12.1279 14.645 12.145 14.6627V14.6805C12.162 14.6982 12.162 14.716 12.1791 14.716C12.1961 14.7337 12.1961 14.7515 12.2131 14.7692C12.2302 14.787 12.2302 14.8047 12.2302 14.8047C12.3154 14.9468 12.3836 15.1065 12.4006 15.284C12.4006 15.3195 12.4176 15.3373 12.4176 15.3728C12.4176 15.4438 12.4347 15.4971 12.4347 15.5503C12.4517 16.3669 11.8212 17.0059 11.0714 17.0059ZM20.0181 17.0059C19.2513 17.0059 18.6378 16.3669 18.6378 15.5681C18.6378 15.5148 18.6378 15.4438 18.6548 15.3905C18.6889 15.1775 18.7571 14.9645 18.8593 14.787C18.8763 14.7692 18.8763 14.7515 18.8934 14.7337C18.9104 14.716 18.9104 14.6982 18.9275 14.6982V14.6805C18.9445 14.6627 18.9445 14.645 18.9616 14.645C18.9786 14.6272 18.9786 14.6272 18.9956 14.6095L19.0127 14.5917C19.0297 14.574 19.0297 14.574 19.0468 14.5562L19.0638 14.5385C19.0808 14.5207 19.0808 14.5207 19.0979 14.503H19.1149C19.132 14.4852 19.132 14.4852 19.149 14.4675C19.166 14.4497 19.2001 14.432 19.2172 14.4142C19.2342 14.3965 19.2683 14.3787 19.2853 14.361H19.3024L19.3194 14.3432H19.3365H19.3535C19.3535 14.3432 19.3535 14.3432 19.3705 14.3432C19.3705 14.3432 19.3876 14.3432 19.3876 14.3255C19.3876 14.3255 19.4046 14.3255 19.4046 14.3077C19.4046 14.3077 19.4217 14.3077 19.4217 14.2899C19.4387 14.2899 19.4387 14.2722 19.4558 14.2722C19.4728 14.2722 19.4728 14.2722 19.4898 14.2544C19.5069 14.2544 19.5069 14.2544 19.5239 14.2367C19.541 14.2367 19.541 14.2367 19.558 14.2189C19.575 14.2189 19.575 14.2189 19.5921 14.2012C19.6091 14.2012 19.6091 14.2012 19.6262 14.1834C19.6432 14.1834 19.6432 14.1834 19.6602 14.1657C19.6773 14.1657 19.6773 14.1657 19.6943 14.1657C19.7114 14.1657 19.7114 14.1657 19.7284 14.1657H19.7455C19.7625 14.1657 19.7625 14.1657 19.7795 14.1657H19.7966H19.8136C19.8307 14.1657 19.8477 14.1657 19.8477 14.1657H19.8647H19.8818C19.8988 14.1657 19.9159 14.1657 19.9329 14.1657H19.95C20.0011 14.1657 20.0352 14.1657 20.0863 14.1657H20.1033C20.1204 14.1657 20.1374 14.1657 20.1545 14.1657H20.1715H20.1885C20.2056 14.1657 20.2226 14.1657 20.2226 14.1657H20.2397H20.2567C20.2737 14.1657 20.2908 14.1657 20.2908 14.1657H20.3078C20.3249 14.1657 20.3249 14.1657 20.3419 14.1657C20.3589 14.1657 20.3589 14.1657 20.376 14.1657C20.393 14.1657 20.393 14.1657 20.4101 14.1834C20.4271 14.1834 20.4271 14.1834 20.4442 14.2012C20.4612 14.2012 20.4612 14.2012 20.4782 14.2189C20.4953 14.2189 20.4953 14.2189 20.5123 14.2367C20.5294 14.2367 20.5294 14.2367 20.5464 14.2544C20.5634 14.2544 20.5634 14.2544 20.5805 14.2722C20.5975 14.2722 20.5975 14.2899 20.6146 14.2899C20.6316 14.2899 20.6316 14.29 20.6487 14.3077C20.6487 14.3077 20.6657 14.3077 20.6657 14.3255C20.6657 14.3255 20.6827 14.3255 20.6827 14.3432C20.6827 14.3432 20.6827 14.3432 20.6998 14.3432H20.7168L20.7339 14.361H20.7509C20.802 14.3965 20.8361 14.432 20.8872 14.4675C20.9043 14.4852 20.9043 14.4852 20.9213 14.503H20.9384C20.9554 14.5207 20.9554 14.5207 20.9724 14.5385L20.9895 14.5562C21.0065 14.574 21.0065 14.574 21.0236 14.5917L21.0406 14.6095C21.0576 14.6272 21.0576 14.6272 21.0747 14.645V14.6627C21.0917 14.6805 21.0917 14.6982 21.1088 14.6982C21.1258 14.716 21.1258 14.7337 21.1429 14.7337C21.1599 14.7515 21.1599 14.7692 21.1769 14.787C21.2962 14.9645 21.3644 15.1775 21.3814 15.3905C21.3814 15.4615 21.3985 15.5148 21.3985 15.5681C21.3985 16.3669 20.7679 17.0059 20.0181 17.0059ZM22.7618 14.8757C22.7618 14.9823 22.6766 15.0888 22.5573 15.0888H21.8416C21.7904 14.8757 21.7052 14.6805 21.5859 14.503C21.5689 14.4852 21.5518 14.4675 21.5518 14.432C21.5348 14.4142 21.5178 14.3965 21.5007 14.3787L21.4837 14.361C21.4666 14.3432 21.4496 14.3255 21.4326 14.3077L21.4155 14.2899C21.3985 14.2722 21.3814 14.2544 21.3644 14.2367L21.3474 14.2189C21.3303 14.2012 21.3133 14.1834 21.2962 14.1657C21.2962 14.1657 21.2962 14.1657 21.2792 14.1479C21.2621 14.1302 21.2451 14.1124 21.2281 14.0947C21.2281 14.0947 21.2281 14.0947 21.211 14.0769C21.194 14.0592 21.1769 14.0414 21.1599 14.0237C21.1088 13.9704 21.0406 13.9349 20.9724 13.8817C20.9724 13.8817 20.9554 13.8817 20.9554 13.8639C20.9384 13.8639 20.9384 13.8462 20.9213 13.8462L20.9043 13.8284C20.8872 13.8284 20.8872 13.8107 20.8702 13.8107C20.8531 13.8107 20.8531 13.7929 20.8361 13.7929C20.8191 13.7929 20.8191 13.7752 20.802 13.7752C20.785 13.7752 20.7679 13.7574 20.7679 13.7574C20.7509 13.7574 20.7339 13.7397 20.7339 13.7397C20.7168 13.7397 20.6998 13.7219 20.6827 13.7219C20.6657 13.7219 20.6487 13.7042 20.6487 13.7042C20.6316 13.7042 20.6146 13.6864 20.5975 13.6864C20.5805 13.6864 20.5634 13.6864 20.5634 13.6686C20.5464 13.6686 20.5294 13.6509 20.5123 13.6509C20.4953 13.6509 20.4782 13.6509 20.4782 13.6331C20.4612 13.6331 20.4442 13.6331 20.4271 13.6154C20.4101 13.6154 20.4101 13.6154 20.393 13.6154C20.376 13.6154 20.3589 13.6154 20.3419 13.5976C20.3249 13.5976 20.3249 13.5976 20.3078 13.5976C20.2908 13.5976 20.2737 13.5976 20.2567 13.5976C20.2397 13.5976 20.2397 13.5976 20.2226 13.5976C20.2056 13.5976 20.1715 13.5976 20.1545 13.5976H20.1374C20.0692 13.5976 20.0181 13.5976 19.95 13.5976H19.9329C19.9159 13.5976 19.8818 13.5976 19.8647 13.5976C19.8477 13.5976 19.8477 13.5976 19.8307 13.5976C19.8136 13.5976 19.7966 13.5976 19.7795 13.5976C19.7625 13.5976 19.7625 13.5976 19.7455 13.5976C19.7284 13.5976 19.7114 13.5976 19.6943 13.6154C19.6773 13.6154 19.6773 13.6154 19.6602 13.6154C19.6432 13.6154 19.6262 13.6154 19.6091 13.6331C19.5921 13.6331 19.575 13.6331 19.575 13.6509C19.558 13.6509 19.541 13.6686 19.5239 13.6686C19.5069 13.6686 19.4898 13.6686 19.4898 13.6864C19.4728 13.6864 19.4558 13.7042 19.4387 13.7042C19.4217 13.7042 19.4046 13.7219 19.4046 13.7219C19.3876 13.7219 19.3705 13.7397 19.3535 13.7397C19.3365 13.7397 19.3194 13.7574 19.3194 13.7574C19.3024 13.7574 19.2853 13.7752 19.2853 13.7752C19.2683 13.7752 19.2683 13.7929 19.2513 13.7929C19.2342 13.7929 19.2342 13.8107 19.2172 13.8107C19.2001 13.8107 19.2001 13.8284 19.1831 13.8284L19.166 13.8462C19.149 13.8462 19.149 13.8639 19.132 13.8639C19.132 13.8639 19.1149 13.8639 19.1149 13.8817C19.0638 13.9172 19.0127 13.9527 18.9786 13.9882C18.9786 13.9882 18.9616 13.9882 18.9616 14.0059C18.9445 14.0059 18.9445 14.0237 18.9275 14.0237C18.9275 14.0237 18.9275 14.0237 18.9104 14.0237C18.8934 14.0414 18.8763 14.0592 18.8593 14.0769C18.8593 14.0769 18.8593 14.0769 18.8423 14.0947C18.8252 14.1124 18.8082 14.1302 18.7911 14.1479L18.7741 14.1657C18.7571 14.1834 18.74 14.2012 18.723 14.2189L18.7059 14.2367C18.6889 14.2544 18.6718 14.2722 18.6548 14.2899L18.6378 14.3077C18.6207 14.3255 18.6037 14.3432 18.5866 14.361L18.5696 14.3787C18.5526 14.3965 18.5355 14.4142 18.5185 14.432V14.4497C18.5014 14.4675 18.4844 14.4852 18.4844 14.5207C18.3651 14.6982 18.2799 14.9113 18.2288 15.1065H17.2063V8.858H19.7114C21.4326 8.858 22.83 10.3136 22.83 12.1065V14.8757H22.7618Z" fill="#201A33"/>
<path d="M19.6432 8.3077H17.1381V7.20711C17.1381 6.79883 16.8143 6.46155 16.4224 6.46155H8.20842C7.81646 6.46155 7.49268 6.79883 7.49268 7.20711V14.8757C7.49268 15.284 7.81646 15.6213 8.20842 15.6213H9.16273C9.19682 16.6864 10.0318 17.5385 11.0543 17.5385C12.0768 17.5385 12.9118 16.6864 12.9459 15.6213H16.8825H18.1095C18.1436 16.6864 18.9786 17.5385 20.0011 17.5385C21.0236 17.5385 21.8586 16.6864 21.8927 15.6213H22.5573C22.9492 15.6213 23.273 15.284 23.273 14.8757V12.0888C23.273 10.0118 21.6541 8.3077 19.6432 8.3077ZM8.00392 14.8757V7.20711C8.00392 7.1006 8.08913 6.99409 8.20842 6.99409H16.4394C16.5417 6.99409 16.6439 7.08285 16.6439 7.20711V8.57397V15.0888H12.9118C12.8607 14.8757 12.7755 14.6805 12.6562 14.4852C12.6392 14.4675 12.6221 14.4497 12.6221 14.4142C12.6051 14.3965 12.5881 14.3787 12.571 14.361L12.554 14.3432C12.5369 14.3255 12.5199 14.3077 12.5029 14.2899L12.4858 14.2722C12.4688 14.2544 12.4517 14.2367 12.4347 14.2189L12.4176 14.2012C12.4006 14.1834 12.3836 14.1657 12.3665 14.1479L12.3495 14.1302C12.3324 14.1124 12.3154 14.0947 12.2984 14.0769L12.2813 14.0592C12.2643 14.0414 12.2472 14.0237 12.2302 14.0059C12.1791 13.9527 12.1109 13.9172 12.0427 13.8639H12.0257C12.0087 13.8639 12.0087 13.8462 11.9916 13.8462L11.9746 13.8284C11.9575 13.8284 11.9575 13.8107 11.9405 13.8107C11.9234 13.8107 11.9234 13.7929 11.9064 13.7929C11.8894 13.7929 11.8894 13.7752 11.8723 13.7752C11.8553 13.7752 11.8382 13.7574 11.8382 13.7574C11.8212 13.7574 11.8042 13.7397 11.8042 13.7397C11.7871 13.7397 11.7701 13.7219 11.753 13.7219C11.736 13.7219 11.7189 13.7042 11.7189 13.7042C11.7019 13.7042 11.6849 13.6864 11.6678 13.6864C11.6508 13.6864 11.6337 13.6864 11.6337 13.6686C11.6167 13.6686 11.5997 13.6509 11.5826 13.6509C11.5656 13.6509 11.5485 13.6509 11.5485 13.6331C11.5315 13.6331 11.5145 13.6331 11.4974 13.6154C11.4804 13.6154 11.4804 13.6154 11.4633 13.6154C11.4463 13.6154 11.4292 13.6154 11.4122 13.5976C11.3952 13.5976 11.3952 13.5976 11.3781 13.5976C11.3611 13.5976 11.344 13.5976 11.327 13.5976C11.31 13.5976 11.31 13.5976 11.2929 13.5976C11.2759 13.5976 11.2418 13.5976 11.2247 13.5976H11.2077C11.1395 13.5976 11.0884 13.5976 11.0202 13.5976H11.0032C10.9862 13.5976 10.9521 13.5976 10.935 13.5976C10.918 13.5976 10.918 13.5976 10.901 13.5976H10.8839C10.8669 13.5976 10.8498 13.5976 10.8328 13.5976C10.8158 13.5976 10.8158 13.5976 10.7987 13.5976C10.7817 13.5976 10.7646 13.5976 10.7476 13.6154C10.7305 13.6154 10.7305 13.6154 10.7135 13.6154C10.6965 13.6154 10.6794 13.6154 10.6624 13.6331C10.6453 13.6331 10.6283 13.6331 10.6283 13.6509C10.6113 13.6509 10.5942 13.6686 10.5772 13.6686C10.5601 13.6686 10.5431 13.6686 10.5431 13.6864C10.526 13.6864 10.509 13.7042 10.492 13.7042C10.4749 13.7042 10.4579 13.7219 10.4579 13.7219C10.4408 13.7219 10.4238 13.7397 10.4068 13.7397C10.3897 13.7397 10.3727 13.7574 10.3727 13.7574C10.3556 13.7574 10.3556 13.7752 10.3386 13.7752C10.3216 13.7752 10.3216 13.7929 10.3045 13.7929C10.2875 13.7929 10.2875 13.8107 10.2704 13.8107C10.2534 13.8107 10.2534 13.8284 10.2363 13.8284L10.2193 13.8462C10.2023 13.8462 10.2023 13.8639 10.1852 13.8639C10.1852 13.8639 10.1682 13.8639 10.1682 13.8817C10.1511 13.8817 10.1511 13.8994 10.1341 13.8994C10.1341 13.8994 10.1171 13.8994 10.1171 13.9172C10.1 13.9172 10.1 13.9349 10.083 13.9349L10.0659 13.9527C10.0318 13.9704 10.0148 13.9882 9.99776 14.0059C9.99776 14.0059 9.98072 14.0059 9.98072 14.0237C9.98072 14.0237 9.98072 14.0237 9.96368 14.0237C9.94664 14.0414 9.9296 14.0592 9.91256 14.0769L9.89552 14.0947C9.87847 14.1124 9.86143 14.1302 9.84439 14.1479L9.82735 14.1657C9.81031 14.1834 9.79327 14.2012 9.77623 14.2189H9.67398C9.65694 14.2367 9.63989 14.2544 9.62285 14.2722L9.60581 14.2899C9.58877 14.3077 9.57173 14.3255 9.55469 14.3432L9.53765 14.361C9.5206 14.3787 9.50356 14.3965 9.48652 14.4142V14.432C9.46948 14.4497 9.45244 14.4675 9.45244 14.4852C9.33315 14.6627 9.24794 14.8757 9.19682 15.0888H8.17433C8.08913 15.0888 8.00392 15 8.00392 14.8757ZM11.0714 17.0059C10.3045 17.0059 9.69102 16.3669 9.69102 15.5681C9.69102 15.5148 9.69102 15.4438 9.70806 15.3905C9.7251 15.1953 9.79327 15 9.89552 14.8225C9.89552 14.8047 9.91256 14.787 9.91256 14.787C9.9296 14.7692 9.9296 14.7515 9.94664 14.7337C9.96368 14.716 9.96368 14.6982 9.98072 14.6982V14.6805C9.99776 14.6627 9.99776 14.645 10.0148 14.645V14.6272C10.0318 14.6095 10.0318 14.6095 10.0489 14.5917L10.0659 14.574C10.083 14.5562 10.083 14.5562 10.1 14.5385L10.1171 14.5207C10.1341 14.503 10.1341 14.503 10.1511 14.4852H10.1682C10.1852 14.4675 10.1852 14.4675 10.2023 14.4497C10.2193 14.432 10.2534 14.4142 10.2704 14.3965C10.2875 14.3787 10.3216 14.361 10.3386 14.3432H10.3556L10.3727 14.3255H10.3897C10.3897 14.3255 10.3897 14.3255 10.4068 14.3255C10.4068 14.3255 10.4238 14.3255 10.4238 14.3077H10.4408C10.4408 14.3077 10.4579 14.3077 10.4579 14.2899C10.4579 14.2899 10.4749 14.29 10.4749 14.2722C10.492 14.2722 10.492 14.2722 10.509 14.2544C10.526 14.2544 10.526 14.2544 10.5431 14.2367C10.5601 14.2367 10.5601 14.2367 10.5772 14.2189C10.5942 14.2189 10.5942 14.2189 10.6113 14.2012C10.6283 14.2012 10.6283 14.2012 10.6453 14.1834C10.6624 14.1834 10.6624 14.1834 10.6794 14.1657C10.6965 14.1657 10.6965 14.1657 10.7135 14.1479C10.7305 14.1479 10.7305 14.1479 10.7476 14.1479C10.7646 14.1479 10.7646 14.1479 10.7817 14.1479H10.7987C10.8158 14.1479 10.8158 14.1479 10.8328 14.1479H10.8498H10.8669C10.8839 14.1479 10.901 14.1479 10.901 14.1479H10.918C10.918 14.1479 10.918 14.1479 10.935 14.1479C10.9521 14.1479 10.9691 14.1479 10.9862 14.1479H11.0032C11.0543 14.1479 11.0884 14.1479 11.1395 14.1479H11.1566C11.1736 14.1479 11.1907 14.1479 11.2077 14.1479H11.2247H11.2418C11.2588 14.1479 11.2759 14.1479 11.2759 14.1479H11.2929H11.31C11.327 14.1479 11.344 14.1479 11.344 14.1479H11.3611C11.3781 14.1479 11.3781 14.1479 11.3952 14.1479C11.4122 14.1479 11.4122 14.1479 11.4292 14.1479C11.4463 14.1479 11.4463 14.1479 11.4633 14.1657C11.4804 14.1657 11.4804 14.1657 11.4974 14.1834C11.5145 14.1834 11.5145 14.1834 11.5315 14.2012C11.5485 14.2012 11.5485 14.2012 11.5656 14.2189C11.5826 14.2189 11.5826 14.2189 11.5997 14.2367C11.6167 14.2367 11.6167 14.2367 11.6337 14.2544C11.6508 14.2544 11.6508 14.2722 11.6678 14.2722C11.6678 14.2722 11.6849 14.2722 11.6849 14.2899C11.6849 14.2899 11.7019 14.29 11.7019 14.3077C11.7019 14.3077 11.7189 14.3077 11.7189 14.3255C11.7189 14.3255 11.7189 14.3255 11.736 14.3255H11.753L11.7701 14.3432H11.7871C11.8382 14.3787 11.8723 14.4142 11.9234 14.4497C11.9405 14.4675 11.9405 14.4675 11.9575 14.4852H11.9746C11.9916 14.503 11.9916 14.503 12.0087 14.5207L12.0257 14.5385C12.0427 14.5562 12.0427 14.5562 12.0598 14.574L12.0768 14.5917C12.0939 14.6095 12.0939 14.6095 12.1109 14.6272C12.1279 14.645 12.1279 14.645 12.145 14.6627V14.6805C12.162 14.6982 12.162 14.716 12.1791 14.716C12.1961 14.7337 12.1961 14.7515 12.2131 14.7692C12.2302 14.787 12.2302 14.8047 12.2302 14.8047C12.3154 14.9468 12.3836 15.1065 12.4006 15.284C12.4006 15.3195 12.4176 15.3373 12.4176 15.3728C12.4176 15.4438 12.4347 15.4971 12.4347 15.5503C12.4517 16.3669 11.8212 17.0059 11.0714 17.0059ZM20.0181 17.0059C19.2513 17.0059 18.6378 16.3669 18.6378 15.5681C18.6378 15.5148 18.6378 15.4438 18.6548 15.3905C18.6889 15.1775 18.7571 14.9645 18.8593 14.787C18.8763 14.7692 18.8763 14.7515 18.8934 14.7337C18.9104 14.716 18.9104 14.6982 18.9275 14.6982V14.6805C18.9445 14.6627 18.9445 14.645 18.9616 14.645C18.9786 14.6272 18.9786 14.6272 18.9956 14.6095L19.0127 14.5917C19.0297 14.574 19.0297 14.574 19.0468 14.5562L19.0638 14.5385C19.0808 14.5207 19.0808 14.5207 19.0979 14.503H19.1149C19.132 14.4852 19.132 14.4852 19.149 14.4675C19.166 14.4497 19.2001 14.432 19.2172 14.4142C19.2342 14.3965 19.2683 14.3787 19.2853 14.361H19.3024L19.3194 14.3432H19.3365H19.3535C19.3535 14.3432 19.3535 14.3432 19.3705 14.3432C19.3705 14.3432 19.3876 14.3432 19.3876 14.3255C19.3876 14.3255 19.4046 14.3255 19.4046 14.3077C19.4046 14.3077 19.4217 14.3077 19.4217 14.2899C19.4387 14.2899 19.4387 14.2722 19.4558 14.2722C19.4728 14.2722 19.4728 14.2722 19.4898 14.2544C19.5069 14.2544 19.5069 14.2544 19.5239 14.2367C19.541 14.2367 19.541 14.2367 19.558 14.2189C19.575 14.2189 19.575 14.2189 19.5921 14.2012C19.6091 14.2012 19.6091 14.2012 19.6262 14.1834C19.6432 14.1834 19.6432 14.1834 19.6602 14.1657C19.6773 14.1657 19.6773 14.1657 19.6943 14.1657C19.7114 14.1657 19.7114 14.1657 19.7284 14.1657H19.7455C19.7625 14.1657 19.7625 14.1657 19.7795 14.1657H19.7966H19.8136C19.8307 14.1657 19.8477 14.1657 19.8477 14.1657H19.8647H19.8818C19.8988 14.1657 19.9159 14.1657 19.9329 14.1657H19.95C20.0011 14.1657 20.0352 14.1657 20.0863 14.1657H20.1033C20.1204 14.1657 20.1374 14.1657 20.1545 14.1657H20.1715H20.1885C20.2056 14.1657 20.2226 14.1657 20.2226 14.1657H20.2397H20.2567C20.2737 14.1657 20.2908 14.1657 20.2908 14.1657H20.3078C20.3249 14.1657 20.3249 14.1657 20.3419 14.1657C20.3589 14.1657 20.3589 14.1657 20.376 14.1657C20.393 14.1657 20.393 14.1657 20.4101 14.1834C20.4271 14.1834 20.4271 14.1834 20.4442 14.2012C20.4612 14.2012 20.4612 14.2012 20.4782 14.2189C20.4953 14.2189 20.4953 14.2189 20.5123 14.2367C20.5294 14.2367 20.5294 14.2367 20.5464 14.2544C20.5634 14.2544 20.5634 14.2544 20.5805 14.2722C20.5975 14.2722 20.5975 14.2899 20.6146 14.2899C20.6316 14.2899 20.6316 14.29 20.6487 14.3077C20.6487 14.3077 20.6657 14.3077 20.6657 14.3255C20.6657 14.3255 20.6827 14.3255 20.6827 14.3432C20.6827 14.3432 20.6827 14.3432 20.6998 14.3432H20.7168L20.7339 14.361H20.7509C20.802 14.3965 20.8361 14.432 20.8872 14.4675C20.9043 14.4852 20.9043 14.4852 20.9213 14.503H20.9384C20.9554 14.5207 20.9554 14.5207 20.9724 14.5385L20.9895 14.5562C21.0065 14.574 21.0065 14.574 21.0236 14.5917L21.0406 14.6095C21.0576 14.6272 21.0576 14.6272 21.0747 14.645V14.6627C21.0917 14.6805 21.0917 14.6982 21.1088 14.6982C21.1258 14.716 21.1258 14.7337 21.1429 14.7337C21.1599 14.7515 21.1599 14.7692 21.1769 14.787C21.2962 14.9645 21.3644 15.1775 21.3814 15.3905C21.3814 15.4615 21.3985 15.5148 21.3985 15.5681C21.3985 16.3669 20.7679 17.0059 20.0181 17.0059ZM22.7618 14.8757C22.7618 14.9823 22.6766 15.0888 22.5573 15.0888H21.8416C21.7904 14.8757 21.7052 14.6805 21.5859 14.503C21.5689 14.4852 21.5518 14.4675 21.5518 14.432C21.5348 14.4142 21.5178 14.3965 21.5007 14.3787L21.4837 14.361C21.4666 14.3432 21.4496 14.3255 21.4326 14.3077L21.4155 14.2899C21.3985 14.2722 21.3814 14.2544 21.3644 14.2367L21.3474 14.2189C21.3303 14.2012 21.3133 14.1834 21.2962 14.1657C21.2962 14.1657 21.2962 14.1657 21.2792 14.1479C21.2621 14.1302 21.2451 14.1124 21.2281 14.0947C21.2281 14.0947 21.2281 14.0947 21.211 14.0769C21.194 14.0592 21.1769 14.0414 21.1599 14.0237C21.1088 13.9704 21.0406 13.9349 20.9724 13.8817C20.9724 13.8817 20.9554 13.8817 20.9554 13.8639C20.9384 13.8639 20.9384 13.8462 20.9213 13.8462L20.9043 13.8284C20.8872 13.8284 20.8872 13.8107 20.8702 13.8107C20.8531 13.8107 20.8531 13.7929 20.8361 13.7929C20.8191 13.7929 20.8191 13.7752 20.802 13.7752C20.785 13.7752 20.7679 13.7574 20.7679 13.7574C20.7509 13.7574 20.7339 13.7397 20.7339 13.7397C20.7168 13.7397 20.6998 13.7219 20.6827 13.7219C20.6657 13.7219 20.6487 13.7042 20.6487 13.7042C20.6316 13.7042 20.6146 13.6864 20.5975 13.6864C20.5805 13.6864 20.5634 13.6864 20.5634 13.6686C20.5464 13.6686 20.5294 13.6509 20.5123 13.6509C20.4953 13.6509 20.4782 13.6509 20.4782 13.6331C20.4612 13.6331 20.4442 13.6331 20.4271 13.6154C20.4101 13.6154 20.4101 13.6154 20.393 13.6154C20.376 13.6154 20.3589 13.6154 20.3419 13.5976C20.3249 13.5976 20.3249 13.5976 20.3078 13.5976C20.2908 13.5976 20.2737 13.5976 20.2567 13.5976C20.2397 13.5976 20.2397 13.5976 20.2226 13.5976C20.2056 13.5976 20.1715 13.5976 20.1545 13.5976H20.1374C20.0692 13.5976 20.0181 13.5976 19.95 13.5976H19.9329C19.9159 13.5976 19.8818 13.5976 19.8647 13.5976C19.8477 13.5976 19.8477 13.5976 19.8307 13.5976C19.8136 13.5976 19.7966 13.5976 19.7795 13.5976C19.7625 13.5976 19.7625 13.5976 19.7455 13.5976C19.7284 13.5976 19.7114 13.5976 19.6943 13.6154C19.6773 13.6154 19.6773 13.6154 19.6602 13.6154C19.6432 13.6154 19.6262 13.6154 19.6091 13.6331C19.5921 13.6331 19.575 13.6331 19.575 13.6509C19.558 13.6509 19.541 13.6686 19.5239 13.6686C19.5069 13.6686 19.4898 13.6686 19.4898 13.6864C19.4728 13.6864 19.4558 13.7042 19.4387 13.7042C19.4217 13.7042 19.4046 13.7219 19.4046 13.7219C19.3876 13.7219 19.3705 13.7397 19.3535 13.7397C19.3365 13.7397 19.3194 13.7574 19.3194 13.7574C19.3024 13.7574 19.2853 13.7752 19.2853 13.7752C19.2683 13.7752 19.2683 13.7929 19.2513 13.7929C19.2342 13.7929 19.2342 13.8107 19.2172 13.8107C19.2001 13.8107 19.2001 13.8284 19.1831 13.8284L19.166 13.8462C19.149 13.8462 19.149 13.8639 19.132 13.8639C19.132 13.8639 19.1149 13.8639 19.1149 13.8817C19.0638 13.9172 19.0127 13.9527 18.9786 13.9882C18.9786 13.9882 18.9616 13.9882 18.9616 14.0059C18.9445 14.0059 18.9445 14.0237 18.9275 14.0237C18.9275 14.0237 18.9275 14.0237 18.9104 14.0237C18.8934 14.0414 18.8763 14.0592 18.8593 14.0769C18.8593 14.0769 18.8593 14.0769 18.8423 14.0947C18.8252 14.1124 18.8082 14.1302 18.7911 14.1479L18.7741 14.1657C18.7571 14.1834 18.74 14.2012 18.723 14.2189L18.7059 14.2367C18.6889 14.2544 18.6718 14.2722 18.6548 14.2899L18.6378 14.3077C18.6207 14.3255 18.6037 14.3432 18.5866 14.361L18.5696 14.3787C18.5526 14.3965 18.5355 14.4142 18.5185 14.432V14.4497C18.5014 14.4675 18.4844 14.4852 18.4844 14.5207C18.3651 14.6982 18.2799 14.9113 18.2288 15.1065H17.2063V8.858H19.7114C21.4326 8.858 22.83 10.3136 22.83 12.1065V14.8757H22.7618Z" stroke="#201A33" stroke-width="0.5" mask="url(#path-1-outside-1_8740_4124)"/>
<path d="M6.45264 14.804C6.65529 14.804 6.83292 14.9816 6.81592 15.1956H6.81689C6.81689 15.1985 6.81599 15.2014 6.81592 15.2043C6.81572 15.2063 6.81615 15.2083 6.81592 15.2102L6.81494 15.2092C6.80742 15.4097 6.64133 15.5861 6.43604 15.5862H0.98291C0.772895 15.5862 0.602232 15.4016 0.602051 15.1956C0.602051 14.9894 0.772783 14.804 0.98291 14.804H6.45264Z" fill="#201A33" stroke="#201A33" stroke-width="0.25"/>
<path d="M6.45312 12.6561C6.65776 12.6562 6.83398 12.8183 6.83398 13.0477C6.8338 13.2537 6.66308 13.4383 6.45312 13.4384H2.36328C2.15327 13.4384 1.9826 13.2538 1.98242 13.0477C1.98242 12.8415 2.15315 12.6561 2.36328 12.6561H6.45312Z" fill="#201A33" stroke="#201A33" stroke-width="0.25"/>
<path d="M6.45312 10.4904C6.66317 10.4905 6.83398 10.6758 6.83398 10.882C6.8338 11.088 6.66306 11.2725 6.45312 11.2726H3.72656C3.51655 11.2726 3.34588 11.088 3.3457 10.882C3.3457 10.6758 3.51644 10.4904 3.72656 10.4904H6.45312Z" fill="#201A33" stroke="#201A33" stroke-width="0.25"/>
</svg>
