<svg width="24" height="24" viewBox="0 0 24 24" fill="none" xmlns="http://www.w3.org/2000/svg">
<g clip-path="url(#clip0_8740_4087)">
<path d="M5.89062 3.19556V6.18774H8.83105V7.07935H5.00195V3.19556H5.89062Z" fill="#201A33" stroke="#201A33" stroke-width="0.25"/>
<path d="M12.3906 2.875C17.5512 2.875 21.7393 7.07816 21.7393 12.2549C21.739 17.4314 17.551 21.6338 12.3906 21.6338C7.23028 21.6338 3.04199 17.4309 3.04199 12.2754V11.9795H3.93066V12.2754C3.93066 16.9511 7.73067 20.7422 12.3906 20.7422C17.05 20.7422 20.8503 16.9308 20.8506 12.2549C20.8506 7.57878 17.0502 3.7666 12.3906 3.7666C9.82985 3.76661 7.41549 4.92455 5.79883 6.92578L5.71973 7.02441L5.62207 6.94336L5.13184 6.53711L5.03711 6.45801L5.11523 6.3623C6.90669 4.15352 9.56199 2.87501 12.3906 2.875Z" fill="#201A33" stroke="#201A33" stroke-width="0.25"/>
<path d="M8.18439 13.275L8.05713 12.1769H8.15894C8.668 12.5089 9.12615 12.6877 9.50795 12.6877C9.81338 12.6877 10.0934 12.611 10.3224 12.4323C10.5515 12.2535 10.6533 11.9981 10.6533 11.6661C10.6533 11.3597 10.5515 11.1043 10.3479 10.9255C10.1443 10.7468 9.86429 10.6446 9.50795 10.6446C9.32977 10.6446 9.15161 10.6702 8.97343 10.6957L8.87162 10.4659L9.88974 9.11237H8.08258V8.16748H11.4678V8.32071L10.2461 9.90404C10.6788 9.98066 11.0351 10.185 11.2896 10.4659C11.5442 10.7468 11.6714 11.1554 11.6714 11.6151C11.6714 12.228 11.4678 12.7132 11.086 13.0707C10.7042 13.4282 10.1952 13.607 9.55885 13.607C9.02434 13.607 8.56619 13.4793 8.18439 13.275Z" fill="#201A33"/>
<path d="M12.3076 10.8235C12.3076 10.0063 12.5112 9.36785 12.9439 8.83156C13.3766 8.32081 13.9366 8.06543 14.6493 8.06543C15.362 8.06543 15.9219 8.32081 16.3546 8.83156C16.7873 9.34231 16.991 10.0063 16.991 10.8235C16.991 11.6407 16.7873 12.2791 16.3546 12.8154C15.9219 13.3262 15.362 13.5816 14.6493 13.5816C13.9366 13.5816 13.3766 13.3262 12.9439 12.8154C12.5367 12.3047 12.3076 11.6407 12.3076 10.8235ZM15.9219 10.8235C15.9219 10.2361 15.8201 9.80199 15.6165 9.47C15.4129 9.13801 15.082 8.98479 14.6747 8.98479C14.2675 8.98479 13.9366 9.13801 13.733 9.47C13.5294 9.80199 13.4275 10.2361 13.4275 10.8235C13.4275 11.4109 13.5294 11.845 13.733 12.177C13.9366 12.509 14.2675 12.6622 14.6747 12.6622C15.082 12.6622 15.4129 12.509 15.6165 12.177C15.7947 11.8705 15.9219 11.4109 15.9219 10.8235Z" fill="#201A33"/>
<path d="M8.1335 16.7993C7.92987 16.595 7.85352 16.314 7.85352 16.0076C7.85352 15.6756 7.95533 15.3947 8.15895 15.1904C8.36257 14.9861 8.59165 14.8839 8.89708 14.8839C9.17707 14.8839 9.40614 14.9605 9.55886 15.1393V13.9901H10.1188V17.0546H9.53341V16.8503C9.35524 17.0291 9.15161 17.1312 8.87163 17.1312C8.5662 17.1312 8.33712 17.0036 8.1335 16.7993ZM9.55886 16.0076C9.55886 15.8288 9.50795 15.7011 9.40614 15.5734C9.30433 15.4713 9.15161 15.3947 8.97344 15.3947C8.79527 15.3947 8.66801 15.4458 8.54074 15.5734C8.43893 15.6756 8.38803 15.8288 8.38803 16.0076C8.38803 16.1864 8.43893 16.314 8.54074 16.4417C8.64255 16.5439 8.79527 16.6205 8.97344 16.6205C9.15161 16.6205 9.27888 16.5694 9.40614 16.4417C9.50795 16.314 9.55886 16.1864 9.55886 16.0076Z" fill="#201A33"/>
<path d="M10.4756 16.0077C10.4756 15.7012 10.5774 15.4459 10.781 15.216C10.9846 15.0117 11.2392 14.884 11.5192 14.884C11.6464 14.884 11.7737 14.9096 11.9009 14.9606C12.0282 15.0117 12.1046 15.0628 12.1555 15.1394V14.9351H12.7154V17.0292H12.1555V16.8504C11.9773 17.0292 11.7482 17.1058 11.4937 17.1058C11.2392 17.1058 10.9846 17.0037 10.781 16.7994C10.5774 16.6206 10.4756 16.3397 10.4756 16.0077ZM12.1809 16.0077C12.1809 15.8289 12.13 15.7012 12.0282 15.5991C11.9264 15.4969 11.7737 15.4203 11.621 15.4203C11.4682 15.4203 11.3155 15.4714 11.2137 15.5991C11.1119 15.7012 11.061 15.8545 11.061 16.0077C11.061 16.1865 11.1119 16.3141 11.2137 16.4163C11.3155 16.5184 11.4682 16.5951 11.621 16.5951C11.7737 16.5951 11.9264 16.544 12.0282 16.4163C12.13 16.3141 12.1809 16.1865 12.1809 16.0077Z" fill="#201A33"/>
<path d="M13.7842 16.6462L12.9951 14.9607H13.606L14.0896 16.0077L14.5987 14.9607H15.2095L13.7333 18.0252H13.1224L13.7842 16.6462Z" fill="#201A33"/>
<path d="M15.3877 16.9269L15.515 16.3906H15.5404C15.7186 16.5438 15.9222 16.5949 16.1004 16.5949C16.2785 16.5949 16.3549 16.5438 16.3549 16.4161C16.3549 16.3651 16.3295 16.314 16.2785 16.2629C16.2276 16.2374 16.1004 16.1863 15.9477 16.1352C15.7949 16.0842 15.6677 16.0075 15.5659 15.9054C15.4895 15.8032 15.4386 15.6756 15.4386 15.5479C15.4386 15.3436 15.515 15.1903 15.6677 15.0882C15.8204 14.986 15.9986 14.9094 16.2276 14.9094C16.4313 14.9094 16.6349 14.9605 16.7876 15.0371L16.8131 15.5734H16.7876C16.584 15.4457 16.4058 15.3691 16.2531 15.3691C16.1767 15.3691 16.1258 15.3946 16.0749 15.4202C16.024 15.4457 15.9986 15.4968 15.9986 15.5223C15.9986 15.5734 16.024 15.6245 16.0749 15.6756C16.1258 15.7266 16.2276 15.7522 16.3804 15.8032C16.5585 15.8543 16.6858 15.9309 16.7876 16.0075C16.8894 16.0842 16.9149 16.2118 16.9149 16.3906C16.9149 16.6204 16.8385 16.7737 16.6858 16.9014C16.5331 17.029 16.3549 17.0801 16.1258 17.0801C15.8458 17.1312 15.5913 17.0546 15.3877 16.9269Z" fill="#201A33"/>
</g>
<defs>
<clipPath id="clip0_8740_4087">
<rect width="24" height="24" fill="white"/>
</clipPath>
</defs>
</svg>
