<svg preserveAspectRatio="none" width="100%" height="100%" overflow="visible" style="display: block;" viewBox="0 0 19.8522 19.3373" fill="none" xmlns="http://www.w3.org/2000/svg">
<g id="Group">
<path id="Vector" d="M9.76934 19.3136C9.651 19.3136 9.55632 19.3136 9.43798 19.3136C9.15396 19.29 8.86993 19.29 8.58591 19.2426C8.37289 19.219 8.13621 19.1953 7.92319 19.148C7.66283 19.1006 7.40248 19.0296 7.14212 18.9823C7.04745 18.9586 6.95277 18.9349 6.88177 18.9113C6.71609 18.8639 6.57408 18.8166 6.4084 18.7693C6.24271 18.7219 6.1007 18.6509 5.95869 18.6036C5.79301 18.5326 5.62733 18.4616 5.46165 18.3906C5.36697 18.3432 5.29597 18.2959 5.20129 18.2486C4.94094 18.1065 4.70425 17.9882 4.46757 17.8225C4.30189 17.7278 4.13621 17.6095 3.97053 17.4912C3.87585 17.4201 3.75751 17.3491 3.66283 17.2545C3.54449 17.1598 3.42615 17.0651 3.3078 16.9704C3.04745 16.7338 2.76342 16.4734 2.52674 16.213C2.33739 16 2.14804 15.7633 1.95869 15.5267C1.722 15.219 1.50899 14.9113 1.31964 14.5799C1.20129 14.3669 1.08295 14.1302 0.964609 13.9172C0.846265 13.7278 0.798928 13.5148 0.680585 13.3255C0.656916 13.2545 0.656916 13.2308 0.633248 13.1835C0.538573 12.9468 0.443899 12.6864 0.372893 12.4497C0.301887 12.1894 0.207212 11.9054 0.183544 11.645C0.159875 11.5267 0.136206 11.3846 0.112538 11.2663C0.0888689 11.1243 0.0652003 10.9586 0.0652003 10.8166C0.0652003 10.7693 0.0415316 10.6983 0.0415316 10.6509C0.017863 10.4616 0.0178631 10.2722 0.0178631 10.1065C0.0178631 10.0592 0.0178631 10.0355 0.0178631 9.9882C-0.00580555 9.89352 -0.00580555 9.77518 0.0178631 9.68051C0.0178631 9.65684 0.0178631 9.63317 0.0178631 9.58583C0.0178631 9.42015 0.0415316 9.27814 0.0415316 9.11246C0.0415316 8.89944 0.0888689 8.71009 0.112538 8.49707C0.136206 8.30772 0.183544 8.09471 0.207212 7.90536C0.230881 7.81068 0.254549 7.71601 0.278218 7.645C0.372893 7.21897 0.491236 6.8166 0.656916 6.41423C0.727922 6.24855 0.77526 6.10654 0.846265 5.94086C0.869934 5.86985 0.893603 5.82252 0.94094 5.75151C1.13029 5.30181 1.36698 4.89944 1.62733 4.49707C1.88769 4.09471 2.19538 3.71601 2.50307 3.36098C2.64508 3.1953 2.81076 3.02962 2.95277 2.88761C3.07112 2.76926 3.18946 2.67459 3.3078 2.55624C3.6155 2.27222 3.94686 2.01187 4.27822 1.79885C4.56224 1.6095 4.84627 1.42015 5.15396 1.25447C5.46165 1.08879 5.74567 0.946777 6.05337 0.804765C6.33739 0.662754 6.64508 0.568079 6.95277 0.473405C6.97644 0.473405 7.00011 0.473404 7.02378 0.449736C7.35514 0.331393 7.71017 0.260387 8.0652 0.189381C8.30189 0.142044 8.53857 0.118375 8.77526 0.0710378C8.96461 0.0473691 9.15396 0.0237003 9.34331 0.0237003C9.651 3.16602e-05 9.95869 3.17959e-05 10.2901 3.17959e-05C10.5031 3.17959e-05 10.7398 0.0237004 10.9528 0.047369C11.2131 0.0710377 11.4498 0.0947062 11.7102 0.142043C11.9232 0.189381 12.1362 0.21305 12.3256 0.236718C12.4676 0.260387 12.6096 0.307724 12.7516 0.331393C13.0119 0.402399 13.2486 0.497073 13.509 0.568079C13.864 0.686422 14.219 0.828434 14.5504 1.01778C14.8818 1.18346 15.2131 1.37281 15.5208 1.58583C15.8285 1.77518 16.1125 1.9882 16.3729 2.22488C16.5386 2.3669 16.7043 2.48524 16.8463 2.65092C16.9646 2.76926 17.1066 2.88761 17.225 3.02962C17.367 3.1953 17.509 3.36098 17.651 3.52666C17.8403 3.73968 18.006 3.97636 18.1717 4.21305C18.3137 4.42607 18.4794 4.66275 18.5977 4.89944C18.5977 4.92311 18.6214 4.92311 18.6214 4.94678C18.7871 5.18346 18.8818 5.44382 19.0001 5.70417C19.0948 5.94086 19.1895 6.15388 19.2841 6.39056C19.3788 6.65092 19.4498 6.93494 19.5445 7.21897C19.6392 7.52666 19.6865 7.83435 19.7338 8.14204C19.7575 8.33139 19.8048 8.54441 19.8048 8.73376C19.8048 8.89944 19.8285 9.06512 19.8522 9.2308V9.25447C19.8522 9.49116 19.8522 9.70417 19.8522 9.94086C19.8522 9.9882 19.8522 10.0355 19.8522 10.0829C19.8522 10.3196 19.8285 10.5799 19.7812 10.8166C19.7575 11.0059 19.7338 11.1953 19.6865 11.3846C19.6628 11.4557 19.6392 11.5267 19.6392 11.5977C19.5682 11.9527 19.4498 12.3077 19.3315 12.6628C19.3315 12.6864 19.3315 12.6864 19.3315 12.7101C19.1895 13.0888 19.0474 13.4438 18.8818 13.7988C18.7634 14.0355 18.6451 14.2486 18.5267 14.4616C18.2901 14.8403 18.0534 15.1953 17.7693 15.5503C17.3906 16.0474 16.9409 16.4971 16.4676 16.8994C16.2545 17.0888 16.0415 17.2308 15.8285 17.3965C15.5682 17.6095 15.2841 17.7752 15.0001 17.9409C14.8818 18.0119 14.7398 18.0829 14.6214 18.1539C14.3611 18.2959 14.077 18.4142 13.8167 18.5326C13.6037 18.6272 13.3906 18.6983 13.2013 18.7693C13.1776 18.7693 13.154 18.7693 13.1303 18.7929C13.0356 18.8166 12.9646 18.8639 12.8699 18.8876C12.7989 18.9113 12.7043 18.9349 12.6332 18.9586C12.5149 18.9823 12.3966 19.0296 12.2545 19.0533C12.1362 19.077 12.0415 19.1006 11.9232 19.1243C11.8048 19.148 11.6865 19.1716 11.5445 19.1953C11.3078 19.219 11.0948 19.2663 10.8581 19.29C10.5741 19.3373 10.2664 19.3373 9.98236 19.3373C9.86402 19.3136 9.81668 19.3136 9.76934 19.3136ZM6.59774 18.4852C6.62141 18.4852 6.64508 18.5089 6.69242 18.5089C6.90544 18.5799 7.14212 18.6509 7.35514 18.6983C7.6865 18.7929 8.04153 18.8639 8.37289 18.8876C8.58591 18.9113 8.77526 18.9586 8.98828 18.9586C9.29597 18.9823 9.62733 18.9823 9.93502 18.9823C10.1954 18.9823 10.4321 18.9586 10.6924 18.9349C10.7398 18.9349 10.8108 18.9113 10.8581 18.9113C11.0948 18.9113 11.3078 18.8639 11.5208 18.8166C11.7338 18.7693 11.9469 18.7219 12.1835 18.6746C12.4676 18.6036 12.7516 18.5326 13.0119 18.4379C13.2723 18.3432 13.509 18.2486 13.7457 18.1302C13.8167 18.1065 13.864 18.0592 13.9114 18.0355C14.3137 17.7278 14.5741 17.3255 14.7634 16.8758C14.7871 16.8521 14.7871 16.8048 14.7871 16.7811C14.8344 16.6154 14.8581 16.4734 14.8581 16.3077C14.8581 16.1184 14.8344 15.929 14.8108 15.7633C14.7634 15.503 14.6451 15.2663 14.4321 15.077C14.3137 14.9586 14.1954 14.8639 14.0534 14.7929C13.8167 14.6273 13.5563 14.4852 13.296 14.3906C13.1776 14.3432 13.0593 14.2722 12.9409 14.2012C12.8226 14.1302 12.7043 14.0119 12.6096 13.9172C12.3966 13.7042 12.3019 13.4675 12.3019 13.1835C12.3019 12.8994 12.3492 12.6154 12.3966 12.3551C12.4439 12.142 12.5386 11.929 12.6806 11.7397C12.8699 11.4793 13.1066 11.2426 13.3906 11.077C13.4617 11.0296 13.509 10.9823 13.58 10.9586C13.6747 10.8876 13.793 10.8166 13.8877 10.7693C14.0534 10.6983 14.219 10.6273 14.3847 10.5562C14.5504 10.4852 14.7398 10.4379 14.9291 10.4142C15.2131 10.3432 15.4735 10.2959 15.7575 10.2486C15.9469 10.2249 16.1125 10.1775 16.3019 10.2012C16.3729 10.2012 16.4439 10.2012 16.5149 10.2012C16.6332 10.2012 16.7516 10.1775 16.8699 10.1775C17.1066 10.1775 17.3196 10.1539 17.5563 10.1065C17.6983 10.0829 17.8167 10.0355 17.935 9.94086C18.1007 9.82252 18.1954 9.65684 18.1717 9.44382C18.1717 9.39648 18.148 9.32548 18.148 9.27814C18.1244 9.18346 18.1007 9.06512 18.0297 8.99411C17.9114 8.80477 17.7693 8.63908 17.58 8.52074C17.5327 8.4734 17.4617 8.44974 17.4143 8.4024C17.296 8.33139 17.2013 8.23672 17.083 8.16571C16.9173 8.04737 16.7516 7.92903 16.5859 7.83435C16.3966 7.69234 16.2072 7.574 16.0179 7.43198C15.9469 7.38465 15.8995 7.36098 15.8285 7.31364C15.6865 7.21897 15.5682 7.10062 15.4498 7.00595C15.3315 6.88761 15.2131 6.74559 15.1185 6.60358C15.0238 6.46157 14.9528 6.29589 14.9291 6.10654C14.9054 5.91719 14.9054 5.70417 14.9528 5.49116C14.9764 5.39648 15.0001 5.32548 15.0711 5.25447C15.1658 5.1598 15.2605 5.06512 15.4025 5.04145C15.4972 5.01778 15.6155 4.99411 15.7102 4.97045C15.8995 4.92311 16.0889 4.92311 16.2782 4.92311C16.4202 4.92311 16.5386 4.89944 16.6569 4.82843C16.9173 4.68642 17.0356 4.4734 17.0356 4.18938C17.0356 4.11837 17.0119 4.04737 17.0119 3.95269C16.9646 3.78701 16.8936 3.62133 16.7989 3.47932C16.6806 3.31364 16.5149 3.21897 16.3256 3.14796C16.2072 3.12429 16.1125 3.07695 15.9942 3.05329C15.7575 3.00595 15.5445 2.95861 15.2841 2.95861C15.1895 2.95861 15.1185 2.95861 15.0238 2.95861C14.8818 2.95861 14.7634 2.93494 14.6451 2.86394C14.5741 2.8166 14.5504 2.79293 14.5741 2.72192C14.5977 2.55624 14.6687 2.46157 14.7871 2.3669C14.8818 2.29589 14.9764 2.22488 15.0948 2.17755C15.1895 2.15388 15.2841 2.10654 15.3788 2.10654C15.4735 2.10654 15.5682 2.10654 15.6628 2.10654C15.6865 2.10654 15.6865 2.10654 15.7102 2.08287C15.6865 2.0592 15.6628 2.03553 15.6392 2.03553C15.5918 2.01187 15.5445 1.9882 15.4972 1.94086C15.2131 1.72784 14.9291 1.56216 14.6214 1.39648C14.5267 1.34914 14.4557 1.30181 14.3611 1.25447C14.077 1.11246 13.7693 0.994114 13.4616 0.852103C13.1776 0.733759 12.8699 0.639085 12.5622 0.568079C12.3729 0.520742 12.2072 0.497073 12.0179 0.426067C11.9232 0.402399 11.8285 0.37873 11.7338 0.355061C11.6865 0.331393 11.6155 0.355061 11.5682 0.355061C11.4735 0.402399 11.3788 0.402399 11.3078 0.449736C11.0474 0.54441 10.8108 0.615416 10.5504 0.710091C10.5031 0.73376 10.4321 0.757428 10.3847 0.781097C10.3137 0.804766 10.2427 0.828434 10.1954 0.852103C9.95869 0.970446 9.722 1.08879 9.48532 1.20713C9.24863 1.32548 9.01195 1.42015 8.77526 1.49116C8.53857 1.53849 8.32556 1.58583 8.08887 1.53849C7.87585 1.49116 7.6865 1.37281 7.49715 1.25447C7.47348 1.2308 7.44982 1.20713 7.44982 1.20713C7.37881 1.11246 7.3078 1.01778 7.26047 0.923109C7.21313 0.852103 7.18946 0.781097 7.14212 0.710091C7.04745 0.73376 6.97644 0.757428 6.88177 0.804765C6.4794 0.946777 6.1007 1.08879 5.72201 1.27814C5.46165 1.39648 5.22496 1.53849 4.96461 1.6805C4.60958 1.89352 4.25455 2.13021 3.92319 2.39056C3.6155 2.62725 3.35514 2.88761 3.07112 3.14796C3.02378 3.1953 2.97644 3.2663 2.92911 3.31364C2.90544 3.33731 2.90544 3.33731 2.90544 3.36098C2.95277 3.38465 2.97644 3.38465 3.02378 3.38465C3.18946 3.38465 3.37881 3.38465 3.54449 3.36098C3.82851 3.31364 4.13621 3.2663 4.42023 3.17163C4.56224 3.12429 4.72792 3.07695 4.86993 3.02962C5.08295 2.95861 5.2723 2.91127 5.48532 2.86394C5.69834 2.8166 5.91135 2.79293 6.14804 2.76926C6.31372 2.74559 6.45573 2.76926 6.59774 2.8166C6.81076 2.88761 6.95277 3.00595 7.02378 3.21897C7.09479 3.38465 7.09479 3.574 7.07112 3.76335C7.04745 3.92903 7.00011 4.07104 6.92911 4.21305C6.81076 4.4734 6.64508 4.71009 6.45573 4.89944C6.36106 4.99411 6.26638 5.06512 6.19538 5.15979C6.0297 5.32548 5.86402 5.44382 5.69834 5.58583C5.55632 5.70417 5.41431 5.82252 5.29597 5.94086C5.10662 6.15388 4.96461 6.39056 4.91727 6.67459C4.86993 7.02962 4.86993 7.38465 4.8936 7.73968C4.91727 7.90536 4.94094 8.07104 4.96461 8.23672C4.98828 8.35506 4.98828 8.4734 5.01195 8.59175C5.01195 8.68642 5.01195 8.75743 4.96461 8.82843C4.91727 8.89944 4.8936 8.94678 4.84627 8.99411C4.75159 9.11246 4.68058 9.11246 4.56224 9.04145C4.53857 9.04145 4.53857 9.01778 4.5149 9.01778C4.4439 8.97045 4.39656 8.92311 4.32556 8.87577C4.18354 8.75743 4.01786 8.66275 3.85218 8.59175C3.80485 8.56808 3.75751 8.54441 3.6865 8.54441C3.44982 8.52074 3.2368 8.56808 3.02378 8.66275C2.73976 8.80477 2.4794 9.01778 2.26638 9.25447C2.24271 9.27814 2.21905 9.32548 2.19538 9.34914C2.07703 9.53849 1.95869 9.75151 1.91135 9.9882C1.88769 10.0829 1.88769 10.1775 1.86402 10.2722C1.84035 10.4142 1.86402 10.5562 1.93502 10.6983C1.98236 10.8403 2.05337 10.9823 2.14804 11.1243C2.24271 11.29 2.38473 11.432 2.55041 11.503C2.69242 11.574 2.8581 11.6213 3.00011 11.645C3.3078 11.6923 3.63916 11.716 3.94686 11.7397C4.08887 11.7397 4.23088 11.787 4.37289 11.8107C4.39656 11.8107 4.42023 11.8344 4.4439 11.8344C4.58591 11.9054 4.65692 12.0237 4.72792 12.142C4.77526 12.2367 4.79893 12.3551 4.8226 12.4497C4.84627 12.5681 4.84626 12.6628 4.86993 12.7811C4.8936 12.8994 4.91727 12.9941 4.96461 13.1125C5.03561 13.3018 5.17763 13.4438 5.36698 13.5148C5.48532 13.5858 5.62733 13.6332 5.74567 13.6568C5.93502 13.7278 6.12437 13.7752 6.33739 13.8225C6.59774 13.8935 6.8581 13.9645 7.09479 14.0592C7.33147 14.1775 7.52082 14.3432 7.6155 14.5799C7.6865 14.7456 7.73384 14.9113 7.73384 15.1006C7.73384 15.1716 7.73384 15.2426 7.73384 15.3136C7.75751 15.503 7.73384 15.6687 7.6865 15.858C7.66283 15.9764 7.6155 16.0947 7.56816 16.1894C7.52082 16.3077 7.47348 16.4024 7.40248 16.5207C7.33147 16.6628 7.2368 16.8284 7.14212 16.9704C7.07112 17.1125 6.97644 17.2545 6.90544 17.3965C6.83443 17.5385 6.73976 17.7042 6.69242 17.8699C6.62141 18.0829 6.57408 18.2722 6.59774 18.4852ZM0.349224 10.1302C0.325555 10.3906 0.325555 10.6273 0.349224 10.8403C0.396561 11.1953 0.467567 11.5503 0.538573 11.9054C0.609579 12.1894 0.680585 12.4497 0.775259 12.7101C0.94094 13.1835 1.13029 13.6568 1.39064 14.1065C1.39064 14.1302 1.41431 14.1539 1.41431 14.1539C1.62733 14.5799 1.91135 14.9586 2.19538 15.3373C2.4084 15.6213 2.64508 15.8817 2.90544 16.142C3.2368 16.4971 3.6155 16.7811 3.97053 17.0888C3.99419 17.1125 4.04153 17.1361 4.0652 17.1598C4.08887 17.1598 4.08887 17.1835 4.11254 17.1598C4.11254 17.1361 4.08887 17.1361 4.08887 17.1125C4.0652 17.0651 4.01786 17.0178 3.99419 16.9704C3.85218 16.6864 3.66283 16.4261 3.49715 16.1657C3.33147 15.929 3.16579 15.6923 3.04745 15.4083C2.95277 15.1953 2.8581 14.9823 2.76342 14.7456C2.76342 14.7219 2.73976 14.6983 2.73976 14.6746C2.71609 14.6036 2.71609 14.5326 2.69242 14.4379C2.69242 14.3669 2.66875 14.2959 2.69242 14.2249C2.71609 14.1065 2.73976 13.9882 2.76342 13.8699C2.81076 13.7278 2.8581 13.5858 2.90544 13.4438C2.90544 13.4201 2.92911 13.3965 2.92911 13.3728C2.95277 13.2308 2.97644 13.0888 3.00011 12.9468C3.02378 12.7574 2.97644 12.5917 2.88177 12.4497C2.78709 12.2841 2.69242 12.1657 2.55041 12.0474C2.4794 12 2.4084 11.929 2.33739 11.8817C2.26638 11.8344 2.19538 11.7633 2.12437 11.716C2.05337 11.6687 1.98236 11.6213 1.88769 11.5503C1.84035 11.5267 1.81668 11.4793 1.76934 11.4557C1.74567 11.432 1.722 11.4083 1.69834 11.3846C1.57999 11.29 1.43798 11.1953 1.31964 11.1006C0.988277 10.8403 0.680585 10.5799 0.42023 10.2486C0.443899 10.2486 0.396561 10.2012 0.349224 10.1302Z" fill="var(--fill-0, #201A33)"/>
<path id="Vector_2" d="M9.91079 8.85204C9.57943 8.87571 9.27173 8.82837 8.96404 8.75736C8.65635 8.68636 8.34866 8.59168 8.04096 8.44967C7.92262 8.40233 7.80428 8.355 7.68593 8.28399C7.52025 8.21298 7.37824 8.09464 7.23623 7.9763C7.14156 7.90529 7.04688 7.81062 6.95221 7.71594C6.92854 7.69227 6.90487 7.66861 6.90487 7.64494C6.8812 7.5976 6.8812 7.52659 6.92854 7.47926C6.97588 7.45559 7.02321 7.43192 7.07055 7.47926C7.09422 7.50293 7.11789 7.52659 7.16522 7.55026C7.35457 7.73961 7.54392 7.90529 7.75694 8.02364C7.89895 8.09464 8.06463 8.16565 8.20664 8.21298C8.34866 8.26032 8.49067 8.30766 8.65635 8.37867C8.86937 8.44967 9.10605 8.52068 9.34274 8.54435C9.48475 8.56801 9.62676 8.56801 9.76877 8.56801C9.91079 8.56801 10.0528 8.59168 10.2185 8.56801C10.2895 8.54435 10.3605 8.56801 10.4552 8.56801C10.7865 8.54435 11.0942 8.49701 11.4019 8.40233C11.6149 8.355 11.8279 8.26032 12.041 8.18932C12.2303 8.11831 12.4197 8.02364 12.5853 7.92896C12.893 7.76328 13.1771 7.52659 13.4374 7.28991C13.6268 7.12423 13.7688 6.95855 13.9345 6.7692C13.9581 6.74553 13.9818 6.72186 14.0055 6.69819C14.0528 6.65085 14.1238 6.65085 14.1475 6.67452C14.1948 6.69819 14.1948 6.7692 14.1711 6.81653C14.1475 6.8402 14.1475 6.86387 14.1238 6.88754C13.9581 7.07689 13.8161 7.28991 13.6268 7.43192C13.5321 7.50293 13.4611 7.5976 13.3664 7.66861C13.1771 7.83429 12.964 7.9763 12.7274 8.11831C12.4907 8.26032 12.254 8.355 12.0173 8.44967C11.7096 8.56801 11.4019 8.63902 11.0705 8.71003C10.9759 8.73369 10.8812 8.75736 10.7629 8.75736C10.6919 8.75736 10.6208 8.75736 10.5498 8.75736C10.3368 8.85204 10.1238 8.87571 9.91079 8.85204Z" fill="var(--fill-0, #201A33)"/>
<path id="Vector_3" d="M9.86406 5.46751C9.86406 5.53851 9.86406 5.63319 9.84039 5.70419C9.81673 5.84621 9.74572 5.98822 9.62738 6.08289C9.43803 6.2249 9.22501 6.27224 9.01199 6.1539C8.98832 6.1539 8.96466 6.13023 8.94099 6.10656C8.84631 6.01189 8.72797 5.91721 8.65696 5.79887C8.58596 5.65686 8.51495 5.51484 8.46761 5.34916C8.42028 5.20715 8.39661 5.04147 8.34927 4.89946C8.3256 4.85212 8.3256 4.78112 8.3256 4.73378C8.3256 4.66277 8.37294 4.6391 8.42028 4.61544C8.46761 4.59177 8.53862 4.61544 8.56229 4.68644C8.58596 4.73378 8.58596 4.78112 8.60963 4.82845C8.65696 5.04147 8.7043 5.23082 8.75164 5.42017C8.79898 5.56218 8.86998 5.68052 8.94099 5.7752C8.96466 5.82254 9.01199 5.84621 9.03566 5.89354C9.13034 5.96455 9.27235 5.96455 9.39069 5.89354C9.48537 5.84621 9.5327 5.7752 9.55637 5.65686C9.58004 5.53851 9.58004 5.42017 9.58004 5.30183C9.55637 5.08881 9.50903 4.87579 9.4617 4.66277C9.4617 4.61544 9.43803 4.59177 9.43803 4.54443C9.43803 4.49709 9.4617 4.44976 9.50903 4.44976C9.55637 4.42609 9.60371 4.44976 9.65105 4.49709C9.67471 4.52076 9.67471 4.54443 9.69838 4.5681C9.74572 4.78112 9.81673 4.97047 9.84039 5.18348C9.86406 5.30183 9.86406 5.37283 9.86406 5.46751Z" fill="var(--fill-0, #201A33)"/>
<path id="Vector_4" d="M12.42 5.23094C12.42 5.27828 12.42 5.34928 12.42 5.42029C12.3963 5.65698 12.2543 5.84632 12.0176 5.91733C11.923 5.941 11.852 5.941 11.7573 5.91733C11.5443 5.86999 11.4023 5.77532 11.3076 5.60964C11.2366 5.51496 11.1892 5.39662 11.1419 5.27828C11.0946 5.15993 11.0472 5.06526 11.0236 4.94692C10.9762 4.8049 10.9762 4.66289 10.9526 4.54455C10.9526 4.52088 10.9526 4.52088 10.9526 4.49721C10.9526 4.42621 10.9999 4.40254 11.0472 4.37887C11.0946 4.37887 11.1419 4.40254 11.1892 4.44987C11.2129 4.49721 11.2129 4.52088 11.2129 4.56822C11.2366 4.7339 11.2602 4.87591 11.3313 5.01792C11.3786 5.13627 11.4259 5.27828 11.4969 5.39662C11.5679 5.53863 11.6626 5.60964 11.8283 5.65698C11.9466 5.68064 12.136 5.63331 12.1833 5.44396C12.207 5.39662 12.207 5.32561 12.207 5.27828C12.207 5.1126 12.207 4.94692 12.1597 4.78124C12.136 4.68656 12.1123 4.56822 12.0887 4.47354C12.0887 4.42621 12.065 4.37887 12.065 4.33153C12.065 4.28419 12.0887 4.23686 12.136 4.23686C12.1833 4.23686 12.2307 4.23686 12.2543 4.28419C12.278 4.30786 12.278 4.33153 12.278 4.3552C12.349 4.63922 12.42 4.92325 12.42 5.23094Z" fill="var(--fill-0, #201A33)"/>
</g>
</svg>
