<svg preserveAspectRatio="none" width="100%" height="100%" overflow="visible" style="display: block;" viewBox="0 0 165.02 253.239" fill="none" xmlns="http://www.w3.org/2000/svg">
<g id="Group 634613">
<path id="Vector" d="M68.2649 66.8364L66.2706 69.7145L56.8522 82.2026L51.1575 89.5495L48.7893 93.0098C48.2362 93.8133 47.7143 95.0187 47.4416 95.9534C47.1222 97.044 48.3375 97.8066 49.1399 97.823L53.4323 97.9459L61.02 98.0525C62.0639 98.0689 63.248 98.9873 62.9909 100.135C62.7728 101.111 61.7522 101.726 61.2069 102.48L55.6291 110.139L54.1879 112.853C53.775 113.632 53.1752 113.82 52.3806 113.935C49.4593 114.353 46.6859 114.591 43.7257 114.501C40.3914 114.403 37.1195 114.583 33.8399 113.886C32.0169 113.501 30.2564 112.574 28.6594 111.549C27.9738 111.106 27.2883 109.958 26.9299 109.204C25.9873 107.187 26.9066 104.94 25.9328 104.661C24.8655 104.358 24.8811 108.155 26.0107 110.147C26.4547 110.934 27.1558 111.894 27.7713 112.509C32.3052 115.51 35.8575 115.715 41.0848 115.739L45.9459 115.764L52.03 115.305L58.8075 114.165L64.658 113.32C67.3145 112.935 69.9554 113.001 72.6196 113.402C73.7258 113.566 74.7775 114.698 75.1281 115.78C76.3667 119.642 73.1182 122.594 70.0333 123.193L62.578 124.644C61.8068 124.792 61.129 124.874 60.4824 125.431C62.8195 125.48 64.7437 124.972 66.8938 124.841L72.308 124.521C73.7102 124.439 75.3696 124.455 76.5615 125.382C78.2208 126.669 78.1585 129.933 76.429 131.155C73.7881 133.032 70.7188 133.655 67.6494 134.188L63.0143 134.992L65.8577 135.271C69.7684 135.648 76.3278 134.451 78.0416 138.362C78.3299 139.018 78.6415 140.109 78.6337 140.789C78.5558 144.43 74.4581 145.84 71.1784 146.652C69.1997 147.144 67.2911 147.546 65.2578 147.595L56.821 147.792L53.7049 147.628C53.0661 148.366 52.6377 149.719 52.0846 150.662L50.4642 153.425L41.708 167.668C40.742 169.234 39.2541 171.759 39.963 172.382C40.8744 173.178 46.9664 172.653 49.7008 172.505L53.9153 172.268L56.4861 172.538C56.9535 172.587 57.6312 173.219 57.7714 173.645C57.935 174.137 57.6857 174.99 57.3352 175.457L50.8381 184.067L48.5478 186.953L44.9409 191.209C42.4013 194.202 39.9396 197.072 37.7272 200.335L33.8009 206.116C34.9305 207.674 35.8887 208.305 37.7038 208.412L46.9976 208.953H56.6185L60.2409 208.781L66.4809 208.502L71.5446 208.215C72.604 208.158 73.6791 208.141 74.3413 209.24C74.8944 210.15 74.9723 211.413 74.8243 212.503L74.3802 215.709L73.9362 220.441L73.5311 225.541L72.1444 237.578L71.155 243.539L70.228 249.779C70.0333 251.107 69.3321 252.132 67.9688 252.296L64.0815 252.772L59.275 252.895L56.0031 252.936L50.9861 253.182L43.9516 253.239L40.0642 252.911C39.5657 252.87 38.8801 252.485 38.6231 252.149C38.3037 251.731 38.1634 250.722 38.3738 250.181L40.446 244.72L41.5288 242.047L44.9565 231.896L46.6859 224.901H42.5571L36.6755 224.819C31.4327 224.745 21.2353 221.884 16.4754 219.35C13.6086 217.825 10.1576 215.291 8.28012 212.717L6.70649 210.56L5.61586 208.74C2.12584 202.943 0.0380546 195.292 0.256181 188.437L0.0925862 186.141C-0.016477 184.625 -0.102169 183.132 0.279552 181.697L1.72853 176.269C2.32059 174.047 3.06845 172.153 4.28373 170.242C5.93526 167.635 7.78933 165.413 10.1108 163.445L15.5874 158.82C17.4726 157.221 19.8097 156.418 22.0844 155.499L26.4547 153.728L30.046 152.449L33.8243 151.203L39.9552 149.145L45.4006 147.48L40.1577 147.086C37.7661 146.906 35.4758 146.447 33.1621 145.832L31.0587 145.274L26.9611 144.11C24.2657 143.347 21.9286 142.339 19.5759 140.838C16.6468 138.977 14.2163 136.927 12.2298 133.91C9.78363 130.195 8.51382 125.923 8.38139 121.331L8.49824 117.519L8.86438 115.141C9.58887 110.426 14.154 101.751 17.3635 98.2329C20.0979 95.2401 23.0816 92.6572 26.3612 90.3613C28.5425 88.8361 30.9497 87.967 33.3101 86.8436C34.4709 86.2942 35.5693 85.8023 36.8157 85.4743C37.8986 85.1873 38.9191 84.8183 40.0175 84.2443C37.4234 82.8258 35.0318 81.4482 33.279 78.9309C31.5262 76.4136 30.0071 73.5766 29.6098 70.4771C29.2125 67.3776 29.3916 64.4421 29.8201 61.4903C30.1707 59.0796 31.2379 56.6525 32.4688 54.66C33.7775 52.5444 35.3745 50.8061 37.065 49.1088C38.2569 47.9034 39.5735 47.0753 40.9835 46.2225C43.4608 44.7138 45.9848 43.82 48.7036 42.8934C53.0895 41.4093 57.3508 40.4417 62.1963 40.5811C59.4697 38.1704 57.678 38.0146 55.0994 34.825C53.6504 33.0375 52.6299 31.2007 52.0067 28.9294C51.7262 27.9045 51.2354 26.8221 51.0718 25.7644C50.5421 22.2467 51.5003 19.0816 52.7467 15.892C53.8374 13.0959 55.2708 10.7426 57.2884 8.53688C62.0639 3.32189 67.6105 1.37858 74.3413 0.337219C77.4418 -0.138361 80.5111 -0.0153664 83.6116 0.132227L88.0676 0.345419C91.3551 0.501212 94.627 1.35398 97.8366 2.32974C100.875 3.2563 103.757 4.37145 106.289 6.33117C109.732 8.97966 111.727 11.4478 113.394 15.5968C114.609 18.6307 115.365 23.1241 114.944 26.2399C114.656 28.4046 113.869 30.1184 112.965 32.0043C110.994 36.1287 107.956 39.2774 103.897 41.1387L101.366 42.3031L108.291 43.3444C110.652 43.697 112.817 44.4022 115.092 45.1401C119.229 46.4767 122.96 48.4856 126.45 51.1833C129.683 53.6842 132.721 58.6122 133.36 62.6956L133.734 65.0817C134.295 68.6158 133.321 72.937 131.374 75.7495C130.252 77.373 128.577 78.4882 127.081 79.6853C125.367 81.0547 123.537 81.9648 121.464 82.7602C121.122 82.8668 121.153 82.9734 121.511 83.0308C124.947 83.7605 128.156 84.6461 131.335 86.04L137.427 88.7131L140.932 90.7549C143.417 92.2062 145.287 94.2725 147.219 96.4536C150.148 99.7581 152.727 103.284 154.012 107.663L155.079 112.23C155.578 115.887 155.975 119.519 155.157 123.078L154.464 126.104C154.082 127.752 153.591 129.244 152.843 130.728C152.096 132.212 151.449 133.565 150.327 134.656L148.434 136.484C147.016 137.854 145.489 138.952 143.776 139.846L140.948 141.322L131.389 144.791L124.799 146.488L121.137 147.062L116.876 147.71L123.318 148.702L133.111 150.424C135.97 150.924 138.564 151.957 141.026 153.581C142.553 153.941 143.892 154.614 145.178 155.54C148.754 157.41 152.579 160.485 155.157 163.674L157.003 165.962C158.998 168.43 160.641 170.964 161.911 173.949C163.446 177.548 164.427 181.197 164.435 185.207C165.152 187.642 165.152 190.135 164.747 192.66C164.84 195.448 163.968 197.875 162.807 200.286C161.942 202.082 161.257 203.894 160.034 205.427L154.97 211.741C153.747 213.266 152.173 214.34 150.436 215.258C149.634 216.333 148.551 216.972 147.219 217.103C144.243 219.235 141.15 220.9 137.684 221.908L128.717 224.499L120.436 225.787L117.748 226.156L120.981 236.438L124.674 248.91C124.892 249.64 125.437 251.099 124.245 251.403C122.843 251.763 121.098 251.788 119.556 251.804L110.698 251.903C105.261 251.96 96.1539 253.182 92.0095 250.64L91.3551 247.401L91.0513 243.432L90.6852 240.144L89.9918 233.978L88.9869 224.647C88.5818 220.867 88.3792 217.235 88.3559 213.422C88.3481 212.208 88.1066 210.97 88.6052 209.797C88.9324 209.043 90.0152 208.592 90.7631 208.568L93.5442 208.477L98.304 208.502L103.687 208.609L116.751 208.059L122.181 207.428L128.125 206.378L129.574 205.255L128.631 203.459L122.89 195.768L121.176 193.521L111.244 180.295L110.231 178.811L106.647 173.407C106.18 172.702 105.385 171.292 106.375 170.497C107.2 169.824 108.829 170.062 109.872 170.152L114.749 170.562L119.338 170.669C120.459 170.693 121.472 170.357 122.524 169.931L121.605 168.299L117.554 161.78L113.604 154.934L110.169 148.825L109.841 147.808L100.143 147.496L89.8049 145.881C88.3325 145.652 87.0705 144.963 85.7539 144.208C84.3361 143.397 82.9417 142.158 82.6612 140.396C82.1549 137.198 84.5309 134.197 87.5769 134.328L92.6171 134.557C94.292 134.631 95.8968 135.107 97.6574 134.426L92.2977 133.106C90.3112 132.614 88.3013 132.499 86.3849 131.688C84.5932 130.917 83.3312 128.9 83.635 126.874C84.3907 121.774 90.5293 122.938 94.6114 123.012L98.2962 123.078C98.3819 122.988 98.5143 122.799 98.4442 122.766L97.9768 122.57L95.6475 122.324L91.5421 121.799C88.4883 121.405 84.6867 120.446 84.3517 117.404C84.0946 115.034 86.6888 112.459 89.0025 112.468L101.412 112.55L105.79 112.64L109.187 112.722L113.978 112.984C117.071 113.148 120.117 113.017 123.194 112.427C124.284 112.222 125.531 111.443 126.45 110.778C129.184 108.802 131.631 103.981 130.524 103.309C130.306 103.177 129.683 103.473 129.605 103.76C128.99 106.146 127.759 108.212 125.78 109.704C125.024 110.27 123.801 111.024 122.859 111.197C120.015 111.738 117.195 111.902 114.329 111.746L111.103 111.566L103.523 111.172L100.392 105.916L96.7148 98.9955C96.2084 98.0361 97.4704 96.8636 98.2962 96.634C99.7374 96.2322 101.101 96.2322 102.565 96.2404L110.005 96.2814C111.36 96.2814 112.747 96.2814 114.071 95.9042C114.219 95.5844 114.297 94.9121 114.188 94.6333C113.176 92.0094 111.555 90.0497 109.802 87.9834L108.377 86.3024L105.198 82.4896L100.252 75.9955C97.19 71.9776 94.3388 67.9516 91.0435 64.1306L87.1951 59.6699C84.2582 56.2671 81.6563 50.9209 77.7923 54.0696C77.2314 54.5206 76.7329 54.9469 76.3278 55.5045L73.9517 58.7434L69.6905 64.8193L68.2571 66.8282L68.2649 66.8364ZM77.7378 13.1615C78.4701 12.2595 78.5636 10.636 77.6599 9.80782C76.8731 9.07805 75.1826 9.07805 74.4737 9.89802C73.4921 11.0378 73.9907 12.9811 75.2215 13.6371C76.0239 14.0634 77.1613 13.8831 77.7378 13.1615ZM89.9373 14.5226C90.7864 13.6043 91.1993 12.1857 90.6696 11.1198C90.2177 10.2096 88.7064 9.97182 87.9118 10.267C86.7355 10.7098 86.2603 11.6773 86.3927 12.8007C86.5252 13.9241 87.3042 14.6374 88.4727 14.7932C88.8233 14.8424 89.6724 14.8014 89.9373 14.5144V14.5226ZM96.2162 20.8774L98.787 19.8114C99.0051 19.7212 99.3089 19.262 99.2622 19.0242C99.2155 18.7864 98.6935 18.4175 98.4208 18.4995L91.6434 20.5986C86.9614 22.0499 82.2795 22.1893 77.4807 21.5333C74.9801 21.1889 72.6508 20.8692 70.3137 19.918L66.107 18.1961C65.9278 18.1223 65.6084 18.0649 65.4448 18.1059C64.9229 18.2207 65.1488 19.795 67.4703 20.5986C70.0021 21.4759 72.4482 22.3451 75.1047 22.7223C77.6132 23.0749 79.9892 23.4275 82.4665 23.2881L88.4104 22.9601C91.1214 22.8125 93.6377 21.9679 96.2318 20.8856L96.2162 20.8774Z" fill="var(--fill-0, #130F31)"/>
<path id="Vector_2" d="M75.9946 84.4003C73.2914 84.1625 70.9231 83.0145 68.6094 81.842C68.29 81.678 68.0252 80.9154 68.0018 80.5874C67.9784 80.2185 68.6406 79.5707 69.0067 79.7265L71.967 81.0466C73.8445 81.883 75.6674 82.0798 77.6617 82.3176C82.3436 82.8833 86.8697 81.7436 90.3753 78.3243C90.6947 78.0128 91.6218 78.0783 91.91 78.3325C92.2684 78.6523 92.3618 79.5789 91.9801 80.0053C89.1679 83.1703 83.6991 85.0563 79.5313 84.6955L75.9946 84.3921V84.4003Z" fill="var(--fill-0, #130F31)"/>
<path id="Vector_3" d="M77.8392 74.5106C76.7953 75.4536 75.7436 75.6094 74.7387 74.9944C73.7337 74.3794 73.1495 73.1249 73.5312 71.7063C74.022 69.8778 76.7174 69.2054 78.1041 70.5092C79.296 71.6243 78.9454 73.5185 77.8392 74.5188V74.5106Z" fill="var(--fill-0, #130F31)"/>
<path id="Vector_4" d="M86.1262 70.2788C86.6871 70.7707 87.2246 71.8531 87.2013 72.5091C87.1701 73.37 86.6481 74.2146 85.9314 74.7148C84.9343 75.4199 83.7112 75.4282 82.7998 74.6082C82.0207 73.9112 81.6546 72.5009 82.1688 71.3365C82.9244 69.6556 85.5419 69.7622 86.1184 70.2706L86.1262 70.2788Z" fill="var(--fill-0, #130F31)"/>
</g>
</svg>
