<svg width="48" height="48" viewBox="0 0 48 48" fill="none" xmlns="http://www.w3.org/2000/svg">
<g opacity="0.75" clip-path="url(#clip0_8663_3996)">
<path d="M47.4375 12V36C47.4375 42.3133 42.3133 47.4375 36 47.4375H12C5.68666 47.4375 0.5625 42.3133 0.5625 36V0.5625L36 0.5625C42.3133 0.5625 47.4375 5.68666 47.4375 12Z" stroke="#0F0F02" stroke-width="1.125" stroke-miterlimit="10"/>
<mask id="mask0_8663_3996" style="mask-type:alpha" maskUnits="userSpaceOnUse" x="9" y="10" width="30" height="28">
<path d="M20.8506 10.8388C27.7001 9.56292 34.3955 13.7095 36.3049 20.4102L38.3829 20.0874L36.4702 25.0148L33.1564 20.8746L35.1321 20.5755C33.4529 14.9219 28.0064 11.2482 22.1355 11.8091C16.2646 12.3699 11.6122 17.0084 11.0337 22.8776C10.4553 28.7468 14.1127 34.2043 19.7611 35.9005C25.4096 37.5966 31.4685 35.0568 34.219 29.8399L35.258 30.3909C33.3545 34.0271 29.8925 36.5932 25.8598 37.3569C25.0118 37.5225 24.1499 37.6068 23.2859 37.6088C16.3186 37.5898 10.5102 32.2714 9.879 25.3327C9.24775 18.394 14.001 12.1148 20.8506 10.8388ZM25.7417 15.4828C24.3407 16.5454 24.3249 20.2134 25.7417 22.3858C28.0323 25.9121 25.5056 27.7068 24.5217 28.5884C24.8518 29.4577 25.3402 30.2584 25.9621 30.9497C26.2298 31.178 25.4348 32.1304 25.1357 31.6188C24.8366 31.1071 21.3181 26.0696 22.672 20.3629C21.5162 23.1281 21.488 26.2356 22.5933 29.0213C16.7371 29.2417 17.2644 18.9225 25.7417 15.4828Z" fill="white"/>
</mask>
<g mask="url(#mask0_8663_3996)">
<path d="M20.8506 10.8388C27.7001 9.56292 34.3955 13.7095 36.3049 20.4102L38.3829 20.0874L36.4702 25.0148L33.1564 20.8746L35.1321 20.5755C33.4529 14.9219 28.0064 11.2482 22.1355 11.8091C16.2646 12.3699 11.6122 17.0084 11.0337 22.8776C10.4553 28.7468 14.1127 34.2043 19.7611 35.9005C25.4096 37.5966 31.4685 35.0568 34.219 29.8399L35.258 30.3909C33.3545 34.0271 29.8925 36.5932 25.8598 37.3569C25.0118 37.5225 24.1499 37.6068 23.2859 37.6088C16.3186 37.5898 10.5102 32.2714 9.879 25.3327C9.24775 18.394 14.001 12.1148 20.8506 10.8388ZM25.7417 15.4828C24.3407 16.5454 24.3249 20.2134 25.7417 22.3858C28.0323 25.9121 25.5056 27.7068 24.5217 28.5884C24.8518 29.4577 25.3402 30.2584 25.9621 30.9497C26.2298 31.178 25.4348 32.1304 25.1357 31.6188C24.8366 31.1071 21.3181 26.0696 22.672 20.3629C21.5162 23.1281 21.488 26.2356 22.5933 29.0213C16.7371 29.2417 17.2644 18.9225 25.7417 15.4828Z" fill="#0F0F02"/>
<path d="M43.6684 4.31189H4.31238V43.668H43.6684V4.31189Z" fill="#0F0F02"/>
</g>
</g>
<defs>
<clipPath id="clip0_8663_3996">
<rect width="48" height="48" fill="white"/>
</clipPath>
</defs>
</svg>
