<svg width="48" height="48" viewBox="0 0 48 48" fill="none" xmlns="http://www.w3.org/2000/svg">
<g opacity="0.75" clip-path="url(#clip0_8663_3993)">
<path d="M47.4375 12V36C47.4375 42.3133 42.3133 47.4375 36 47.4375H12C5.68666 47.4375 0.5625 42.3133 0.5625 36V0.5625L36 0.5625C42.3133 0.5625 47.4375 5.68666 47.4375 12Z" stroke="#0F0F02" stroke-width="1.125" stroke-miterlimit="10"/>
<path d="M16.4059 36.6547L18.9378 39.1866L21.4681 36.6547L24 39.1866L26.5303 36.6547L29.0622 39.1866L31.5925 36.6547L34.1244 39.1866L36.6547 36.6547L39.1866 34.1244L36.6547 31.5925L39.1866 29.0622L36.6547 26.5303L39.1866 24L36.6547 21.4682L39.1866 18.9379L36.6547 16.406L39.1866 13.8757L36.6547 11.3438L34.1244 8.81348L31.5925 11.3438L29.0622 8.81348L26.5303 11.3438L24 8.81348L21.4681 11.3438L18.9378 8.81348L16.4059 11.3438L13.8756 8.81348L11.3437 11.3438L8.81342 13.8757L11.3437 16.406L8.81342 18.9379L11.3437 21.4682L8.81342 24L11.3437 26.5303L8.81342 29.0622L11.3437 31.5925L8.81342 34.1244L11.3437 36.6547L13.8756 39.1866L16.4059 36.6547Z" stroke="#0F0F02" stroke-width="1.125" stroke-miterlimit="10"/>
</g>
<defs>
<clipPath id="clip0_8663_3993">
<rect width="48" height="48" fill="white"/>
</clipPath>
</defs>
</svg>
