<svg width="48" height="48" viewBox="0 0 48 48" fill="none" xmlns="http://www.w3.org/2000/svg">
<g opacity="0.75">
<path d="M47.4375 12V36C47.4375 42.3133 42.3133 47.4375 36 47.4375H12C5.68666 47.4375 0.5625 42.3133 0.5625 36V0.5625L36 0.5625C42.3133 0.5625 47.4375 5.68666 47.4375 12Z" stroke="#0F0F02" stroke-width="1.125" stroke-miterlimit="10"/>
<path d="M22.2637 7.81445C23.2184 6.84528 24.7816 6.84528 25.7363 7.81445L28.1768 10.291C28.8528 10.9771 29.7781 11.3607 30.7412 11.3535L34.2178 11.3271C35.5778 11.3172 36.6828 12.4222 36.6729 13.7822L36.6465 17.2588C36.6393 18.2219 37.0229 19.1472 37.709 19.8232L40.1855 22.2637C41.1547 23.2184 41.1547 24.7816 40.1855 25.7363L37.709 28.1768C37.0229 28.8528 36.6393 29.7781 36.6465 30.7412L36.6729 34.2178C36.6828 35.5778 35.5778 36.6828 34.2178 36.6729L30.7412 36.6465C29.7781 36.6393 28.8528 37.0229 28.1768 37.709L25.7363 40.1855C24.7816 41.1547 23.2184 41.1547 22.2637 40.1855L19.8232 37.709C19.1472 37.0229 18.2219 36.6393 17.2588 36.6465L13.7822 36.6729C12.4222 36.6828 11.3172 35.5778 11.3271 34.2178L11.3535 30.7412C11.3607 29.7781 10.9771 28.8528 10.291 28.1768L7.81445 25.7363C6.84528 24.7816 6.84528 23.2184 7.81445 22.2637L10.291 19.8232C10.9771 19.1472 11.3607 18.2219 11.3535 17.2588L11.3271 13.7822C11.3172 12.4222 12.4222 11.3172 13.7822 11.3271L17.2588 11.3535C18.2219 11.3607 19.1472 10.9771 19.8232 10.291L22.2637 7.81445Z" stroke="#0F0F02" stroke-width="1.125"/>
<circle cx="24" cy="24" r="9.1875" stroke="#0F0F02" stroke-width="1.125"/>
<path d="M24.9231 28.5V19.5L20.25 26H27" stroke="#0F0F02" stroke-width="1.125" stroke-linejoin="round"/>
</g>
</svg>
