<svg preserveAspectRatio="none" width="100%" height="100%" overflow="visible" style="display: block;" viewBox="0 0 57.264 52.2181" fill="none" xmlns="http://www.w3.org/2000/svg">
<g id="Group">
<path id="Vector" d="M55.1503 44.284L54.8486 45.3291L54.2454 47.2021C53.9438 48.1376 53.5169 49.1072 52.8321 49.8253C52.1037 50.5908 51.03 51.5906 50.034 51.9232C49.4441 52.1198 48.4614 52.2199 47.7823 52.2181L41.4918 52.1897L40.8108 52.0139L34.213 51.961L24.8133 51.893L23.0984 51.8325L21.9488 51.755L16.5025 51.6813L9.30715 51.5925L8.13101 51.411C7.90337 51.377 7.50499 51.3902 7.30771 51.3241C5.45812 50.6928 3.64648 48.8728 2.75868 47.1699C2.25977 46.2117 1.81207 45.2819 1.58253 44.2065L1.2847 42.8192C1.17278 42.2957 1.06655 41.7608 0.988769 41.2335L0.700424 39.2623C0.630235 38.7879 0.630235 38.2663 0.5885 37.773C0.554354 37.361 0.486062 36.9962 0.427255 36.588C0.336198 35.9435 0.355168 35.2593 0.332404 34.6016L0.269803 32.7589L0.102866 31.8234L0.0440589 29.5081C0.0269858 28.8107 -0.0469975 28.1133 0.0459559 27.4178C0.0876901 27.0984 0.679557 27.1211 0.928065 27.1117L2.82128 27.0398L4.61395 26.9869L4.1435 25.6923C3.65596 24.3466 3.60664 22.9859 3.55542 21.4625C3.54214 21.0902 3.90068 19.8409 4.12263 19.4289C4.79417 18.1815 5.27601 17.229 6.42939 16.3634C6.96245 15.9646 7.68901 15.6187 8.33589 15.4713C9.60309 15.184 10.3638 15.1047 11.5589 15.3712C12.754 15.6376 13.602 16.0156 14.3627 17.0343L15.2789 18.2609C16.2749 16.8529 17.6711 15.7529 19.386 15.4014C19.735 15.3296 20.1144 15.373 20.4445 15.3919C22.4477 15.5091 22.4705 15.1255 24.4472 16.6053C25.2174 17.1817 25.7428 17.8602 26.0786 18.758C26.8184 20.733 26.7445 20.5062 26.7995 22.4812C26.8165 23.069 26.771 23.6209 26.5889 24.1652L26.3081 25.0062L25.9212 26.0533L25.4905 27.2024C25.9003 27.2024 26.0995 27.1873 26.4428 27.1325C26.6781 27.0947 27.0176 27.1967 27.2699 27.1986L32.4507 27.2156C32.7257 26.3765 32.758 24.7114 32.7542 23.8099C32.7523 23.2977 32.8509 22.8554 32.9078 22.3603L33.1146 20.5629L33.3973 18.7202C33.4618 18.2949 33.6761 17.8905 33.458 17.469L33.3612 18.1948C33.1981 18.3611 33.0672 18.5369 32.9894 18.758C32.7068 19.5537 32.1623 20.2303 31.3257 20.493C30.8913 20.6291 30.2444 20.6631 29.8157 20.4949C29.2561 20.2775 28.8691 19.6538 28.7837 19.1057C28.3949 16.6261 30.1249 14.755 30.2065 14.3411C30.2179 14.2863 29.9959 14.2844 29.9447 14.3128C28.5371 15.0839 27.6949 15.4014 26.2038 14.8476C25.4109 14.5528 24.6521 13.7817 24.6312 12.8613C24.6103 11.9409 25.2895 11.234 26.0539 10.8107C27.1314 10.2134 28.2848 10.2191 29.6336 10.2399C29.4344 9.92614 29.0493 9.79385 28.7003 9.63131C27.2927 8.97549 26.1659 7.92277 25.6935 6.42591C25.6081 6.15754 25.61 5.60756 25.6935 5.3354C25.9439 4.5246 26.7293 3.99541 27.5829 3.95005C29.1821 3.865 30.935 5.24279 32.1225 6.38056C32.2667 6.07249 32.1263 5.78521 32.0504 5.45447C31.8076 4.39041 31.6824 3.22052 31.9802 2.15269C32.1737 1.45718 32.6859 0.844827 33.1867 0.379893C33.6875 -0.0850399 35.2146 -0.289157 35.7344 0.757888C36.459 2.21506 36.1555 3.32447 36.2655 4.87803C36.9295 3.62309 37.6124 2.43807 38.8208 1.63106C39.4544 1.2077 40.6097 1.06595 41.139 1.75957C42.262 3.22619 41.0707 5.08592 40.1943 6.29551C40.0804 6.45237 39.9723 6.68106 39.8983 6.86628C41.3495 6.23314 43.8043 5.06325 44.9102 6.48828C45.4205 7.1441 45.1227 8.0494 44.6143 8.62584C43.6278 9.74471 42.317 10.2985 40.8999 10.6954L39.7352 11.0204L41.0005 11.3512C42.4327 11.7254 44.1628 12.7157 44.4075 14.3676C44.508 15.0442 44.1931 15.7529 43.7379 16.1139C43.1498 16.5788 42.465 16.5032 41.7896 16.3256C41.4975 16.25 41.1655 16.2179 40.8961 16.0856L39.5891 15.4449C39.5303 15.4165 39.3102 15.3938 39.3083 15.4524C39.297 15.9589 40.9056 17.5314 39.8035 19.3004C39.2306 20.2208 38.1436 20.5081 37.1932 19.9487C36.0986 19.3042 35.3265 18.3138 34.9357 17.0872C34.8731 16.8907 34.7062 16.6469 34.5431 16.388C34.4596 17.7506 34.6151 18.5198 34.6683 19.7483L34.7252 21.0751L34.7707 26.144L34.803 27.2591L37.0225 27.1797L38.4471 27.089C38.8113 27.0663 39.2533 27.14 39.5607 27.3158L39.6043 28.5102C39.7314 28.6633 40.107 28.6936 40.3119 28.7295L42.2525 29.0772L43.7056 29.3305L45.4338 29.6215L46.921 29.8994L48.4349 30.1866L49.9373 30.472C50.5652 30.5911 51.0983 30.6799 51.7338 30.7499C51.9766 29.7406 52.2384 28.618 52.3522 27.5955L48.4918 27.5577L46.6763 27.312L42.465 27.2553L40.0008 27.1703C39.8964 27.1665 39.6878 27.0625 39.6327 26.9869C39.5777 26.9113 39.6081 26.694 39.6327 26.5844L39.9401 25.165L40.2265 23.7475C40.3157 23.3034 40.5395 22.9027 40.2815 22.4756C39.9666 24.4052 37.7756 25.492 36.2655 26.3368L35.0154 27.0361C34.9699 26.5579 34.9775 26.1213 35.0647 25.6772L35.3758 24.0972C35.4441 23.7532 35.5352 23.3355 35.6623 23.0029C36.2086 21.5703 37.7528 20.1055 39.3539 20.5516C39.6802 20.6423 40.0728 21.0732 40.181 21.351L40.5338 22.2544C41.0176 21.2168 41.285 20.2492 42.04 19.444C43.3679 18.0247 45.43 18.8185 45.9422 16.5883C46.7503 16.7357 47.3896 16.7981 48.1067 16.8888C48.4823 16.9361 48.892 17.1458 49.3454 17.1099C49.6964 17.0835 50.3072 17.0872 50.4153 17.503C50.5235 17.9188 50.5007 18.4405 50.789 18.7712C51.8533 19.9884 52.5836 19.9581 53.0939 21.8727C53.276 22.5568 53.2039 23.1427 53.0825 23.8345L52.7259 25.8548L52.4983 27.1476C52.5855 27.3063 52.9232 27.244 53.1432 27.2383C54.5015 27.2005 55.8996 27.1532 57.2484 27.3611C57.2844 27.6446 57.2484 27.9829 57.237 28.2834L57.1649 30.1262C57.1232 31.2091 56.9392 32.2411 56.85 33.3221L56.5692 36.7297C56.5142 37.3837 56.3757 38.1075 56.2619 38.7596L56.0267 40.1185L55.7232 41.8875C55.6454 42.3411 55.5335 42.8249 55.4177 43.2709L55.1522 44.2877L55.1503 44.284ZM38.0449 11.338C38.2726 10.1662 37.9406 9.22685 37.1002 8.43496C36.6943 8.05318 36.2826 7.57502 35.6642 7.51265C35.2222 7.46918 34.6379 7.41815 34.1883 7.51265C32.9192 7.77913 31.8835 8.73357 31.468 9.96016C31.3295 10.3684 31.4206 10.9807 31.4718 11.3852C31.6027 12.4379 32.1927 13.3186 33.0881 13.7496C33.8412 14.1105 34.4634 14.2976 35.2336 14.1276C36.6962 13.8081 37.7452 12.8764 38.043 11.3361L38.0449 11.338ZM19.5567 34.6905C21.7762 34.303 22.7835 32.4168 23.7017 30.7064L24.451 29.3078L25.2572 27.4235C25.1775 27.2704 23.0453 27.2515 22.5805 27.244L17.7166 27.1551C17.0887 27.1438 16.5348 27.1514 15.905 27.1608L9.4039 27.2459C8.1386 27.2629 6.76706 27.3026 5.52452 27.2723C5.36517 27.2685 4.86626 27.1646 4.95352 27.3876L5.92289 29.8786C6.4256 31.1713 7.08576 32.3922 8.10445 33.3731C9.26732 34.4939 10.9898 34.9021 12.5359 34.5355C14.3911 34.0932 14.7705 33.2749 15.4876 33.6377L16.6979 34.2482C17.58 34.6942 18.574 34.8606 19.5605 34.6867L19.5567 34.6905ZM34.2889 48.0204C35.0306 47.599 34.526 45.5313 34.5184 45.2875L34.4254 42.7134C34.4065 42.1861 34.4425 41.587 34.3553 41.0842C33.9246 38.6159 34.4046 38.1359 34.4273 35.6468L34.4767 30.5079L34.6531 29.5592L34.6702 27.2988L32.5664 27.3044L32.5171 31.2242L32.4601 35.6827C32.4564 35.917 32.4203 36.1987 32.3994 36.4443L32.3065 37.4857L32.2211 38.7142L32.0409 40.7062C31.9783 41.398 31.9859 42.1067 31.948 42.8117C31.8854 43.9967 31.891 45.1325 31.9366 46.3459C31.948 46.6634 32.1452 47.2059 32.2818 47.4875C32.703 48.0998 33.6401 48.3909 34.287 48.0223L34.2889 48.0204ZM31.3921 35.5976C31.5667 35.7129 31.7355 35.8868 31.8854 35.7847C32.0295 34.4448 31.745 32.706 31.3637 31.4284C30.9293 29.9731 29.6317 28.6652 28.135 28.3118C27.416 28.1417 26.4941 28.3231 26.145 29.0092C25.6764 29.9296 26.1241 31.3471 26.5908 31.8366C27.4805 32.7702 28.4176 33.6226 29.4894 34.3314L31.3959 35.5958L31.3921 35.5976ZM51.3069 33.0915C51.4132 32.585 51.5156 32.1277 51.5706 31.6079C50.6468 31.3244 49.814 31.2507 48.8863 31.2337C48.3798 31.022 47.8107 31.0277 47.2815 30.9218L45.7847 30.6232L44.5555 30.3492L43.3224 30.0657L42.1121 29.7633C41.7384 29.6707 41.397 29.5989 41.0195 29.5308L39.7485 29.2984C39.4924 29.2511 39.3178 29.4874 39.2533 29.7198C39.1509 30.0922 38.6994 31.7156 38.8436 31.9765L45.6292 33.5508L47.0994 33.8721L48.4481 34.1499L49.7704 34.4277L50.9332 34.6716C51.1609 34.0989 51.1931 33.6453 51.3088 33.0915H51.3069ZM50.5273 36.8715L50.8365 35.5409C50.588 35.2688 50.275 35.2556 49.9259 35.1743L48.6265 34.8681L47.4864 34.5997L46.1812 34.2954L44.9576 34.012L43.7948 33.7436L42.4688 33.4544L41.2167 33.1917L39.7295 32.8836C39.4677 32.8288 39.0504 32.6209 38.8056 32.7249C38.5021 32.8534 38.5078 33.3448 38.4357 33.6075C38.265 34.2369 38.1493 34.7339 38.0449 35.4181C38.5913 35.6203 39.0162 35.7356 39.5436 35.8509L40.8639 36.1382L42.0969 36.4141L43.3281 36.6976L44.5593 36.9792L45.8853 37.2703L47.1183 37.5462L48.3457 37.8297L49.6414 38.1359L50.127 38.2417C50.3167 38.2833 50.4134 37.3685 50.5292 36.8715H50.5273ZM6.27763 46.2571C6.28901 47.0395 6.60392 47.8012 7.32099 48.1017C7.78765 48.2964 8.33589 48.2548 8.89171 48.1924L8.88791 36.1193C8.18223 35.9813 7.44998 35.8641 6.81638 36.0928C5.92668 36.4122 6.06137 38.34 6.10121 39.0865L6.19985 40.933L6.27953 46.2571H6.27763ZM25.3293 38.7085L25.354 36.1892C23.9672 35.9908 23.5632 36.4311 22.277 36.2194C21.5561 36.1004 20.8922 36.2176 20.1656 36.2421L18.5551 36.2969C17.8133 36.3215 17.1171 36.348 16.3773 36.2969L14.7648 36.1873L12.054 36.1079C11.1567 36.0815 10.3296 36.0626 9.38872 36.0853C9.37734 36.9452 9.38493 37.6955 9.4058 38.5139L9.43615 39.6516C9.4703 40.9274 9.31474 40.9633 9.42097 42.5395C9.48168 43.4429 9.43994 44.3293 9.44753 45.2327L9.47599 48.3096L18.8017 48.3663L20.3553 48.4589L22.3396 48.5458L24.2366 48.6233C24.5914 48.6384 24.9366 48.595 25.2857 48.4891L25.3255 38.7048L25.3293 38.7085ZM30.1743 46.121C30.2217 45.2894 30.1989 44.4616 30.1818 43.613L30.1515 42.1993C30.1325 41.2808 30.0965 40.3831 30.1515 39.474C30.2065 38.5649 30.3279 36.7751 29.2883 36.3347C28.1995 36.0475 27.1789 36.159 25.9477 36.1684L25.9231 41.6361C25.9212 42.1615 25.8187 42.7096 25.8756 43.2407C25.9496 43.9532 25.8984 44.6071 25.8889 45.3121L25.8548 48.251C25.8548 48.3871 26.0748 48.6233 26.2 48.6214L28.1312 48.5912C28.4423 48.5855 28.8236 48.5269 29.1575 48.4816C30.0851 48.3531 30.1363 46.7844 30.1743 46.1191V46.121ZM48.2546 41.8327C48.6834 41.9309 49.1007 42.0557 49.4858 42.0009C49.7362 41.4433 49.7666 40.9141 49.8728 40.3528C49.9563 39.9087 50.1308 39.5345 50.0568 39.0374L49.0988 38.8427L47.6761 38.5498L46.4506 38.2738L45.2213 37.979L44.0774 37.7012L42.8804 37.3969L38.9915 36.3782L37.971 36.1665C37.7737 36.8034 37.6276 37.4309 37.5271 38.0867C37.4758 38.4194 37.1496 38.8862 37.4019 39.2169C37.5878 39.4607 38.1645 39.4437 38.4699 39.5212L39.7086 39.8312L40.7728 40.0901L42.004 40.3755L43.2333 40.6609L44.527 40.9633L45.6254 41.2203L46.7617 41.4868L48.2584 41.8327H48.2546ZM49.3189 42.8003C49.3246 42.6264 48.8503 42.5773 48.6834 42.5414L47.2284 42.2201L45.9706 41.9442L44.7414 41.672L43.4173 41.381L42.1804 41.1107L40.7785 40.8064L39.5265 40.5361L38.7089 40.349C38.1588 40.2224 37.3412 39.9616 37.1609 40.1185C37.0357 40.2262 36.5842 42.0727 36.7626 42.5187L37.8078 42.8211L38.652 43.0347L43.717 44.3029L45.2024 44.6374L46.3614 44.902L47.6855 45.1892C48.0896 45.2781 48.5107 45.3575 48.892 45.416L49.1918 44.0175C49.2676 43.664 49.3075 43.2709 49.3208 42.7965L49.3189 42.8003ZM47.9435 49.2905C48.3229 48.8293 48.8769 46.4102 48.6834 46.0908C48.6246 45.9944 48.3324 46 48.2053 45.9717L46.5606 45.6088L45.3295 45.3348L42.7135 44.73L41.9547 44.5429L38.5495 43.6886C37.9008 43.5261 37.326 43.4013 36.6032 43.2936C36.3263 44.1649 36.3244 45.8167 36.4666 46.7409C36.5425 47.2229 36.9105 47.6519 37.2767 47.9864C38.081 48.7197 39.3463 49.1431 40.4067 49.4171L41.5241 49.7082L42.7514 49.9936C44.1988 50.33 46.8717 50.5889 47.9416 49.2905H47.9435Z" fill="var(--fill-0, #130F31)"/>
<path id="Vector_2" d="M23.4829 8.99065C23.2324 10.4006 22.8417 11.7632 21.8742 12.8613C20.2807 14.67 19.1444 15.3069 16.665 15.135C16.3292 15.1123 15.9157 15.1066 15.8664 14.7078L16.3653 14.069C16.6973 13.6438 17.1924 13.4189 17.3536 12.7744C17.0046 12.9879 16.7504 13.3073 16.4601 13.6116L15.5932 14.5264L15.3769 14.4224C15.4206 13.8422 15.3618 13.1259 15.5097 12.5703C15.8872 11.1528 16.407 9.83169 17.3517 8.75062C18.2964 7.66956 19.3663 6.92113 20.7113 6.61117C21.5821 6.41084 22.4623 6.1727 23.3007 6.46376L21.2311 8.54651C21.0186 8.76007 20.8214 9.03223 20.5975 9.22501C20.1972 9.56898 19.9051 9.87516 19.5257 10.2758L18.0991 11.7821C18.0669 11.8162 18.0878 12.0921 18.1276 12.0694C18.4615 11.8729 20.0417 10.2305 20.4192 9.81468C20.8726 9.31573 21.3241 8.91883 21.785 8.43311L23.2533 6.88522C23.3083 6.82663 23.4866 6.71701 23.5758 6.65842C23.8091 7.47111 23.6213 8.20253 23.481 8.99065H23.4829Z" fill="var(--fill-0, #130F31)"/>
<path id="Vector_3" d="M51.5777 16.1088C51.4847 16.4565 51.3292 17.1483 50.8283 17.05L49.3449 16.7608C48.8004 16.655 48.2845 16.6455 47.7248 16.5038L46.9243 16.2997C46.34 16.1523 45.8089 16.1523 45.2796 15.8877C45.2132 14.9748 45.2796 14.2188 45.5053 13.374C45.5964 13.0338 45.6343 12.55 45.9815 12.3421C46.1826 12.2381 46.6758 12.2892 46.9148 12.3345L48.44 12.635L50.0468 12.9204L51.4999 13.1718C51.6573 13.1982 51.9817 13.3816 52.0329 13.5346C52.1999 14.0185 52.0045 14.4853 51.8888 14.9219L51.5758 16.105L51.5777 16.1088Z" fill="var(--fill-0, #130F31)"/>
<path id="Vector_4" d="M15.255 14.5895L15.4922 15.9144C15.6022 16.5268 15.826 17.1694 15.3082 17.7628L14.1434 14.8163C13.4984 13.1853 12.5784 11.7527 11.4648 10.4203C11.1898 10.0914 11.2106 9.70018 11.4781 9.34298C11.7911 8.9253 12.7282 8.6229 13.1645 9.07271C13.7166 9.63971 13.8968 10.5204 14.1187 11.2386L14.3217 11.8944C14.5285 12.5597 14.7467 13.2023 14.9933 13.8543C15.0767 14.0736 15.2057 14.3212 15.2532 14.5895H15.255Z" fill="var(--fill-0, #130F31)"/>
<path id="Vector_5" d="M21.7639 41.866C22.3425 41.9208 22.8717 41.9038 23.4731 41.8414C24.0175 41.7866 24.507 41.5919 24.5089 40.9399L24.5183 37.7666C24.5183 37.3981 24.2414 37.0541 23.824 37.0295C23.1335 36.988 22.4146 36.9974 21.7222 37.0541L20.3127 37.1713C20.1457 37.5398 20.0642 38.0104 20.0623 38.4168L20.0433 40.9531C20.0433 41.1497 19.9712 41.4218 20.0661 41.5749C20.2615 41.8905 21.0696 41.7998 21.762 41.8641L21.7639 41.866ZM14.8265 41.3103L14.8588 37.5682C14.8607 37.2979 14.5439 37.1108 14.3011 37.1108L10.7176 37.124C10.49 37.3471 10.3154 37.7288 10.3154 38.0369L10.3116 41.2706C10.3116 41.9813 11.1634 41.762 11.8255 41.8433C12.3851 41.9113 14.8208 42.038 14.8265 41.3103ZM18.004 41.883L18.9354 41.8017C19.3073 41.7696 19.6525 41.5711 19.6563 41.0873L19.681 37.4019C19.681 37.2563 19.3433 37.1089 19.1896 37.1108L15.481 37.1259C15.4013 37.5058 15.3823 37.7893 15.388 38.1427C15.4184 39.8513 14.7203 41.8036 15.9496 41.8905C16.6021 41.9359 17.3021 41.9454 18.0059 41.8849L18.004 41.883ZM14.1038 47.5094C14.4414 47.5132 14.6767 47.3318 14.7203 46.9746C14.9081 45.4097 14.8853 44.6594 14.8322 43.051C14.8208 42.7165 14.2821 42.5672 14.0108 42.569L10.8049 42.5879C10.6493 42.5974 10.3723 42.9168 10.3097 43.0642L10.3173 47.3412L11.4783 47.4376L13.3355 47.5L14.1038 47.5075V47.5094ZM18.7628 47.6776C18.926 47.6795 19.2333 47.5642 19.3129 47.4414C19.3831 47.3337 19.4723 47.0426 19.4742 46.9046L19.4989 43.0302C19.4989 42.8185 19.1536 42.5709 18.943 42.5728L15.8092 42.5917C15.4791 42.5936 15.149 43.1152 15.149 43.4176L15.1566 47.1144C15.1566 47.4093 15.6612 47.5775 15.8775 47.5945L16.6628 47.6512L18.7628 47.6776ZM24.3969 45.4078L24.4444 44.2719C24.4671 43.7578 24.3874 43.291 24.194 42.7958C23.5679 42.6465 20.0262 42.2156 20.0092 43.051L19.9352 46.8933C19.9257 47.3545 20.159 47.6776 20.639 47.6776L24.1124 47.6663C24.3305 47.8024 24.3818 45.7272 24.395 45.4078H24.3969Z" fill="var(--fill-0, white)"/>
<path id="Vector_6" d="M24.395 45.4083C24.3818 45.7277 24.3305 47.8029 24.1124 47.6669L20.639 47.6782C20.159 47.6782 19.9257 47.355 19.9352 46.8939L20.0092 43.0515C20.0243 42.2162 23.5661 42.6471 24.194 42.7964C24.3875 43.2935 24.4671 43.7584 24.4444 44.2725L24.3969 45.4083H24.395Z" fill="var(--fill-0, #130F31)"/>
<path id="Vector_7" d="M14.1069 47.5108L13.3386 47.5032L11.4814 47.4409L10.3204 47.3445L10.3128 43.0675C10.3773 42.9201 10.6543 42.6007 10.808 42.5912L14.0139 42.5723C14.2833 42.5723 14.8239 42.7216 14.8353 43.0542C14.8884 44.6607 14.9112 45.411 14.7234 46.9778C14.6798 47.3331 14.4445 47.5146 14.1069 47.5127V47.5108Z" fill="var(--fill-0, #130F31)"/>
<path id="Vector_8" d="M18.7614 47.6788L16.6614 47.6524L15.8761 47.5957C15.6579 47.5806 15.1552 47.4124 15.1552 47.1156L15.1476 43.4188C15.1476 43.1146 15.4777 42.5948 15.8078 42.5929L18.9416 42.574C19.1522 42.574 19.4993 42.8216 19.4974 43.0314L19.4728 46.9058C19.4728 47.0438 19.3817 47.333 19.3115 47.4426C19.2319 47.5654 18.9246 47.6807 18.7614 47.6788Z" fill="var(--fill-0, #130F31)"/>
<path id="Vector_9" d="M14.8297 41.3109C14.824 42.0385 12.3864 41.9138 11.8286 41.8439C11.1666 41.7626 10.3148 41.9818 10.3148 41.2712L10.3186 38.0375C10.3186 37.7294 10.4931 37.3476 10.7208 37.1246L14.3042 37.1114C14.547 37.1114 14.8657 37.2985 14.862 37.5687L14.8297 41.3109Z" fill="var(--fill-0, #130F31)"/>
<path id="Vector_10" d="M21.7636 41.8662C21.0712 41.8019 20.2611 41.8926 20.0676 41.577C19.9728 41.4239 20.043 41.1518 20.0449 40.9552L20.0639 38.4189C20.0676 38.0125 20.1492 37.5419 20.3143 37.1734L21.7237 37.0562C22.4161 36.9995 23.1351 36.9901 23.8256 37.0316C24.243 37.0562 24.5199 37.4002 24.5199 37.7687L24.5104 40.942C24.5085 41.594 24.0191 41.7868 23.4747 41.8435C22.8733 41.9059 22.3441 41.921 21.7655 41.8681L21.7636 41.8662Z" fill="var(--fill-0, #130F31)"/>
<path id="Vector_11" d="M18.0064 41.8834C17.3026 41.9458 16.6045 41.9364 15.9501 41.8891C14.7208 41.8022 15.417 39.8479 15.3885 38.1413C15.3828 37.7898 15.4018 37.5044 15.4815 37.1245L19.1901 37.1094C19.3438 37.1094 19.6834 37.2568 19.6815 37.4004L19.6568 41.0859C19.653 41.5678 19.3078 41.7681 18.9359 41.8003L18.0045 41.8815L18.0064 41.8834Z" fill="var(--fill-0, #130F31)"/>
<path id="Vector_12" d="M29.8835 42.0149C29.8494 41.9393 29.7394 43.9804 27.9068 43.7291C27.1936 43.6308 26.5733 43.0128 26.5012 42.3343C26.4196 41.5764 26.706 40.8298 27.5104 40.5596C27.7949 40.4632 28.3451 40.4651 28.6676 40.5671C28.9654 40.6616 29.4434 41.0283 29.5591 41.2872L29.8854 42.0167L29.8835 42.0149ZM29.2158 41.8542C28.9825 41.2797 28.6012 40.9225 28.0738 40.9414C27.5957 40.9584 27.167 41.2589 27.0494 41.7427C26.9318 42.2265 27.093 42.6763 27.5407 42.9844C27.9201 43.2471 28.4228 43.2018 28.7928 42.9334C29.102 42.7104 29.3922 42.287 29.2158 41.8542Z" fill="var(--fill-0, #130F31)"/>
<path id="Vector_13" d="M7.82242 43.6267C7.82242 43.7438 7.70101 44.0254 7.65169 44.1143C7.59478 44.2182 7.34058 44.256 7.18882 44.1596L7.19451 40.667C7.19451 40.529 7.46578 40.3665 7.56063 40.3419C7.67255 40.3154 7.82621 40.58 7.82621 40.718L7.82242 43.6248V43.6267Z" fill="var(--fill-0, #130F31)"/>
</g>
</svg>
