<svg width="24" height="24" viewBox="0 0 24 24" fill="none" xmlns="http://www.w3.org/2000/svg">
<path fill-rule="evenodd" clip-rule="evenodd" d="M1.79999 4.364C1.19599 4.47867 1.15999 5.47467 1.75332 5.63867C1.84932 5.66534 3.69599 5.68 7.10932 5.68H12.32V16.32H10.94C9.64399 16.32 9.55999 16.316 9.55999 16.2493C9.55999 16.12 9.28132 15.592 9.07732 15.336C8.7118 14.8862 8.21259 14.5645 7.65199 14.4173C7.221 14.3374 6.77897 14.3374 6.34799 14.4173C5.63732 14.5813 4.94132 15.1467 4.59999 15.8347C4.53332 15.9693 4.46665 16.1333 4.45465 16.2L4.42932 16.32H3.67999V14.6093C3.67999 13.6067 3.66265 12.8413 3.63999 12.7573C3.55465 12.452 3.21465 12.2907 2.81199 12.3653C2.70572 12.3813 2.60635 12.4277 2.5259 12.4989C2.44545 12.5701 2.38735 12.6631 2.35865 12.7667C2.33199 12.864 2.32132 13.7093 2.32932 15.096C2.33999 17.224 2.34132 17.2773 2.42265 17.384C2.62399 17.6533 2.64265 17.6587 3.57865 17.6733L4.43065 17.6853L4.45465 17.8027C4.49332 17.9973 4.70799 18.3933 4.91732 18.656C5.27065 19.1 5.77865 19.436 6.32132 19.584C6.66932 19.6787 7.33065 19.6787 7.67732 19.584C8.21465 19.4373 8.73332 19.0947 9.08265 18.6573C9.28132 18.4067 9.55999 17.8787 9.55999 17.7507C9.55999 17.684 9.68799 17.68 11.9947 17.68H14.4293L14.4547 17.8C14.4933 17.9973 14.7067 18.392 14.9173 18.656C15.2707 19.1 15.7787 19.436 16.3213 19.584C16.6693 19.6787 17.3307 19.6787 17.6773 19.584C18.216 19.4373 18.7467 19.0853 19.0907 18.6467C19.284 18.4013 19.56 17.876 19.56 17.7533C19.56 17.692 19.6413 17.684 20.4173 17.6733C21.3573 17.6587 21.376 17.6547 21.5773 17.384C21.6587 17.276 21.66 17.2267 21.68 14.1533C21.7013 10.8627 21.696 10.752 21.5213 10.5347C20.9917 9.69044 20.4726 8.83971 19.964 7.98267C19.1373 6.60667 18.4547 5.512 18.3973 5.46934C18.3172 5.41858 18.2294 5.3812 18.1373 5.35867C18.0507 5.33867 17.012 5.32134 15.8293 5.32134L13.68 5.32V5.11067C13.6787 4.65067 13.5267 4.42934 13.1627 4.36C12.8973 4.31067 2.06265 4.31334 1.79999 4.364ZM18.7 8.47067L19.788 10.2893C19.7973 10.3067 18.4267 10.32 16.7427 10.32H13.68V6.68H17.628L18.7 8.47067ZM2.79999 8.364C2.19599 8.47867 2.15999 9.47467 2.75332 9.63867C2.95199 9.69334 7.04799 9.69334 7.24665 9.63867C7.67065 9.52134 7.82132 8.87334 7.50532 8.53467C7.41721 8.43605 7.29552 8.37378 7.16399 8.36C6.89999 8.31067 3.05599 8.31467 2.79999 8.364ZM20.32 14V16.32H19.94C19.6027 16.32 19.56 16.312 19.56 16.2493C19.56 16.12 19.2813 15.592 19.0773 15.336C18.7118 14.8862 18.2126 14.5645 17.652 14.4173C17.221 14.3374 16.779 14.3374 16.348 14.4173C15.6373 14.5813 14.9413 15.1467 14.6 15.8347C14.5333 15.9693 14.4667 16.1333 14.4547 16.2L14.4293 16.32H13.68V11.68H20.32V14ZM7.57999 15.8093C7.83332 15.9387 8.05732 16.1627 8.19332 16.42C8.28665 16.596 8.29999 16.6667 8.29999 17C8.29999 17.3333 8.28665 17.404 8.19332 17.58C8.04875 17.8435 7.83175 18.06 7.56799 18.204C7.40799 18.2853 7.32265 18.3 6.99999 18.3C6.67732 18.3 6.59199 18.2853 6.43199 18.204C6.16823 18.06 5.95123 17.8435 5.80665 17.58C5.71332 17.404 5.69999 17.3333 5.69999 17C5.69999 16.6667 5.71332 16.596 5.80665 16.42C5.98132 16.0893 6.28665 15.8307 6.63999 15.7147C6.69465 15.6973 6.88399 15.688 7.05999 15.6947C7.30932 15.704 7.42399 15.7293 7.57999 15.8093ZM17.58 15.8093C17.8333 15.9387 18.0573 16.1627 18.1933 16.42C18.2867 16.596 18.3 16.6667 18.3 17C18.3 17.3333 18.2867 17.404 18.1933 17.58C18.0487 17.8435 17.8317 18.06 17.568 18.204C17.408 18.2853 17.3227 18.3 17 18.3C16.6773 18.3 16.592 18.2853 16.432 18.204C16.1682 18.06 15.9512 17.8435 15.8067 17.58C15.7133 17.404 15.7 17.3333 15.7 17C15.7 16.6667 15.7133 16.596 15.8067 16.42C15.9813 16.0893 16.2867 15.8307 16.64 15.7147C16.6947 15.6973 16.884 15.688 17.06 15.6947C17.3093 15.704 17.424 15.7293 17.58 15.8093Z" fill="#737373"/>
</svg>
