<svg width="24" height="24" viewBox="0 0 24 24" fill="none" xmlns="http://www.w3.org/2000/svg">
<path fill-rule="evenodd" clip-rule="evenodd" d="M11.3609 2.42361C11.1422 2.48212 10.93 2.56253 10.7275 2.66361C10.3929 2.82894 10.2915 2.90761 9.76221 3.42094C9.43821 3.73561 9.09554 4.04094 9.00087 4.10094C8.71954 4.27827 8.52087 4.31161 7.60087 4.33561C6.64354 4.35961 6.39287 4.40227 5.96087 4.61561C5.38596 4.90112 4.91805 5.36388 4.62621 5.93561C4.38887 6.41961 4.35021 6.63827 4.31954 7.66094C4.30487 8.16761 4.27687 8.62627 4.25687 8.68094C4.15554 8.95827 3.98887 9.17561 3.48354 9.69561C2.92487 10.2689 2.72621 10.5316 2.56887 10.9076C2.39529 11.3369 2.32605 11.8013 2.36685 12.2625C2.40764 12.7238 2.55731 13.1688 2.80354 13.5609C2.89154 13.6969 3.21554 14.0676 3.52487 14.3849C4.30621 15.1889 4.29154 15.1529 4.32621 16.3609C4.34487 17.0316 4.37021 17.3703 4.41687 17.5409C4.65954 18.4409 5.41021 19.2449 6.28221 19.5383C6.60354 19.6476 6.67021 19.6543 7.58087 19.6823C8.19154 19.7009 8.59154 19.7303 8.68087 19.7636C8.94354 19.8596 9.14087 20.0116 9.66087 20.5183C9.94754 20.7969 10.2622 21.0809 10.3609 21.1476C11.1929 21.7129 12.1902 21.8263 13.0942 21.4583C13.4889 21.2983 13.7142 21.1303 14.3262 20.5356C14.8769 20.0023 15.0875 19.8449 15.3795 19.7516C15.4462 19.7303 15.9235 19.6996 16.4409 19.6836C17.3022 19.6556 17.4075 19.6449 17.7009 19.5476C18.1475 19.4009 18.4835 19.1916 18.8369 18.8369C19.1915 18.4836 19.4009 18.1476 19.5475 17.7009C19.6449 17.4076 19.6555 17.3023 19.6835 16.4409C19.6995 15.9236 19.7302 15.4463 19.7515 15.3796C19.8449 15.0876 20.0022 14.8769 20.5355 14.3263C21.1302 13.7143 21.2982 13.4889 21.4582 13.0943C21.8262 12.1903 21.7129 11.1929 21.1475 10.3609C20.9504 10.1165 20.7403 9.88286 20.5182 9.66094C20.0115 9.14094 19.8595 8.94361 19.7635 8.68094C19.7302 8.59161 19.7009 8.19161 19.6822 7.58094C19.6542 6.67027 19.6475 6.60361 19.5382 6.28227C19.2462 5.41294 18.4502 4.66627 17.5755 4.43827C17.3262 4.37294 17.0715 4.35027 16.3409 4.32761C15.1569 4.29161 15.1795 4.30094 14.3889 3.53161C13.6235 2.78894 13.3355 2.60361 12.6955 2.43961C12.2561 2.3455 11.8024 2.34006 11.3609 2.42361ZM12.3289 3.72627C12.7009 3.80494 12.8915 3.93694 13.5315 4.55427C14.2129 5.21294 14.4809 5.39294 15.0209 5.55427C15.3035 5.63961 15.4502 5.65294 16.2809 5.67561C17.1822 5.70094 17.2302 5.70627 17.4422 5.80494C17.7235 5.93694 17.9395 6.12494 18.1009 6.38094C18.3115 6.71294 18.3262 6.79694 18.3595 7.82094C18.3875 8.70094 18.3995 8.80761 18.4955 9.10361C18.6435 9.56094 18.8515 9.85694 19.4769 10.4996C20.2169 11.2609 20.3435 11.5036 20.3142 12.1076C20.2902 12.5996 20.1875 12.7756 19.5315 13.4503C18.9289 14.0716 18.7742 14.2716 18.5969 14.6636C18.4142 15.0663 18.3609 15.4009 18.3609 16.1529C18.3609 17.1889 18.2729 17.5196 17.8995 17.8929C17.5169 18.2783 17.2182 18.3609 16.2169 18.3609C15.4302 18.3609 15.0582 18.4183 14.6555 18.6009C14.2715 18.7743 14.0675 18.9316 13.4502 19.5316C12.8329 20.1316 12.6275 20.2623 12.2169 20.3183C12.0679 20.3345 11.9175 20.3327 11.7689 20.3129C11.3649 20.2516 11.1662 20.1209 10.4875 19.4663C9.97021 18.9676 9.79821 18.8276 9.53821 18.6929C9.00754 18.4183 8.89287 18.3956 7.82087 18.3623C6.78221 18.3289 6.67021 18.3076 6.34621 18.0849C6.11102 17.9236 5.92394 17.7015 5.80487 17.4423C5.70621 17.2303 5.70087 17.1823 5.67554 16.2809C5.65287 15.4503 5.63954 15.3036 5.55421 15.0209C5.39287 14.4809 5.21287 14.2129 4.55421 13.5316C4.19821 13.1636 3.92087 12.8383 3.86221 12.7236C3.71502 12.4251 3.66245 12.0888 3.71154 11.7596C3.78621 11.3569 3.90354 11.1796 4.50087 10.5609C5.09021 9.95027 5.30221 9.67161 5.44354 9.31694C5.62487 8.86627 5.64621 8.72361 5.67421 7.74094C5.70087 6.78227 5.70087 6.78094 5.81821 6.54894C5.96754 6.25427 6.25421 5.96761 6.54887 5.81827C6.78087 5.70094 6.78221 5.70094 7.74087 5.67427C8.72354 5.64627 8.86621 5.62494 9.31687 5.44361C9.67021 5.30227 9.95154 5.09027 10.5209 4.53694C11.1129 3.96227 11.2969 3.82761 11.6115 3.74227C11.8715 3.67294 12.0569 3.66761 12.3289 3.72627ZM14.5849 8.49027C14.4635 8.61427 13.9715 9.47561 12.7995 11.6089L11.1809 14.5583L10.1009 13.4849C9.50754 12.8943 8.97954 12.3903 8.92887 12.3636C8.77106 12.3008 8.59536 12.2999 8.43687 12.3609C8.27287 12.4449 8.04354 12.6903 7.99687 12.8316C7.89287 13.1489 7.88621 13.1409 9.47421 14.7356C10.4449 15.7103 10.9955 16.2343 11.1009 16.2849C11.1889 16.3249 11.3302 16.3596 11.4155 16.3596C11.7129 16.3623 11.7569 16.2916 13.7289 12.7009C14.361 11.5534 14.9899 10.404 15.6155 9.25294C15.6768 9.1348 15.6969 8.99961 15.6728 8.86874C15.6487 8.73787 15.5816 8.61878 15.4822 8.53027C15.3277 8.40361 15.1364 8.3302 14.9369 8.32094C14.7702 8.32094 14.7329 8.33827 14.5849 8.49027Z" fill="#737373"/>
</svg>
