<svg width="24" height="24" viewBox="0 0 24 24" fill="none" xmlns="http://www.w3.org/2000/svg">
<path d="M7.46374 16.1093C7.46374 16.1093 8.42313 13.7636 10.9207 12.1472" stroke="#737373" stroke-width="1.33333" stroke-linecap="round" stroke-linejoin="round"/>
<path d="M16.5651 8.94782L15.9377 12.363C15.543 14.5122 13.4437 15.9278 11.295 15.5332C9.18614 15.1459 7.75432 13.1158 8.14162 11.007C8.32754 9.99427 8.90815 9.09688 9.75571 8.51225C10.6033 7.92761 11.6484 7.70361 12.6611 7.88952L16.2952 8.55721C16.3386 8.56516 16.38 8.58159 16.4171 8.60556C16.4541 8.62952 16.4861 8.66056 16.5112 8.69688C16.5362 8.73321 16.5539 8.77412 16.5631 8.81727C16.5723 8.86042 16.5731 8.90443 16.5651 8.94782Z" stroke="#737373" stroke-width="1.33333" stroke-linecap="round" stroke-linejoin="round"/>
<path d="M5.86181 7.98115L3.44724 8.68691L2.71445 5.79303M20.429 9.46332C19.9376 7.64573 18.8849 6.02967 17.4211 4.84554C15.9572 3.66141 14.1568 2.96968 12.2767 2.86895C10.3965 2.76822 8.53254 3.26364 6.95052 4.28459C5.36849 5.30553 4.14918 6.79987 3.46641 8.55456" stroke="#737373" stroke-width="1.33333" stroke-linecap="round" stroke-linejoin="round"/>
<path d="M17.8072 15.7044L20.1765 14.8592L21.0766 17.7055M3.17837 15.0731C3.77477 16.859 4.91978 18.411 6.45015 19.5079C7.98051 20.6047 9.8181 21.1905 11.7009 21.1815C13.5838 21.1726 15.4157 20.5694 16.9356 19.4581C18.4555 18.3467 19.5857 16.7839 20.1651 14.9924" stroke="#737373" stroke-width="1.33333" stroke-linecap="round" stroke-linejoin="round"/>
</svg>
