<svg width="18" height="18" viewBox="0 0 18 18" fill="none" xmlns="http://www.w3.org/2000/svg">
<path fill-rule="evenodd" clip-rule="evenodd" d="M1.35001 3.27294C0.897012 3.35894 0.870012 4.10594 1.31501 4.22894C1.38701 4.24894 2.77201 4.25994 5.33201 4.25994H9.24001V12.2399H8.20501C7.23301 12.2399 7.17001 12.2369 7.17001 12.1869C7.17001 12.0899 6.96101 11.6939 6.80801 11.5019C6.53387 11.1646 6.15946 10.9233 5.73901 10.8129C5.41577 10.753 5.08425 10.753 4.76101 10.8129C4.22801 10.9359 3.70601 11.3599 3.45001 11.8759C3.40001 11.9769 3.35001 12.0999 3.34101 12.1499L3.32201 12.2399H2.76001V10.9569C2.76001 10.2049 2.74701 9.63094 2.73001 9.56794C2.66601 9.33894 2.41101 9.21794 2.10901 9.27394C2.02931 9.28589 1.95479 9.32068 1.89445 9.3741C1.83411 9.42752 1.79054 9.49728 1.76901 9.57494C1.74901 9.64794 1.74101 10.2819 1.74701 11.3219C1.75501 12.9179 1.75601 12.9579 1.81701 13.0379C1.96801 13.2399 1.98201 13.2439 2.68401 13.2549L3.32301 13.2639L3.34101 13.3519C3.37001 13.4979 3.53101 13.7949 3.68801 13.9919C3.95301 14.3249 4.33401 14.5769 4.74101 14.6879C5.00201 14.7589 5.49801 14.7589 5.75801 14.6879C6.16101 14.5779 6.55001 14.3209 6.81201 13.9929C6.96101 13.8049 7.17001 13.4089 7.17001 13.3129C7.17001 13.2629 7.26601 13.2599 8.99601 13.2599H10.822L10.841 13.3499C10.87 13.4979 11.03 13.7939 11.188 13.9919C11.453 14.3249 11.834 14.5769 12.241 14.6879C12.502 14.7589 12.998 14.7589 13.258 14.6879C13.662 14.5779 14.06 14.3139 14.318 13.9849C14.463 13.8009 14.67 13.4069 14.67 13.3149C14.67 13.2689 14.731 13.2629 15.313 13.2549C16.018 13.2439 16.032 13.2409 16.183 13.0379C16.244 12.9569 16.245 12.9199 16.26 10.6149C16.276 8.14694 16.272 8.06394 16.141 7.90094C15.7438 7.26777 15.3545 6.62972 14.973 5.98694C14.353 4.95494 13.841 4.13394 13.798 4.10194C13.7379 4.06387 13.6721 4.03584 13.603 4.01894C13.538 4.00394 12.759 3.99094 11.872 3.99094L10.26 3.98994V3.83294C10.259 3.48794 10.145 3.32194 9.87201 3.26994C9.67301 3.23294 1.54701 3.23494 1.35001 3.27294ZM14.025 6.35294L14.841 7.71694C14.848 7.72994 13.82 7.73994 12.557 7.73994H10.26V5.00994H13.221L14.025 6.35294ZM2.10001 6.27294C1.64701 6.35894 1.62001 7.10594 2.06501 7.22894C2.21401 7.26994 5.28601 7.26994 5.43501 7.22894C5.75301 7.14094 5.86601 6.65494 5.62901 6.40094C5.56293 6.32697 5.47166 6.28027 5.37301 6.26994C5.17501 6.23294 2.29201 6.23594 2.10001 6.27294ZM15.24 10.4999V12.2399H14.955C14.702 12.2399 14.67 12.2339 14.67 12.1869C14.67 12.0899 14.461 11.6939 14.308 11.5019C14.0339 11.1646 13.6595 10.9233 13.239 10.8129C12.9158 10.753 12.5843 10.753 12.261 10.8129C11.728 10.9359 11.206 11.3599 10.95 11.8759C10.9 11.9769 10.85 12.0999 10.841 12.1499L10.822 12.2399H10.26V8.75994H15.24V10.4999ZM5.68501 11.8569C5.87501 11.9539 6.04301 12.1219 6.14501 12.3149C6.21501 12.4469 6.22501 12.4999 6.22501 12.7499C6.22501 12.9999 6.21501 13.0529 6.14501 13.1849C6.03658 13.3825 5.87383 13.5449 5.67601 13.6529C5.55601 13.7139 5.49201 13.7249 5.25001 13.7249C5.00801 13.7249 4.94401 13.7139 4.82401 13.6529C4.62619 13.5449 4.46344 13.3825 4.35501 13.1849C4.28501 13.0529 4.27501 12.9999 4.27501 12.7499C4.27501 12.4999 4.28501 12.4469 4.35501 12.3149C4.48601 12.0669 4.71501 11.8729 4.98001 11.7859C5.02101 11.7729 5.16301 11.7659 5.29501 11.7709C5.48201 11.7779 5.56801 11.7969 5.68501 11.8569ZM13.185 11.8569C13.375 11.9539 13.543 12.1219 13.645 12.3149C13.715 12.4469 13.725 12.4999 13.725 12.7499C13.725 12.9999 13.715 13.0529 13.645 13.1849C13.5366 13.3825 13.3738 13.5449 13.176 13.6529C13.056 13.7139 12.992 13.7249 12.75 13.7249C12.508 13.7249 12.444 13.7139 12.324 13.6529C12.1262 13.5449 11.9634 13.3825 11.855 13.1849C11.785 13.0529 11.775 12.9999 11.775 12.7499C11.775 12.4999 11.785 12.4469 11.855 12.3149C11.986 12.0669 12.215 11.8729 12.48 11.7859C12.521 11.7729 12.663 11.7659 12.795 11.7709C12.982 11.7779 13.068 11.7969 13.185 11.8569Z" fill="#737373"/>
</svg>
