<svg width="18" height="18" viewBox="0 0 18 18" fill="none" xmlns="http://www.w3.org/2000/svg">
<path fill-rule="evenodd" clip-rule="evenodd" d="M8.51968 1.81758C8.3557 1.86147 8.19656 1.92177 8.04468 1.99758C7.79368 2.12158 7.71768 2.18058 7.32068 2.56558C7.07768 2.80158 6.82068 3.03058 6.74968 3.07558C6.53868 3.20858 6.38968 3.23358 5.69968 3.25158C4.98168 3.26958 4.79368 3.30158 4.46968 3.46158C4.03849 3.67572 3.68756 4.02279 3.46868 4.45158C3.29068 4.81458 3.26168 4.97858 3.23868 5.74558C3.22768 6.12558 3.20668 6.46958 3.19168 6.51058C3.11568 6.71858 2.99068 6.88158 2.61168 7.27158C2.19268 7.70158 2.04368 7.89858 1.92568 8.18058C1.79549 8.50255 1.74356 8.85082 1.77416 9.19677C1.80476 9.54271 1.917 9.87646 2.10168 10.1706C2.16768 10.2726 2.41068 10.5506 2.64268 10.7886C3.22868 11.3916 3.21768 11.3646 3.24368 12.2706C3.25768 12.7736 3.27668 13.0276 3.31168 13.1556C3.49368 13.8306 4.05668 14.4336 4.71068 14.6536C4.95168 14.7356 5.00168 14.7406 5.68468 14.7616C6.14268 14.7756 6.44268 14.7976 6.50968 14.8226C6.70668 14.8946 6.85468 15.0086 7.24468 15.3886C7.45968 15.5976 7.69568 15.8106 7.76968 15.8606C8.39368 16.2846 9.14168 16.3696 9.81968 16.0936C10.1157 15.9736 10.2847 15.8476 10.7437 15.4016C11.1567 15.0016 11.3147 14.8836 11.5337 14.8136C11.5837 14.7976 11.9417 14.7746 12.3297 14.7626C12.9757 14.7416 13.0547 14.7336 13.2747 14.6606C13.6097 14.5506 13.8617 14.3936 14.1267 14.1276C14.3927 13.8626 14.5497 13.6106 14.6597 13.2756C14.7327 13.0556 14.7407 12.9766 14.7617 12.3306C14.7737 11.9426 14.7967 11.5846 14.8127 11.5346C14.8827 11.3156 15.0007 11.1576 15.4007 10.7446C15.8467 10.2856 15.9727 10.1166 16.0927 9.82058C16.3687 9.14258 16.2837 8.39458 15.8597 7.77058C15.7118 7.58727 15.5543 7.41202 15.3877 7.24558C15.0077 6.85558 14.8937 6.70758 14.8217 6.51058C14.7967 6.44358 14.7747 6.14358 14.7607 5.68558C14.7397 5.00258 14.7347 4.95258 14.6527 4.71158C14.4337 4.05958 13.8367 3.49958 13.1807 3.32858C12.9937 3.27958 12.8027 3.26258 12.2547 3.24558C11.3667 3.21858 11.3837 3.22558 10.7907 2.64858C10.2167 2.09158 10.0007 1.95258 9.52068 1.82958C9.19113 1.759 8.85082 1.75493 8.51968 1.81758ZM9.24568 2.79458C9.52468 2.85358 9.66768 2.95258 10.1477 3.41558C10.6587 3.90958 10.8597 4.04458 11.2647 4.16558C11.4767 4.22958 11.5867 4.23958 12.2097 4.25658C12.8857 4.27558 12.9217 4.27958 13.0807 4.35358C13.2917 4.45258 13.4537 4.59358 13.5747 4.78558C13.7327 5.03458 13.7437 5.09758 13.7687 5.86558C13.7897 6.52558 13.7987 6.60558 13.8707 6.82758C13.9817 7.17058 14.1377 7.39258 14.6067 7.87458C15.1617 8.44558 15.2567 8.62758 15.2347 9.08058C15.2167 9.44958 15.1397 9.58158 14.6477 10.0876C14.1957 10.5536 14.0797 10.7036 13.9467 10.9976C13.8097 11.2996 13.7697 11.5506 13.7697 12.1146C13.7697 12.8916 13.7037 13.1396 13.4237 13.4196C13.1367 13.7086 12.9127 13.7706 12.1617 13.7706C11.5717 13.7706 11.2927 13.8136 10.9907 13.9506C10.7027 14.0806 10.5497 14.1986 10.0867 14.6486C9.62368 15.0986 9.46968 15.1966 9.16168 15.2386C9.04992 15.2507 8.93711 15.2494 8.82568 15.2346C8.52268 15.1886 8.37368 15.0906 7.86468 14.5996C7.47668 14.2256 7.34768 14.1206 7.15268 14.0196C6.75468 13.8136 6.66868 13.7966 5.86468 13.7716C5.08568 13.7466 5.00168 13.7306 4.75868 13.5636C4.58229 13.4425 4.44198 13.276 4.35268 13.0816C4.27868 12.9226 4.27468 12.8866 4.25568 12.2106C4.23868 11.5876 4.22868 11.4776 4.16468 11.2656C4.04368 10.8606 3.90868 10.6596 3.41468 10.1486C3.14768 9.87258 2.93968 9.62858 2.89568 9.54258C2.78529 9.31871 2.74586 9.06647 2.78268 8.81958C2.83868 8.51758 2.92668 8.38458 3.37468 7.92058C3.81668 7.46258 3.97568 7.25358 4.08168 6.98758C4.21768 6.64958 4.23368 6.54258 4.25468 5.80558C4.27468 5.08658 4.27468 5.08558 4.36268 4.91158C4.47468 4.69058 4.68968 4.47558 4.91068 4.36358C5.08468 4.27558 5.08568 4.27558 5.80468 4.25558C6.54168 4.23458 6.64868 4.21858 6.98668 4.08258C7.25168 3.97658 7.46268 3.81758 7.88968 3.40258C8.33368 2.97158 8.47168 2.87058 8.70768 2.80658C8.90268 2.75458 9.04168 2.75058 9.24568 2.79458ZM10.9377 6.36758C10.8467 6.46058 10.4777 7.10658 9.59868 8.70658L8.38468 10.9186L7.57468 10.1136C7.12968 9.67058 6.73368 9.29258 6.69568 9.27258C6.57731 9.22549 6.44554 9.22478 6.32668 9.27058C6.20368 9.33358 6.03168 9.51758 5.99668 9.62358C5.91868 9.86158 5.91368 9.85558 7.10468 11.0516C7.83268 11.7826 8.24568 12.1756 8.32468 12.2136C8.39068 12.2436 8.49668 12.2696 8.56068 12.2696C8.78368 12.2716 8.81668 12.2186 10.2957 9.52558C10.7698 8.66491 11.2414 7.80291 11.7107 6.93958C11.7566 6.85098 11.7717 6.74959 11.7536 6.65143C11.7355 6.55328 11.6852 6.46396 11.6107 6.39758C11.4948 6.30259 11.3514 6.24753 11.2017 6.24058C11.0767 6.24058 11.0487 6.25358 10.9377 6.36758Z" fill="#737373"/>
</svg>
