<svg width="18" height="18" viewBox="0 0 18 18" fill="none" xmlns="http://www.w3.org/2000/svg">
<path d="M5.59828 12.0821C5.59828 12.0821 6.31782 10.3228 8.19103 9.11055" stroke="#737373" stroke-linecap="round" stroke-linejoin="round"/>
<path d="M12.4238 6.71087L11.9533 9.27223C11.6572 10.8841 10.0827 11.9458 8.47123 11.6499C6.88959 11.3594 5.81572 9.83687 6.1062 8.25524C6.24564 7.4957 6.68109 6.82266 7.31677 6.38419C7.95244 5.94571 8.73626 5.77771 9.4958 5.91714L12.2214 6.41791C12.254 6.42387 12.285 6.43619 12.3128 6.45417C12.3406 6.47214 12.3646 6.49542 12.3834 6.52266C12.4021 6.54991 12.4154 6.58059 12.4223 6.61295C12.4292 6.64531 12.4298 6.67832 12.4238 6.71087Z" stroke="#737373" stroke-linecap="round" stroke-linejoin="round"/>
<path d="M4.39636 5.9859L2.58543 6.51521L2.03584 4.3448M15.3217 7.09752C14.9532 5.73433 14.1637 4.52228 13.0658 3.63419C11.9679 2.74609 10.6176 2.22729 9.20749 2.15174C7.79737 2.07619 6.3994 2.44776 5.21289 3.21347C4.02637 3.97918 3.11188 5.09993 2.59981 6.41595" stroke="#737373" stroke-linecap="round" stroke-linejoin="round"/>
<path d="M13.3549 11.7784L15.1319 11.1445L15.807 13.2792M2.38329 11.305C2.83059 12.6444 3.68935 13.8084 4.83712 14.631C5.9849 15.4537 7.36309 15.893 8.77521 15.8863C10.1873 15.8796 11.5613 15.4272 12.7012 14.5937C13.8411 13.7602 14.6888 12.5881 15.1233 11.2445" stroke="#737373" stroke-linecap="round" stroke-linejoin="round"/>
</svg>
